<svg xmlns="http://www.w3.org/2000/svg" viewBox="161 157 4832 3415.84">
  <g>
    <path d="M1857.358 542.972c49.593-.561 99.167-.848 148.642 3.028l3.426.264c48.515 3.767 96.565 9.93 144.51 18.208q3.15.543 6.3 1.08c18.765 3.205 37.377 6.978 55.952 11.136l2.146.479c49.11 10.976 97.437 24.639 145.052 40.94q3.767 1.286 7.54 2.558A1248 1248 0 0 1 2477 662l3.358 1.475c34.911 15.344 69.493 31.583 102.886 50.015a777 777 0 0 0 8.053 4.342c12.292 6.571 24.233 13.634 36.109 20.921l3.543 2.174c4.452 2.725 8.95 5.361 13.467 7.976 12.055 6.99 23.63 14.647 35.169 22.447 4.387 2.964 8.791 5.9 13.204 8.826 13.203 8.755 26.394 17.509 39.211 26.824l2.2 1.597c11.965 8.707 23.755 17.64 35.5 26.642a1990 1990 0 0 0 5.952 4.538c7.975 6.082 15.763 12.378 23.523 18.73q2.411 1.972 4.829 3.934a959 959 0 0 1 16.159 13.474 522 522 0 0 0 10.4 8.585c5.073 4.127 9.874 8.501 14.667 12.945a286 286 0 0 0 6.77 6.055c4.897 4.25 9.65 8.656 14.418 13.047a1212 1212 0 0 0 4.738 4.324c5.073 4.615 10.054 9.283 14.86 14.178 1.85 1.818 3.749 3.512 5.72 5.195 4.254 3.7 8.258 7.605 12.237 11.596l2.202 2.2q2.287 2.285 4.57 4.575 3.468 3.473 6.944 6.938l4.471 4.474 2.068 2.062a225 225 0 0 1 11.281 12.2c1.898 2.178 3.919 4.2 5.991 6.211 3.3 3.262 6.399 6.608 9.414 10.133a240 240 0 0 0 5.234 5.734l1.73 1.841a850 850 0 0 0 3.416 3.605c7.412 7.878 11.149 13.783 11.05 24.882-.497 4.776-2.072 7.837-5.344 11.305-5.113 4.07-9.194 5.473-15.734 5.328-8.514-1.233-14.218-6.858-19.907-12.855-2.59-2.715-5.327-5.135-8.175-7.57-2.192-1.91-4.328-3.873-6.458-5.85-5.163-4.791-10.454-9.323-15.945-13.74-3.021-2.513-5.905-5.137-8.781-7.813a261 261 0 0 0-13.898-11.996 949 949 0 0 1-9.218-7.561 960 960 0 0 0-23.002-18.479 2643 2643 0 0 1-6.19-4.835A1345 1345 0 0 0 2792 927l-1.722-1.231c-11.016-7.87-22.19-15.481-33.461-22.978a4798 4798 0 0 1-8.047-5.37c-15.39-10.264-30.947-20.25-46.832-29.733l-3.149-1.883c-24.295-14.48-48.952-28.22-74.023-41.309a989 989 0 0 1-9.72-5.148c-29.548-15.76-60.11-29.553-91.046-42.348l-1.957-.81C2456.08 748.964 2388.223 727.226 2319 710l-2.597-.65c-71.56-17.89-144.9-28.052-218.403-33.35l-2.708-.195A1223 1223 0 0 0 2064 674l-3.354-.17C1957.63 668.656 1853.69 677.637 1605 734l-2.354.732C1553.283 750.095 1505.12 768.748 1458 790l-1.838.829c-30.598 13.827-60.939 28.627-90.162 45.171l-3.163 1.777A1305 1305 0 0 0 1243 914l-2.124 1.512c-10.773 7.673-21.34 15.593-31.837 23.64a864 864 0 0 1-11.337 8.526c-8.515 6.31-16.695 12.98-24.832 19.768-2.503 2.08-5.03 4.13-7.557 6.179-5.923 4.84-11.713 9.83-17.506 14.822-1.791 1.54-3.589 3.07-5.389 4.6-6.626 5.635-13.133 11.364-19.504 17.285a351 351 0 0 1-6.773 6.035c-4.088 3.563-8.066 7.232-12.016 10.946l-2.107 1.976c-4.713 4.437-9.304 8.968-13.85 13.574-2.665 2.626-5.465 5.059-8.3 7.496-4.264 3.747-8.17 7.783-11.833 12.114-5.538 6.36-11.64 12.188-17.638 18.109-6.024 5.954-11.946 11.924-17.397 18.418l-2.887 3.387-1.386 1.634c-4.573 5.387-9.229 10.677-14.04 15.854l-1.54 1.658-1.483 1.596c-10.487 11.302-20.03 23.44-29.506 35.591a556 556 0 0 1-8.842 10.987c-7.81 9.499-15.106 19.333-22.316 29.293l-1.672 2.306a3673 3673 0 0 0-8.125 11.253q-3.15 4.378-6.344 8.726c-9.014 12.311-17.484 24.962-25.859 37.715l-1.539 2.34A1224 1224 0 0 0 898 1276l-1.649 2.588c-20.167 31.735-38.764 64.393-55.998 97.808a655 655 0 0 1-3.86 7.307C810.59 1432.083 789.41 1483.345 771 1535l-.81 2.272c-31.34 88.106-52.236 179.75-70.036 340.389-.15 2.292-.31 4.584-.47 6.877-3.807 55.51-3.373 112.18 1.088 167.625q.34 4.254.666 8.51c7.759 99.586 27.129 198.067 127.523 460.272a779 779 0 0 1 4.516 9.11c6.195 12.619 12.874 24.881 19.879 37.067a853 853 0 0 1 4.796 8.526c11.478 20.605 23.863 40.665 36.848 60.352l1.37 2.087c24.688 37.55 51.415 73.845 80.546 108.077a493 493 0 0 1 8.522 10.336c4.377 5.383 9.058 10.443 13.789 15.512a245 245 0 0 1 6.273 6.988c4.48 5.169 9.144 10.17 13.805 15.175a1628 1628 0 0 1 5.008 5.423c9.008 9.728 18.322 19.144 27.687 28.527l1.916 1.924c9.032 9.07 9.032 9.07 18.545 17.63 1.952 1.676 3.753 3.47 5.539 5.321 3.128 3.17 6.369 6.126 9.746 9.027 2.214 1.938 4.376 3.924 6.533 5.925a302 302 0 0 0 16.073 13.868c2.62 2.158 5.14 4.393 7.648 6.68 5.175 4.705 10.56 9.106 16 13.5l3.797 3.105c7.664 6.268 15.385 12.433 23.27 18.422q3.393 2.59 6.777 5.192c11.247 8.626 22.598 17.076 34.156 25.281l2.288 1.63c70.42 50.061 146.021 93.415 225.49 127.417q3.407 1.462 6.81 2.938c88.196 38.17 180.717 66.168 803.412 82.015l2.876-.713c66.18-16.463 130.758-38.723 193.124-66.287l3.657-1.604c32.613-14.328 65.018-29.838 95.744-47.89 3.932-2.279 7.913-4.467 11.89-6.666 13.122-7.268 25.977-14.91 38.709-22.84l2.64-1.637c22.961-14.283 45.457-29.502 67.36-45.363l2.244-1.625c16.107-11.698 31.804-23.882 47.213-36.484a724 724 0 0 1 8.73-7.016c5.457-4.354 10.774-8.87 16.084-13.4q2.639-2.25 5.284-4.495c6.44-5.483 12.782-11.047 19.015-16.765a288 288 0 0 1 6.18-5.465c4.02-3.495 7.916-7.12 11.813-10.75l1.895-1.763c3.06-2.86 6.068-5.753 9.007-8.737a121 121 0 0 1 7.281-6.754c4.846-4.185 9.357-8.7 13.872-13.234a1509 1509 0 0 1 4.337-4.33c4.68-4.678 9.22-9.42 13.527-14.446 2.223-2.542 4.601-4.876 7.018-7.236 3.685-3.636 7.207-7.346 10.566-11.285 2.033-2.328 4.128-4.587 6.237-6.845a294 294 0 0 0 14.486-16.69c2.32-2.813 4.742-5.498 7.211-8.18 4.894-5.33 9.462-10.867 14-16.5q1.55-1.898 3.102-3.793c6.27-7.665 12.435-15.388 18.425-23.273q2.59-3.394 5.192-6.778c8.626-11.247 17.092-22.587 25.281-34.156l1.842-2.599c51.199-72.432 94.951-150.82 140.158-261.401l.857-2.224c34.075-88.57 57.855-181.272 71.634-291.998l.29-2.497q.265-2.292.522-4.587c.413-3.61.96-7.138 1.697-10.694l-1.922.213c-43.432 4.815-86.885 9.405-130.356 13.859q-9.754 1-19.507 2.006-9.64.994-19.281 1.983-5.657.58-11.314 1.164c-13.7 1.413-27.4 2.805-41.126 3.956l-2.895.243c-35.035 2.845-35.035 2.845-50.599-3.424l-3.207-1.285c-7.445-3.362-13.076-7.938-18.793-13.715l-1.895-1.793c-7.325-7.49-11.645-18.055-15.23-27.77-2.024-5.204-4.625-9.915-9.867-12.37-5.26-1.732-10.034-2.56-15.558-2.713l-2.472-.102c-2.726-.11-5.452-.2-8.179-.29q-2.982-.114-5.963-.231-6.483-.252-12.967-.482a5361 5361 0 0 1-20.949-.802 19964 19964 0 0 0-30.868-1.197l-2.053-.079-8.358-.317q-12.143-.462-24.284-.927l-9.207-.352-2.326-.09-16.499-.63q-53.384-2.038-106.766-4.093l-2.403-.093c-105.319-4.052-105.319-4.052-155.718-6.106l-2.17-.089c-40.884-1.668-81.76-3.464-122.616-5.712l-3.529-.192A362 362 0 0 1 2253 2056c-2.015-5.215-2.015-5.215-1.96-8.057.96-1.943.96-1.943 3.706-3.204l3.692-1.071 2.01-.598c2.18-.644 4.365-1.264 6.552-1.882l4.521-1.321c3.782-1.103 7.57-2.186 11.359-3.262 3.119-.89 6.232-1.8 9.347-2.707 16.028-4.626 31.83-8.593 48.57-9.344l2.287-.11q3.832-.18 7.666-.354l5.694-.265a13156 13156 0 0 1 23.073-1.046c52.904-2.384 105.821-4.434 158.74-6.465l9.915-.38a61455 61455 0 0 1 152.97-5.712q13.147-.474 26.296-.952l3.707-.135 14.698-.534q21.478-.784 42.957-1.535 13.416-.47 26.832-.963 7.74-.285 15.48-.548 7.11-.24 14.22-.51 2.561-.095 5.123-.176c12.79-.408 26.293-.951 37.795-7.119l1.912-1.009A473 473 0 0 0 2897 1993l2.971-1.628A2541 2541 0 0 0 2924 1978l3.015-1.693c11.915-6.699 23.786-13.475 35.647-20.268a2488 2488 0 0 1 25.088-14.164 2198 2198 0 0 0 25.375-14.375l2.999-1.708c5.473-3.174 10.216-6.506 14.876-10.792-8.975-1.466-17.944-2.603-26.991-3.52l-4.087-.422q-5.557-.574-11.115-1.14-6.004-.614-12.007-1.234-11.757-1.21-23.513-2.411-9.674-.99-19.347-1.984l-2.807-.288-5.648-.58a141308 141308 0 0 0-77.915-7.976 204804 204804 0 0 0-165.95-16.885c-84.036-8.523-168.073-17.042-726.74-72.064l-6.263-.612-3.122-.304a832614 832614 0 0 1-124.733-12.19q-37.13-3.63-74.26-7.27-14.36-1.41-28.721-2.814a56308 56308 0 0 1-23.961-2.348l-12.123-1.188q-5.55-.54-11.101-1.089l-5.831-.569a941 941 0 0 1-7.11-.73c-2.648-.277-5.29-.524-7.942-.752q-2.16-.21-4.318-.426l-3.93-.355c-6.445-1.58-9.074-6.505-12.465-11.849a744 744 0 0 0-3.512-4.858 395 395 0 0 1-3.793-5.333 423 423 0 0 0-5.515-7.649c-7.188-9.769-14.013-19.76-20.742-29.847l-1.331-1.991q-1.904-2.851-3.798-5.709l-1.139-1.706c-7.17-10.85-7.17-10.85-7.17-15.532 2.045-6.9 6.41-9.62 12.441-13.016L1597 1677c.628-.345 1.256-.69 1.902-1.047 14.024-6.505 30.325.295 43.848 4.735l6.408 2.046c13.464 4.33 26.723 9.096 39.927 14.15 28.01 10.69 56.7 14.6 86.539 15.662l3.528.127c12.621.427 25.24.529 37.868.592l7.825.05q8.43.055 16.857.1 12.543.07 25.085.149 21.158.13 42.315.252a137863 137863 0 0 1 58.145.346 497215 497215 0 0 0 117.826.703c.947.005 1.894.01 2.87.017q32.703.192 65.406.389l2.817.016 64.2.386 2.76.016 24.642.149 58.046.346c65.34.384 130.681.775 196.021 1.299l11.34.09c48.36.38 96.716 1.06 145.072 1.828q15.83.25 31.66.494l3.165.048c74.56 1.152 149.112 2.276 223.683 2.245l7.044-.001c46.194.007 46.194.007 92.385-.496l2.325-.037c32.462-.542 64.916-1.98 97.353-3.31l9.424-.385c46.558-1.906 93.106-4.04 139.652-6.233q12.096-.57 24.192-1.134c45.241-2.115 90.482-4.236 135.714-6.548l23.763-1.213 20.878-1.067c46.774-2.39 93.558-4.488 140.35-6.448l2.076-.086q45.423-1.9 90.847-3.75l25.125-1.027q10.856-.445 21.71-.88l13.34-.542 6.115-.246a1924 1924 0 0 0 15.748-.68q3.069-.144 6.138-.278l3.438-.196 2.837-.151c3.606-.62 6.474-1.941 9.791-3.48-36.713-2.809-73.435-5.487-110.164-8.091l-21.898-1.557-39.011-2.771-37.764-2.683-2.374-.169-11.8-.839q-48.495-3.447-96.989-6.89v-3c1.87-1.511 1.87-1.511 4.512-3.117l2.952-1.818 3.224-1.94 6.683-4.09 3.402-2.066a678 678 0 0 0 8.512-5.285c13.141-8.277 26.59-15.986 40.102-23.636 5.299-3.001 10.584-6.027 15.87-9.051q4.37-2.5 8.743-4.997l3.5-2 64.75-37 12.243-6.996q7.92-4.523 15.834-9.055l8.86-5.074 1.761-1.008c8.24-4.714 16.51-9.37 24.802-13.992 9.144-5.097 18.204-10.325 27.231-15.625 8.16-4.78 16.401-9.402 24.664-14 7.169-4 14.276-8.093 21.355-12.25 9.15-5.372 18.374-10.59 27.645-15.75 7.169-4 14.276-8.093 21.355-12.25 9.15-5.372 18.374-10.59 27.645-15.75 7.169-4 14.276-8.093 21.355-12.25 9.15-5.372 18.374-10.59 27.645-15.75 7.169-4 14.276-8.093 21.355-12.25 9.15-5.372 18.374-10.59 27.645-15.75 7.169-4 14.276-8.093 21.355-12.25 9.15-5.372 18.374-10.59 27.645-15.75 7.169-4 14.276-8.093 21.355-12.25 9.15-5.372 18.374-10.59 27.645-15.75 7.169-4 14.276-8.093 21.355-12.25 9.15-5.372 18.374-10.59 27.645-15.75 7.169-4 14.276-8.093 21.355-12.25 9.15-5.372 18.374-10.59 27.645-15.75 7.169-4 14.276-8.093 21.355-12.25 9.15-5.372 18.374-10.59 27.645-15.75 7.169-4 14.276-8.094 21.355-12.25a1461 1461 0 0 1 37-21l2.31-1.274c20.092-10.975 42.999-17.788 65.975-17.93l2.33-.02c23.829-.173 45.789 2.174 69.1 7.064l2.774.58c23.585 4.95 47.097 10.226 70.598 15.556a7166 7166 0 0 0 18.39 4.137q7.234 1.625 14.465 3.269 3.39.767 6.78 1.523c24.037 5.366 48.577 11.102 67.278 28.095l2.738 2.457c19.273 18.207 29.062 44.34 30.262 70.543.661 32.017-15.747 56.691-37 79-4.028 4.138-8.14 8.194-12.25 12.25-8.873 8.757-8.873 8.757-17.234 18.002-2.364 2.726-4.893 5.27-7.453 7.81l-1.436 1.448a139 139 0 0 1-8.162 7.517c-6.318 5.475-12.091 11.532-17.965 17.473-13.717 13.873-13.717 13.873-19.943 19.166-1.96 1.68-3.765 3.478-5.557 5.334-3.061 3.102-6.231 5.981-9.535 8.82-3.385 2.993-6.67 6.088-9.965 9.18-5.087 4.765-10.196 9.476-15.5 14l-3.062 2.625a5670 5670 0 0 1-5.307 4.545 1728 1728 0 0 0-11.404 9.851A723 723 0 0 1 4415 1560l-3.777 3.09c-7.672 6.274-15.4 12.443-23.294 18.437-2.254 1.72-4.495 3.456-6.738 5.192-10.027 7.735-20.178 15.168-30.699 22.219-3.318 2.232-6.552 4.556-9.773 6.925-5.9 4.315-11.966 8.342-18.094 12.325l-1.706 1.11c-19.28 12.549-38.942 24.299-58.919 35.702l-6.895 3.945q-7.891 4.515-15.79 9.02a8211 8211 0 0 0-12.428 7.11 3562 3562 0 0 1-36.729 20.773c-7.167 4.005-14.267 8.116-21.345 12.277a824 824 0 0 1-25.742 14.481c-7.052 3.817-14.022 7.76-20.973 11.758-6.773 3.892-13.586 7.71-20.41 11.511a1252 1252 0 0 0-24.875 14.25c-8.499 4.994-17.078 9.798-25.749 14.486-8.795 4.762-17.472 9.72-26.141 14.708a8509 8509 0 0 1-16.673 9.556l-1.797 1.028a2571 2571 0 0 1-25.203 14.222c-9.142 5.096-18.199 10.323-27.225 15.621-8.237 4.823-16.55 9.5-24.887 14.149-9.13 5.091-18.209 10.265-27.277 15.465-4.878 2.796-9.761 5.584-14.644 8.373l-10.765 6.15q-5.432 3.104-10.862 6.212a6780 6780 0 0 1-36.873 20.974 3826 3826 0 0 0-20.803 11.844 3369 3369 0 0 1-31.968 18.077 2368 2368 0 0 0-22.144 12.547c-15.434 8.84-30.941 17.55-46.465 26.232q-10.433 5.84-20.837 11.731l-5.703 3.223a4585 4585 0 0 0-8.795 4.98c-41.59 23.612-84.195 43.453-129.377 59.11l-3.729 1.293c-8.507 2.894-8.507 2.894-11.896 2.894l.042 1.871c.123 10.548-.567 21.045-1.23 31.567l-.196 3.142c-6.611 104.11-23.232 207.257-121.616 516.42l-.894 2.087c-20.331 47.452-42.31 94.558-67.965 139.378-2.586 4.529-5.085 9.099-7.554 13.692-6.535 12.15-13.543 23.98-20.715 35.764q-2.698 4.441-5.376 8.895c-11.68 19.365-23.801 38.467-36.496 57.184l-1.682 2.486c-8.307 12.267-16.708 24.459-25.318 36.514l-1.52 2.137c-8.344 11.713-16.995 23.171-25.741 34.585a893 893 0 0 0-6.551 8.716c-8.6 11.492-17.632 22.64-26.711 33.753q-1.96 2.402-3.914 4.809c-8.663 10.643-17.59 21.063-26.536 31.469a1096 1096 0 0 0-5.96 7 488 488 0 0 1-18.084 20.207 294 294 0 0 0-8.413 9.246c-3.693 4.248-7.518 8.36-11.382 12.453l-2.12 2.25c-4.5 4.761-9.058 9.44-13.76 14.004-1.83 1.88-3.517 3.775-5.214 5.77-5.096 5.868-10.643 11.3-16.146 16.783a2553 2553 0 0 0-5.634 5.64c-5.403 5.406-10.795 10.748-16.62 15.703-2.88 2.509-5.528 5.243-8.194 7.975a200 200 0 0 1-12.447 11.701c-3.435 3.01-6.738 6.159-10.053 9.299-7.425 7.033-15.091 13.743-22.875 20.375-4.157 3.549-8.27 7.132-12.312 10.813-4.187 3.797-8.513 7.383-12.907 10.937-3.11 2.542-6.165 5.141-9.218 7.75-5.586 4.756-11.311 9.309-17.098 13.816a729 729 0 0 0-9.047 7.19c-8.73 7.03-17.607 13.855-26.543 20.619l-2.02 1.531c-16.073 12.174-32.47 23.895-48.98 35.469l-2.71 1.904c-11.621 8.163-23.297 16.186-35.28 23.81a768 768 0 0 0-6.096 3.946c-63.32 41.318-130.103 78.302-199.007 109.477q-3.012 1.363-6.02 2.733c-83.071 37.707-169.405 67.583-378.126 116.44a2397 2397 0 0 0-15.932 3.114c-18.297 3.622-36.634 6.79-55.079 9.576l-2.11.32c-97.458 14.796-196.63 19.11-781.908-98.277-5.25-2.274-10.53-4.472-15.815-6.664-12.424-5.166-24.548-10.863-36.632-16.777a1657 1657 0 0 0-10.316-4.98A3960 3960 0 0 1 1285 3428l-1.824-.889c-13.75-6.706-27.34-13.594-40.604-21.223-7.034-4.045-14.156-7.894-21.322-11.7-47.099-25.155-91.788-55.238-135.25-86.188l-2.163-1.538c-12.482-8.892-24.685-18.127-36.837-27.462l-3.727-2.852c-16.183-12.391-32.17-25.038-47.685-38.26a537 537 0 0 0-10.275-8.513c-4.404-3.581-8.617-7.328-12.81-11.152-2.46-2.185-4.99-4.238-7.565-6.285-5.863-4.736-11.3-9.888-16.749-15.09a348 348 0 0 0-12.218-11.12c-3.307-2.9-6.515-5.904-9.721-8.915l-2.092-1.961a516 516 0 0 1-15.314-15.07 133 133 0 0 0-6.496-5.942c-4.873-4.222-9.42-8.762-13.966-13.328a1509 1509 0 0 0-4.337-4.33c-4.65-4.647-9.155-9.36-13.433-14.352-2.723-3.091-5.668-5.952-8.612-8.83a209 209 0 0 1-12.187-12.934c-3.172-3.615-6.5-7.081-9.813-10.566-7.212-7.585-14.089-15.41-20.875-23.375-3.549-4.157-7.132-8.27-10.812-12.312-3.798-4.187-7.384-8.513-10.938-12.907-2.542-3.11-5.141-6.165-7.75-9.218-4.228-4.963-8.291-10.032-12.29-15.18-3.668-4.704-7.458-9.298-11.272-13.883-6.078-7.331-11.861-14.839-17.505-22.508q-2.475-3.36-4.96-6.71a2277 2277 0 0 1-18.586-25.452c-2.641-3.673-5.289-7.34-7.968-10.985-8.644-11.796-16.732-23.918-24.731-36.157l-5.617-8.563q-1.82-2.775-3.637-5.55a1218 1218 0 0 0-9.2-13.855c-4.572-6.781-8.826-13.675-12.906-20.767a2062 2062 0 0 0-5.453-9.402l-1.13-1.94c-3.537-6.058-7.2-12.034-10.872-18.01-8.64-14.07-16.691-28.422-24.537-42.948q-1.419-2.624-2.842-5.245c-14.37-26.496-28.404-53.198-41.119-80.533l-1.84-3.931c-21.275-45.452-40.546-91.772-57.431-139.036q-1.145-3.189-2.3-6.375C477.692 2445.902 453.187 2343.068 431 2159l-.21-2.561C421.907 2047.52 424.912 1937.998 535 1469l.83-2.048c21.973-54.075 46.811-107.565 75.889-158.206 3.032-5.282 5.979-10.61 8.92-15.943 6.855-12.435 13.935-24.7 21.361-36.803l-3.363-.355C577.844 1247.947 512.54 1215.212 464 1179l-1.646-1.225c-20.636-15.436-41.214-32.787-57.217-53.08-2.285-2.882-4.676-5.656-7.074-8.445-3.858-4.614-7.342-9.379-10.688-14.375l-1.328-1.976C383 1095.26 383 1095.26 383 1093c8.656-.28 17.164.596 25.758 1.498l4.771.489q6.527.67 13.053 1.35c4.7.49 9.402.972 14.104 1.455q13.809 1.422 27.618 2.854 16.113 1.67 32.225 3.33 28.785 2.968 57.569 5.949 27.858 2.885 55.718 5.759l3.46.357 10.34 1.067 3.431.354a336983 336983 0 0 1 69.298 7.157q16.867 1.74 33.733 3.487 6.967.722 13.936 1.441 7.598.785 15.197 1.574l2.383.247c11.027 1.144 22.044 2.354 33.043 3.737 37.1 4.501 76.927-2.512 107.363-25.105 4.611-3.716 8.853-7.78 13-12l2.266-2.27c20.218-21.452 29.29-51.283 33.734-79.73l.36-2.212c5.591-35.93-.39-72.092-5.238-107.725a6030 6030 0 0 1-3.044-22.81 17105 17105 0 0 0-5.49-41.105q-2.626-19.497-5.221-38.996l-.319-2.396-1.588-11.948-3.482-26.17c-2.18-16.381-4.371-32.762-6.563-49.142a65008 65008 0 0 1-13.164-98.806q-.987-7.463-1.982-14.925-1.143-8.576-2.273-17.153-.41-3.1-.825-6.2a2951 2951 0 0 1-1.11-8.41c-.11-.803-.218-1.606-.33-2.433-.633-4.899-.826-9.629-.731-14.569 5.528 1.431 9.262 4.123 13.688 7.563l2.14 1.636A516 516 0 0 1 937 574l3.05 2.535c8.512 7.14 16.5 14.703 24.33 22.583a1371 1371 0 0 0 5.849 5.837c7.053 7.046 13.593 14.212 19.771 22.045a261 261 0 0 0 2.828 3.285C1033.324 676.725 1062.48 736.39 1077 796c7.023-3.672 13.569-7.945 20.129-12.382 3.001-2.029 6.012-4.042 9.023-6.055l1.806-1.208c7.913-5.283 15.943-10.364 24.042-15.355l3.078-1.9c25.833-15.907 52.116-30.884 78.922-45.1l2.538-1.349c4.611-2.447 9.232-4.874 13.86-7.29 2.934-1.535 5.862-3.083 8.79-4.63 14.91-7.846 30.004-15.14 45.331-22.13a941 941 0 0 0 10.204-4.777c84.037-39.766 173.492-68.738 330.422-105.259q3.919-.777 7.835-1.57C1690.358 555.4 1748.685 549.381 1807 545l3.45-.26c15.63-1.147 31.24-1.585 46.908-1.768" fill="#EAA297"/>
    <path d="m4332.285 1192.797 2.33-.022c23.829-.172 45.789 2.175 69.1 7.065l2.774.58c23.585 4.95 47.097 10.226 70.598 15.556a7166 7166 0 0 0 18.39 4.137q7.234 1.625 14.465 3.269 3.39.767 6.78 1.523c24.037 5.366 48.577 11.102 67.278 28.095l2.738 2.457c19.273 18.207 29.062 44.34 30.262 70.543.661 32.017-15.747 56.691-37 79-4.028 4.138-8.14 8.194-12.25 12.25-8.873 8.757-8.873 8.757-17.234 18.002-2.364 2.726-4.893 5.27-7.453 7.81l-1.436 1.448a139 139 0 0 1-8.162 7.517c-6.318 5.475-12.091 11.532-17.965 17.473-13.717 13.873-13.717 13.873-19.943 19.166-1.96 1.68-3.765 3.478-5.557 5.334-3.061 3.102-6.231 5.981-9.535 8.82-3.385 2.993-6.67 6.088-9.965 9.18-5.087 4.765-10.196 9.476-15.5 14l-3.062 2.625a5670 5670 0 0 1-5.307 4.545 1728 1728 0 0 0-11.404 9.851A723 723 0 0 1 4415 1560l-3.777 3.09c-7.672 6.274-15.4 12.443-23.294 18.437-2.254 1.72-4.495 3.456-6.738 5.192-10.027 7.735-20.178 15.168-30.699 22.218-3.318 2.233-6.552 4.557-9.773 6.926-5.9 4.315-11.966 8.342-18.094 12.324l-1.706 1.111c-19.28 12.549-38.942 24.299-58.919 35.702l-6.895 3.945q-7.891 4.515-15.79 9.02a8211 8211 0 0 0-12.428 7.11 3562 3562 0 0 1-36.729 20.773c-7.167 4.005-14.267 8.116-21.346 12.277a824 824 0 0 1-25.741 14.481c-7.052 3.817-14.022 7.76-20.973 11.758-6.773 3.892-13.586 7.71-20.41 11.511a1252 1252 0 0 0-24.876 14.25c-8.498 4.994-17.077 9.798-25.748 14.486-8.795 4.762-17.472 9.72-26.141 14.708a8509 8509 0 0 1-16.673 9.556l-1.797 1.028a2571 2571 0 0 1-25.203 14.222c-9.142 5.096-18.199 10.323-27.225 15.621-8.237 4.823-16.55 9.5-24.887 14.149-9.13 5.091-18.209 10.265-27.277 15.465-4.878 2.796-9.761 5.584-14.644 8.373l-8.951 5.115-1.814 1.036-10.862 6.211a6780 6780 0 0 1-36.873 20.974 3826 3826 0 0 0-20.803 11.844 3369 3369 0 0 1-31.968 18.077 2368 2368 0 0 0-22.144 12.547c-15.434 8.84-30.941 17.55-46.465 26.232q-10.433 5.84-20.837 11.731l-5.703 3.223a4585 4585 0 0 0-8.795 4.98c-41.447 23.53-83.9 43.258-128.877 58.985l-3.526 1.243c-5.839 1.998-11.463 3.491-17.548 4.48-6.036 1.165-11.927 2.98-17.834 4.67-62.913 17.96-126.843 26.353-191.834 32.54-9.055.864-18.108 1.745-27.16 2.624l-6.691.649a4760 4760 0 0 0-59.235 6.118l-6.164.675-2.982.328a2686 2686 0 0 1-23.346 2.423l-3.526.354q-8.314.834-16.63 1.649-2.901.288-5.801.579l-2.693.257c-3.9.051-3.9.051-7.155 1.723a90 90 0 0 1-4.79.632c-1.041.115-2.082.23-3.154.35l-3.5.372-3.673.402q-5.048.55-10.095 1.09-3.21.345-6.418.692c-33.537 3.633-67.091 7.096-100.648 10.534q-9.754 1-19.507 2.006-9.64.995-19.281 1.983-5.657.58-11.314 1.164c-13.7 1.413-27.4 2.805-41.126 3.956l-2.895.243c-35.035 2.845-35.035 2.845-50.599-3.424l-3.207-1.285c-7.445-3.362-13.076-7.938-18.793-13.715l-1.895-1.793c-7.325-7.49-11.645-18.055-15.23-27.77-2.024-5.204-4.625-9.915-9.867-12.37-5.26-1.732-10.034-2.56-15.558-2.713l-2.472-.102c-2.726-.11-5.452-.2-8.179-.29q-2.982-.114-5.963-.231-6.483-.251-12.967-.482c-6.984-.25-13.966-.524-20.949-.802q-15.433-.61-30.868-1.197l-2.053-.079-8.358-.317q-12.143-.462-24.284-.927l-9.207-.352-2.326-.09-16.499-.63q-53.384-2.038-106.766-4.093l-2.403-.093c-105.319-4.052-105.319-4.052-155.718-6.106l-2.17-.089c-40.884-1.668-81.76-3.464-122.616-5.712l-3.529-.192A362 362 0 0 1 2253 2056c-2.015-5.215-2.015-5.215-1.96-8.057.96-1.943.96-1.943 3.706-3.204l3.691-1.071 2.011-.598c2.18-.644 4.365-1.264 6.552-1.882l4.521-1.321c3.782-1.103 7.57-2.186 11.359-3.262 3.119-.89 6.232-1.8 9.347-2.707 16.028-4.626 31.83-8.593 48.57-9.344l2.287-.11q3.832-.18 7.666-.354l5.694-.265a13156 13156 0 0 1 23.073-1.046c52.904-2.384 105.821-4.434 158.74-6.465l9.915-.38a61647 61647 0 0 1 152.97-5.712q13.147-.474 26.296-.952l3.707-.135 14.698-.534q21.479-.784 42.957-1.535 13.416-.47 26.832-.963 7.74-.285 15.48-.548 7.11-.24 14.22-.51 2.561-.095 5.123-.176c12.79-.408 26.293-.951 37.795-7.119l1.912-1.009A473 473 0 0 0 2897 1993l2.971-1.628A2541 2541 0 0 0 2924 1978l3.015-1.693c11.915-6.699 23.786-13.475 35.647-20.268a2488 2488 0 0 1 25.088-14.164 2198 2198 0 0 0 25.375-14.375l2.999-1.708c5.473-3.174 10.216-6.506 14.876-10.792-8.975-1.466-17.944-2.603-26.991-3.52l-4.087-.422q-5.557-.574-11.115-1.14-6.004-.614-12.007-1.234-11.757-1.21-23.513-2.411-9.674-.99-19.347-1.984l-2.807-.288-5.648-.58a141308 141308 0 0 0-77.915-7.976 204804 204804 0 0 0-165.95-16.885c-84.036-8.523-168.073-17.042-726.74-72.064l-9.385-.916a832617 832617 0 0 1-124.733-12.19q-37.13-3.63-74.26-7.27-14.36-1.41-28.721-2.814-11.98-1.172-23.961-2.348l-12.123-1.188q-5.55-.54-11.101-1.089l-5.831-.569a941 941 0 0 1-7.11-.73c-2.648-.277-5.29-.524-7.942-.752l-4.318-.426-3.93-.355c-6.445-1.58-9.074-6.505-12.465-11.849a744 744 0 0 0-3.512-4.858 395 395 0 0 1-3.793-5.333 423 423 0 0 0-5.515-7.649c-7.188-9.769-14.013-19.76-20.743-29.848l-1.33-1.99q-1.904-2.852-3.798-5.709l-1.139-1.706c-7.17-10.85-7.17-10.85-7.17-15.532 2.045-6.9 6.41-9.62 12.441-13.016L1597 1677c.628-.345 1.256-.69 1.902-1.047 14.024-6.505 30.325.295 43.848 4.735l6.408 2.046c13.464 4.33 26.723 9.096 39.927 14.15 28.01 10.69 56.7 14.6 86.539 15.662l3.528.127c12.621.427 25.24.529 37.868.592l7.825.05q8.43.055 16.857.1 12.543.07 25.085.149 21.157.13 42.315.252a137862 137862 0 0 1 58.145.346 497215 497215 0 0 0 120.695.72q32.704.192 65.407.389l2.817.016 64.2.386 2.76.016 24.642.149 58.046.346c65.34.384 130.681.775 196.021 1.299l11.34.09c48.36.38 96.716 1.06 145.072 1.828q15.83.25 31.66.494l3.165.048c74.56 1.152 149.112 2.276 223.683 2.245l7.044-.001c46.194.007 46.194.007 92.385-.496l2.325-.037c32.462-.542 64.916-1.98 97.353-3.31l9.424-.385c46.558-1.906 93.106-4.04 139.652-6.233q12.096-.57 24.192-1.134c45.241-2.115 90.482-4.236 135.714-6.548l23.763-1.213 20.878-1.067c46.774-2.39 93.558-4.488 140.35-6.448l2.076-.086q45.423-1.9 90.847-3.75l21.376-.874 3.75-.153q10.854-.444 21.71-.88l13.34-.542 6.114-.246a1924 1924 0 0 0 15.748-.68q3.069-.144 6.138-.278l3.438-.196 2.837-.151c3.606-.62 6.474-1.941 9.791-3.48-36.713-2.809-73.435-5.487-110.164-8.091l-21.898-1.557-39.011-2.771-37.764-2.683-2.374-.169-11.8-.839q-48.495-3.447-96.989-6.89v-3c1.87-1.511 1.87-1.511 4.512-3.117l2.952-1.818 3.224-1.94 6.683-4.09 3.402-2.066a678 678 0 0 0 8.512-5.285c13.141-8.277 26.59-15.986 40.102-23.636 5.299-3.001 10.584-6.027 15.87-9.051q4.37-2.5 8.743-4.997l3.5-2 64.75-37 12.243-6.996q7.92-4.523 15.834-9.055l8.86-5.074 1.761-1.008c8.24-4.714 16.51-9.37 24.802-13.992 9.144-5.097 18.204-10.325 27.231-15.625 8.16-4.78 16.401-9.402 24.664-14 7.169-4 14.276-8.093 21.355-12.25 9.15-5.372 18.374-10.59 27.645-15.75 7.169-4 14.276-8.093 21.355-12.25 9.15-5.372 18.374-10.59 27.645-15.75 7.169-4 14.276-8.093 21.355-12.25 9.15-5.372 18.374-10.59 27.645-15.75 7.169-4 14.276-8.093 21.355-12.25 9.15-5.372 18.374-10.59 27.645-15.75 7.169-4 14.276-8.093 21.355-12.25 9.15-5.372 18.374-10.59 27.645-15.75 7.169-4 14.276-8.093 21.355-12.25 9.15-5.372 18.374-10.59 27.645-15.75 7.169-4 14.276-8.093 21.355-12.25 9.15-5.372 18.374-10.59 27.645-15.75 7.169-4 14.276-8.093 21.355-12.25 9.15-5.372 18.374-10.59 27.645-15.75 7.169-4 14.276-8.093 21.355-12.25 9.15-5.372 18.374-10.59 27.645-15.75 7.169-4 14.276-8.094 21.355-12.25a1461 1461 0 0 1 37-21l2.31-1.274c20.092-10.975 42.999-17.788 65.975-17.93M4907 1719c4.34.902 7.435 3.161 11 5.688l2.104 1.468a1617 1617 0 0 1 4.518 3.17q3.634 2.555 7.28 5.096a5954 5954 0 0 1 29.995 21.093q4.387 3.096 8.78 6.186 3.208 2.262 6.409 4.533a585 585 0 0 0 7.39 5.157l3.024 2.109 2.594 1.781c2.159 1.947 2.35 2.952 2.906 5.719l-3.696 1.414-20.583 7.88c-11.103 4.25-22.205 8.502-33.295 12.784-15.344 5.924-30.696 11.818-46.114 17.547l-2.15.8a2070 2070 0 0 1-24.611 8.958c-15.284 5.456-30.386 11.018-45.233 17.595-40.774 17.974-83.769 23.218-127.792 26.52a2567 2567 0 0 0-76.36 6.858l-16.49 1.73c-43.903 4.614-87.84 8.82-131.793 12.922l-20.368 1.905-2.996.281-6.038.566c-53.979 5.056-107.96 10.084-161.943 15.11l-60.813 5.663a236993 236993 0 0 1-61.22 5.695c-112.318 10.408-112.318 10.408-224.575 21.44l-3.537.358q-11.529 1.168-23.058 2.35l-3.115.319a8025 8025 0 0 0-37.43 3.934l-11.588 1.238q-5.456.587-10.91 1.183c-10.117 1.09-20.22 2.118-30.382 2.683l-2.414.139c-1.83.087-3.663.114-5.496.128-1-1-1-1-1.062-3.562L3798 1953l3.145-1.61q34.794-17.817 69.576-35.657a80949 80949 0 0 1 27.029-13.858l2.464-1.263q15.901-8.154 31.791-16.333a17414 17414 0 0 1 47.883-24.536c16.84-8.602 33.671-17.22 50.5-25.843q9.028-4.625 18.057-9.248c31.552-16.152 63.082-32.347 94.555-48.652l3.499-1.812c11.84-6.132 23.677-12.274 35.501-18.438l2.841-1.478a870 870 0 0 0 13.32-7.065c25.81-13.97 48.304-16.832 76.927-10.646 5.05 1.087 10.114 2.1 15.178 3.119l3.056.617c62.826 12.584 127.714 13.459 191.535 15.392 32.14.974 64.23 2.273 96.334 4.095 68.106 3.865 136.199 6.704 204.382 8.802q4.878.15 9.756.304c12.701.397 25.404.752 38.108 1.048q3.723.092 7.444.197 5.483.15 10.968.226c1.884.032 3.767.088 5.651.146 9.249.075 16.085-2.306 23.063-8.445 11.204-12.267 18.49-28.644 26.437-43.062" fill="#0F486E"/>
    <path d="M638.15 626.175c2.68 1.195 3.292 2.78 4.627 5.364l1.535 2.911 1.625 3.175q1.752 3.327 3.508 6.652l1.798 3.422c2.598 4.882 5.326 9.686 8.07 14.488a2113 2113 0 0 1 14.624 26.188 4917 4917 0 0 0 20.345 36.564q4.363 7.778 8.718 15.561l3.496 6.242q3.521 6.288 7.04 12.578a8763 8763 0 0 0 21.855 38.837q4.057 7.17 8.109 14.343l3.25 5.75 45.5 80.5 1.625 2.875 3.252 5.754q4.042 7.152 8.088 14.3a7475 7475 0 0 1 18.554 32.985 5360 5360 0 0 0 13.334 23.668 4572 4572 0 0 1 13.706 24.424c2.878 5.15 5.78 10.282 8.742 15.385l1.697 2.93q1.59 2.74 3.198 5.47l1.421 2.451 1.254 2.136C868 1033 868 1033 868 1036c-4.39-.607-7.886-2.313-11.73-4.402l-1.985-1.058q-3.24-1.732-6.473-3.478l-4.566-2.44a7042 7042 0 0 1-9.502-5.085c-6.65-3.56-13.321-7.08-19.992-10.6a6155 6155 0 0 1-36.277-19.324A6492 6492 0 0 0 751 975.5a10105 10105 0 0 1-40.556-21.653q-5.248-2.813-10.499-5.624a13662 13662 0 0 1-65.035-35.02 6870 6870 0 0 0-11.726-6.344 3894 3894 0 0 1-34.54-18.886q-12.472-6.9-25.019-13.66c-8.65-4.666-17.23-9.443-25.773-14.3a1809 1809 0 0 0-18.855-10.553 1626 1626 0 0 1-37.94-21.665c-5.511-3.236-11.035-6.452-16.557-9.67l-6.094-3.555-2.584-1.507L454 812c.583-3.495 1.768-5.138 4.262-7.616l2.115-2.124 2.336-2.298 2.45-2.446c2.68-2.674 5.372-5.337 8.064-8l5.595-5.576q6.625-6.602 13.266-13.188c8.378-8.312 16.741-16.638 25.104-24.965q4.113-4.092 8.233-8.176l5.085-5.055 2.3-2.274a219 219 0 0 0 11.377-12.236c3.448-3.891 7.14-7.546 10.806-11.232l2.644-2.668a6794 6794 0 0 1 8.593-8.65l2.975-2.99q6.18-6.214 12.366-12.418a7326 7326 0 0 0 17.663-17.77q6.218-6.274 12.461-12.524 3.725-3.727 7.428-7.477c2.744-2.779 5.507-5.538 8.272-8.296l2.474-2.523 2.28-2.255 1.973-1.983C636 626 636 626 638.15 626.175M430.578 843.023c4.901 1.4 8.852 3.94 13.172 6.602q2.966 1.79 5.934 3.574l3.132 1.892c5.297 3.176 10.645 6.264 15.997 9.346l3.297 1.901c10.548 6.065 21.162 12.01 31.79 17.933 4.127 2.302 8.249 4.614 12.37 6.926A9390 9390 0 0 0 559 915l1.804 1c14.26 7.897 28.541 15.749 42.884 23.495q9.595 5.188 19.12 10.5c6.99 3.898 13.996 7.766 21.005 11.63l24.285 13.394 9.016 4.975q8.21 4.532 16.426 9.057a6238 6238 0 0 1 45.395 25.231q4.663 2.612 9.335 5.21c11.355 6.326 22.643 12.75 33.854 19.33 6.73 3.946 13.507 7.801 20.313 11.616a1000 1000 0 0 1 24.813 14.437l3.064 1.838A1428 1428 0 0 1 839 1072l3.143 1.896 3.029 1.862 2.737 1.668C850 1079 850 1079 851 1082c-14.028-.624-27.935-2.228-41.882-3.807q-5.211-.587-10.422-1.167-9.021-1.01-18.042-2.023c-15.48-1.74-30.963-3.466-46.444-5.193l-7.644-.853c-33.996-3.794-67.999-7.52-102.005-11.218l-15.942-1.735-2.294-.25-4.594-.5q-36.795-4.007-73.595-8.004-28.716-3.119-57.433-6.25l-2.265-.247c-49.709-5.422-99.4-11-149.079-16.69l-2.34-.269q-16.378-1.875-32.754-3.759l-3.942-.453-10.884-1.254-3.185-.366c-5.422-.626-10.84-1.275-16.254-1.962.58-3.37 1.603-4.966 4.063-7.312l1.66-1.614a347 347 0 0 1 6.007-5.324c4.264-3.719 8.405-7.555 12.52-11.437l2.234-2.104a552 552 0 0 0 15.707-15.463 125 125 0 0 1 6.365-5.802c5.013-4.37 9.672-9.065 14.35-13.788l4.238-4.254q3.68-3.699 7.356-7.402 4.394-4.427 8.793-8.844 2.73-2.74 5.45-5.486c4.336-4.354 8.739-8.534 13.4-12.537 3.036-2.67 5.864-5.536 8.7-8.414l1.86-1.87q2.901-2.922 5.797-5.849c14.755-14.911 14.755-14.911 20.885-20.107 2.513-2.168 4.796-4.518 7.115-6.893 3.583-3.631 7.238-7.099 11.121-10.406 4.159-3.66 8.165-7.489 12.189-11.296l1.897-1.786 1.702-1.61c2.418-2.13 3.876-3.409 7.17-3.379" fill="#EAA297"/>
    <path d="M837 426h2c2.914 18.286 5.455 36.6 7.789 54.967l.805 6.29q1.604 12.544 3.196 25.09l1.86 14.622c9.867 77.508 19.375 155.06 28.86 232.617q2.415 19.76 4.835 39.52l.348 2.843 3.804 31.057.342 2.792 1.357 11.075q1.929 15.74 3.853 31.479a80170 80170 0 0 0 3.55 29 11775 11775 0 0 0 7.922 63.36q1.532 12.04 3.081 24.077.629 4.884 1.25 9.768l.585 4.53q.402 3.102.796 6.206l.451 3.506c.305 3.092.374 6.097.316 9.201-3.797-1.266-4.054-2.375-5.934-5.828l-1.696-3.08-1.808-3.342-3.816-6.934-1.922-3.507c-2.518-4.569-5.1-9.098-7.699-13.621l-2.937-5.13L885 981q-3.94-6.874-7.875-13.75l-1.029-1.797a2854 2854 0 0 1-15.945-28.297c-3.982-7.127-8.073-14.183-12.213-21.218-5.262-8.949-10.279-18.005-15.187-27.151-3.94-7.333-8.015-14.577-12.166-21.793a1925 1925 0 0 1-11.46-20.244l-1.771-3.167q-1.785-3.192-3.567-6.385-4.422-7.914-8.85-15.823l-1.757-3.14a5651 5651 0 0 0-13.288-23.574q-4.187-7.393-8.326-14.813c-6.295-11.296-12.685-22.523-19.237-33.672-4.474-7.642-8.799-15.362-13.079-23.114-4.376-7.922-8.79-15.807-13.417-23.586-3.715-6.248-7.336-12.548-10.958-18.851C707.039 667.01 699.045 653.493 691 640c-.548-.92-1.096-1.84-1.66-2.79q-2.26-3.794-4.528-7.585l-1.417-2.376a537 537 0 0 0-8.06-13.007l-1.842-2.905q-1.77-2.78-3.57-5.538l-1.599-2.518-1.435-2.217C666 599 666 599 666.163 596.954c.987-2.304 2.158-3.691 3.9-5.493l1.917-2.012 2.02-2.074q1.939-2.018 3.875-4.04l2.057-2.14c2.06-2.186 4.047-4.422 6.033-6.675 6.194-6.919 12.8-13.434 19.374-19.989a3573 3573 0 0 0 6.667-6.674l4.31-4.306 1.977-1.983a218 218 0 0 1 11.922-11.003c2.729-2.392 5.253-4.968 7.785-7.565 3.913-3.967 7.896-7.746 12.14-11.36 2.754-2.428 5.289-5.06 7.864-7.675 1.917-1.887 3.892-3.652 5.933-5.402 3.73-3.204 7.172-6.63 10.594-10.157 1.951-1.901 3.92-3.663 5.988-5.43 5.1-4.45 9.863-9.214 14.641-14.003l2.875-2.872q2.994-2.992 5.983-5.988 3.8-3.81 7.61-7.608 2.965-2.958 5.923-5.923a3973 3973 0 0 1 4.153-4.147c4.97-4.988 9.717-10.088 14.296-15.435z" fill="#EAA298"/>
    <path d="M2836.125 1463.688c5.916 4.838 11.01 10.37 15.992 16.144a489 489 0 0 0 6.383 7.168 596 596 0 0 1 7.875 8.875c2.984 3.428 6.047 6.781 9.125 10.125a544 544 0 0 1 10.758 12.008 594 594 0 0 0 6.242 6.992c3.267 3.62 6.495 7.27 9.695 10.95 2.035 2.31 4.107 4.585 6.18 6.862a231 231 0 0 1 8.875 10.438c4.66 5.764 9.688 11.139 14.754 16.543 4.377 4.67 8.547 9.504 12.695 14.379l3.051 3.578 1.56 1.83a387 387 0 0 0 10.378 11.608 202 202 0 0 1 9.687 11.187c3.532 4.393 7.264 8.524 11.125 12.625a254 254 0 0 1 13.387 15.418c2.15 2.626 4.388 5.138 6.675 7.645 12.118 13.35 12.118 13.35 14.438 19.937-2.07 2.07-6.181 1.789-9.035 2.152l-2.582.339q-4.317.563-8.634 1.117l-6.164.803q-8.394 1.093-16.79 2.175-6.998.905-13.995 1.813a49541 49541 0 0 1-33.005 4.267 32180 32180 0 0 0-34.098 4.419q-14.613 1.9-29.228 3.786-8.739 1.127-17.476 2.265a7802 7802 0 0 1-16.434 2.123q-3.023.388-6.043.785-4.113.537-8.228 1.058l-2.435.325c-3.355.418-5.602.657-8.853-.427-.961-1.939-.961-1.939-1.8-4.533l-.977-2.968-1.04-3.28-1.116-3.426a1884 1884 0 0 1-3.003-9.335c-.84-2.625-1.689-5.248-2.538-7.87a5897 5897 0 0 1-7.89-24.596l-3.032-9.491c-8.368-26.226-16.566-52.504-24.666-78.813l-1.056-3.427q-1.46-4.75-2.917-9.5l-.872-2.835-.796-2.603-.69-2.251c-2.667-9.108-2.236-15.313 2.226-23.84 6.411-11.392 15.895-17.146 27.015-23.298 5.33-2.975 10.388-6.3 15.465-9.684 28.779-19.027 28.779-19.027 41.812-9.562" fill="#0F486E"/>
    <path d="M601 339c15.102 3.565 30 7.884 44.927 12.11q5.78 1.635 11.56 3.266l19.93 5.633q15.05 4.254 30.102 8.498l22.496 6.346 8.066 2.276A17962 17962 0 0 1 808 397c0 4 0 4-1.342 5.812l-1.877 1.833-2.078 2.052-2.203 2.115-2.11 2.08a217 217 0 0 1-10.105 9.318c-3.892 3.402-7.58 6.955-11.217 10.624l-1.945 1.95a3648 3648 0 0 0-4.132 4.15 5055 5055 0 0 1-6.562 6.586A20282 20282 0 0 0 750.5 457.5a20937 20937 0 0 1-16.156 16.212 6176 6176 0 0 0-6.428 6.46l-3.984 3.994-1.774 1.789c-3.626 3.627-7.393 7.027-11.271 10.382-2.622 2.31-5.065 4.744-7.521 7.231l-1.526 1.54q-1.613 1.63-3.224 3.262-2.551 2.582-5.108 5.156-7.263 7.31-14.504 14.642-4.45 4.505-8.917 8.991a976 976 0 0 0-3.384 3.425 934 934 0 0 1-4.716 4.754l-2.706 2.735C657 550 657 550 654 550a23239 23239 0 0 1-26.258-101.857l-3.363-13.155-.673-2.632a10859 10859 0 0 0-9.4-36.48 17132 17132 0 0 1-3.806-14.696 7070 7070 0 0 0-3.594-13.819q-1.102-4.232-2.195-8.467-.747-2.875-1.503-5.748l-.889-3.454-.777-2.985c-.53-2.649-.646-5.014-.542-7.707M168 776c8.814.458 17.15 2.609 25.656 4.805l4.663 1.184q6.284 1.6 12.563 3.215 6.62 1.695 13.242 3.38c10.067 2.566 20.13 5.146 30.193 7.728l12.95 3.318q24.68 6.323 49.353 12.672 20.247 5.209 40.505 10.385l2.74.701Q366.934 825.196 374 827c-.581 3.269-1.522 4.891-3.879 7.207l-1.795 1.78-1.889 1.826-1.806 1.79c-3.002 2.95-6.062 5.79-9.264 8.52-4.908 4.281-9.473 8.876-14.055 13.502l-2.733 2.745A8357 8357 0 0 0 330 873q-5.653 5.692-11.312 11.375l-2.583 2.608c-4.227 4.243-8.525 8.299-13.065 12.202-4.083 3.633-7.883 7.558-11.728 11.44l-2.733 2.745A8357 8357 0 0 0 280 922q-5.653 5.692-11.312 11.375l-2.583 2.608c-4.29 4.308-8.652 8.44-13.262 12.401-2.896 2.539-5.603 5.252-8.312 7.987l-1.714 1.719a3673 3673 0 0 0-5.317 5.347l-3.648 3.663A7590 7590 0 0 0 225 976l-3-1c-.927-2.212-.927-2.212-1.72-5.206l-.93-3.435-.99-3.816q-.537-2.007-1.076-4.012-1.169-4.358-2.316-8.722c-1.23-4.674-2.477-9.343-3.728-14.012l-1.302-4.862-.663-2.473-2.032-7.614c-4.812-18.039-9.748-36.043-14.69-54.046q-2.224-8.1-4.443-16.2l-.725-2.648-4.2-15.327a46457 46457 0 0 1-11.374-41.559l-1.995-7.298-.573-2.092C168 777.114 168 777.114 168 776m398-395c11.124 43.607 22.097 87.252 33.022 130.91q1.875 7.492 3.753 14.983 2.318 9.245 4.628 18.49 1.2 4.803 2.404 9.604 1.32 5.265 2.633 10.53l.793 3.154.711 2.859.622 2.486C615 576 615 576 615 578c-6.023-.559-11.625-1.502-17.45-3.104l-2.424-.648a2390 2390 0 0 1-7.954-2.154q-2.865-.772-5.728-1.54a8308 8308 0 0 1-15.475-4.182q-8.09-2.189-16.18-4.37-10.077-2.718-20.152-5.44a9578 9578 0 0 0-44.368-11.867q-9.696-2.574-19.387-5.155a6403 6403 0 0 0-15.516-4.111 3892 3892 0 0 1-14.544-3.864q-2.67-.711-5.34-1.41c-2.422-.633-4.84-1.28-7.257-1.932l-2.152-.552c-3.723-1.02-4.851-1.338-7.073-4.671 3.404-3.5 6.835-6.906 10.563-10.062 4.014-3.452 7.716-7.177 11.437-10.938 7.28-7.357 7.28-7.357 10.938-10.437 4.088-3.453 7.8-7.264 11.562-11.063 4.323-4.365 8.647-8.606 13.348-12.566 3.176-2.854 6.15-5.9 9.152-8.934 7.281-7.357 7.281-7.357 10.938-10.437 4.088-3.453 7.8-7.264 11.562-11.063 4.323-4.365 8.647-8.606 13.348-12.566 3.176-2.854 6.15-5.9 9.152-8.934 7.281-7.357 7.281-7.357 10.938-10.437 4.795-4.049 9.13-8.582 13.52-13.059C561.809 381 561.809 381 566 381M353 593a1230 1230 0 0 1 9.607 36.136l1.302 5.19q1.745 6.953 3.483 13.907l2.178 8.703q3.807 15.198 7.606 30.397 3.538 14.152 7.088 28.3 3.055 12.185 6.102 24.373 1.815 7.264 3.638 14.527 1.709 6.807 3.406 13.617.624 2.5 1.253 4.997.855 3.405 1.7 6.811l.964 3.851C402 787 402 787 402 791c-9.265-1.692-18.306-4.127-27.395-6.566l-5.251-1.402q-7.104-1.897-14.207-3.802-5.947-1.592-11.895-3.181A49072 49072 0 0 1 302 765l-3.3-.885a101819 101819 0 0 1-81.796-21.974l-2.132-.572A766 766 0 0 1 202 738c.575-3.425 1.615-4.94 4.176-7.25l1.992-1.826 2.144-1.924q2.2-2.013 4.395-4.031l2.206-2.024c2.94-2.74 5.77-5.579 8.587-8.445 3.033-3.074 6.08-6.08 9.375-8.875 3.923-3.332 7.507-6.97 11.125-10.625 7.28-7.357 7.28-7.357 10.938-10.437 4.088-3.453 7.8-7.264 11.562-11.063 4.323-4.365 8.647-8.606 13.348-12.566 3.176-2.854 6.15-5.9 9.152-8.934 7.281-7.357 7.281-7.357 10.938-10.437 4.088-3.453 7.8-7.264 11.562-11.063 4.323-4.365 8.647-8.606 13.348-12.566 3.176-2.854 6.15-5.9 9.152-8.934 13.886-14 13.886-14 17-14m36-33c6.439.565 12.315 1.722 18.514 3.518l2.762.782c3.018.855 6.033 1.721 9.048 2.587l6.46 1.835c5.775 1.64 11.547 3.29 17.32 4.941 5.98 1.71 11.961 3.41 17.943 5.111a42526 42526 0 0 1 21.787 6.202q22.723 6.476 45.467 12.876l2.8.788q11.73 3.3 23.46 6.593 5.878 1.65 11.756 3.306 2.126.599 4.253 1.194 2.863.803 5.725 1.61l3.217.903C582 613 582 613 584 614c-1.59 3.92-4.285 6.56-7.24 9.484l-1.618 1.622a1774 1774 0 0 1-5.306 5.289l-3.7 3.699q-3.883 3.879-7.773 7.749-4.96 4.936-9.905 9.885-3.825 3.824-7.655 7.641l-3.647 3.642q-2.566 2.562-5.139 5.117l-1.49 1.492a170 170 0 0 1-8.47 7.82c-3.823 3.317-7.426 6.8-10.989 10.394l-1.945 1.95a3648 3648 0 0 0-4.132 4.15 5055 5055 0 0 1-6.562 6.586A20282 20282 0 0 0 484.5 714.5a20937 20937 0 0 1-16.156 16.212 6176 6176 0 0 0-6.428 6.46l-3.984 3.994-1.774 1.789C451.11 748.005 445.954 753.03 440 757c-2.346-5.13-3.972-10.15-5.334-15.616l-.649-2.544q-1.062-4.178-2.11-8.36l-1.515-5.96q-1.614-6.356-3.22-12.713-2.517-9.966-5.05-19.927a50012 50012 0 0 1-5.133-20.225 18707 18707 0 0 0-15.198-59.493l-2.378-9.266-3.701-14.417c-1.253-4.87-2.505-9.737-3.829-14.588l-.562-2.07q-.784-2.874-1.575-5.746C389 563 389 563 389 560" fill="#EAA297"/>
    <path d="M385 157c5.146.658 9.531 2.908 14.188 5.063l5.375 2.449 2.742 1.255a1911 1911 0 0 0 12.382 5.608l2.136.973c14.44 6.476 27.682 9.034 42.98 3.544 5.536-2.247 10.82-5.072 16.127-7.807C498.59 159 498.59 159 504 159c-.544 5.659-2.747 9.998-5.25 15-13.877 28.562-12.926 49.652-2.785 79.3 1.609 4.615 3.393 9.133 5.303 13.63C502 269 502 269 502 272c-4.084-.57-6.686-1.889-10.125-4.125-19.007-11.409-42.235-16.678-64.062-11.375-12.881 3.47-24.891 9.951-35.813 17.5-.656-1.758-.656-1.758-1-4 .969-1.867.969-1.867 2.5-3.875 11.554-16.39 17.952-36.088 15.216-56.215-3.125-18.023-11.37-34.802-22.513-49.238C385 159 385 159 385 157" fill="#EAA298"/>
    <path d="M275 1087c-.98 12.733-6.671 23.99-12.11 35.352-7.095 15.083-7.474 27.833-1.89 43.648a763 763 0 0 0 7.29 18.453l1.444 3.559 1.32 3.202C272 1194 272 1194 272 1198c-4.464-1.424-8.744-3.122-13.062-4.937-23.758-9.622-47.537-8.615-71.125.82-6.11 2.593-11.963 5.69-17.76 8.916l-2.272 1.26-1.998 1.134C164 1206 164 1206 161 1206c1.552-5.399 4.062-9.986 6.75-14.875 11.88-22.193 17.886-44.098 11.25-69.125-2.532-7.596-6.197-14.387-10.352-21.21-1.695-2.87-3.19-5.795-4.648-8.79 4.535.582 7.977 2.511 11.875 4.75 18.494 10.217 39.597 14.634 60.256 9.086 12.579-3.663 23.81-9.315 34.017-17.574C272 1087 272 1087 275 1087" fill="#EAA299"/>
    <path d="M258 243c4.621.578 8.28 1.865 12.5 3.813 16.152 7.099 32.375 10.507 49.45 4.476 4.34-1.834 8.532-3.894 12.687-6.117C335 244 335 244 337 244c-.6 4.807-2.056 8.948-3.937 13.375-5.495 13.495-7.712 26.787-2.34 40.8 2.526 5.586 5.21 11.14 8.96 16.012C341 316 341 316 341 318c-4.91-.485-8.22-2.97-12.125-5.75-9.165-6.317-19.256-12.723-30.875-11.25-7.927 1.927-15.49 4.864-22.975 8.069C271.707 310.46 269.68 311 266 311c1.394-4.586 3.272-8.636 5.5-12.875 4.907-9.614 7.12-18.32 4.5-29-3-9.073-9.634-16.186-16.531-22.566C258 245 258 245 258 243" fill="#ECA59B"/>
  </g>
</svg>