<?xml version="1.0" encoding="UTF-8"?>
<!DOCTYPE svg PUBLIC "-//W3C//DTD SVG 1.1//EN" "http://www.w3.org/Graphics/SVG/1.1/DTD/svg11.dtd">
<svg xmlns="http://www.w3.org/2000/svg" version="1.1" width="1080px" height="834px" style="shape-rendering:geometricPrecision; text-rendering:geometricPrecision; image-rendering:optimizeQuality; fill-rule:evenodd; clip-rule:evenodd" xmlns:xlink="http://www.w3.org/1999/xlink">
<g><path style="opacity:1" fill="#d64f39" d="M 384.5,18.5 C 496.843,14.758 592.676,52.0914 672,130.5C 675.632,135.134 679.632,139.467 684,143.5C 685.697,151.228 682.864,153.728 675.5,151C 589.879,72.3564 489.213,41.3564 373.5,58C 262.578,79.0311 180.411,139.198 127,238.5C 81.6658,331.887 78.9992,426.553 119,522.5C 155.924,600.426 214.424,655.26 294.5,687C 356.088,710.482 419.421,716.815 484.5,706C 594.378,678.5 670.544,612.334 713,507.5C 718.618,492.582 722.785,477.249 725.5,461.5C 710.808,462.503 696.141,463.836 681.5,465.5C 673.742,465.24 668.742,461.407 666.5,454C 631.509,452.31 596.509,450.643 561.5,449C 560.289,448.107 560.289,447.274 561.5,446.5C 564.796,445.235 568.129,444.068 571.5,443C 606.486,441.058 641.486,439.391 676.5,438C 685.629,433.268 694.629,428.268 703.5,423C 618.466,414.633 533.466,405.967 448.5,397C 443.578,392.301 440.411,386.801 439,380.5C 440.552,379.034 442.386,378.034 444.5,377.5C 453.869,381.187 463.536,383.687 473.5,385C 555.167,385.72 636.834,386.054 718.5,386C 757.218,384.498 795.885,382.498 834.5,380C 819.833,379 805.167,378 790.5,377C 788.729,376.465 788.396,375.631 789.5,374.5C 836.84,346.495 884.507,318.995 932.5,292C 938.662,289.736 944.996,289.07 951.5,290C 964.536,292.092 977.203,295.425 989.5,300C 997.11,307.606 998.277,316.106 993,325.5C 975.515,345.335 955.682,362.169 933.5,376C 898.649,395.679 863.816,415.512 829,435.5C 813.827,568.521 750.994,672.021 640.5,746C 552.6,800.103 457.266,820.77 354.5,808C 252.125,789.407 168.959,739.241 105,657.5C 23.3416,547.666 0.341642,426.333 36,293.5C 72.0909,181.745 143.258,100.912 249.5,51C 292.694,32.1988 337.694,21.3655 384.5,18.5 Z"/></g>
<g><path style="opacity:1" fill="#d64f39" d="M 664.5,338.5 C 668.503,338.971 671.669,340.971 674,344.5C 683.5,355.333 693,366.167 702.5,377C 702.167,377.333 701.833,377.667 701.5,378C 688.275,380.274 675.108,381.774 662,382.5C 658.598,372.058 655.432,361.558 652.5,351C 652.396,348.855 653.063,347.021 654.5,345.5C 657.875,343.109 661.208,340.776 664.5,338.5 Z"/></g>
<g><path style="opacity:1" fill="#d64f39" d="M 1048.5,386.5 C 1053.53,388.683 1058.19,391.517 1062.5,395C 1064.01,395.837 1064.51,397.004 1064,398.5C 1051.02,404.073 1037.85,409.24 1024.5,414C 966.144,419.651 907.811,425.484 849.5,431.5C 847.611,431.564 845.944,431.064 844.5,430C 870.833,415.833 897.5,402.166 924.5,389C 933.822,389.711 943.156,390.711 952.5,392C 982.487,393.711 1012.49,394.711 1042.5,395C 1044.88,392.401 1046.88,389.567 1048.5,386.5 Z"/></g>
</svg>
