<?xml version="1.0" encoding="UTF-8"?>
<!DOCTYPE svg PUBLIC "-//W3C//DTD SVG 1.1//EN" "http://www.w3.org/Graphics/SVG/1.1/DTD/svg11.dtd">
<svg xmlns="http://www.w3.org/2000/svg" version="1.1" width="1080px" height="814px" style="shape-rendering:geometricPrecision; text-rendering:geometricPrecision; image-rendering:optimizeQuality; fill-rule:evenodd; clip-rule:evenodd" xmlns:xlink="http://www.w3.org/1999/xlink">
<g><path style="opacity:0.981" fill="#fefefe" d="M 398.5,24.5 C 512.014,22.5316 607.181,62.865 684,145.5C 686.606,153.176 684.106,156.009 676.5,154C 600.595,83.36 510.595,52.0267 406.5,60C 296.164,73.2225 211.664,126.723 153,220.5C 100.213,315.325 94.2132,412.992 135,513.5C 178.477,603.517 248.644,661.35 345.5,687C 469.82,716.996 574.653,684.829 660,590.5C 692.657,550.683 714.49,505.516 725.5,455C 709.205,456.481 692.872,457.481 676.5,458C 672.476,455.64 669.476,452.306 667.5,448C 633.495,446.428 599.495,444.762 565.5,443C 565.043,442.586 564.709,442.086 564.5,441.5C 571.668,437.831 579.335,435.998 587.5,436C 617.858,434.976 648.191,433.643 678.5,432C 686.672,427.08 695.005,422.413 703.5,418C 621.191,409.463 538.858,401.13 456.5,393C 452.649,388.81 449.149,384.31 446,379.5C 445.289,377.633 445.789,376.133 447.5,375C 450.5,374.333 453.5,374.333 456.5,375C 461.396,376.946 466.396,378.613 471.5,380C 555.158,381.751 638.825,382.417 722.5,382C 758.523,380.249 794.523,378.249 830.5,376C 816.833,375 803.167,374 789.5,373C 788.062,372.781 786.729,372.281 785.5,371.5C 832.767,344.039 880.1,316.872 927.5,290C 933.765,288.516 940.098,288.182 946.5,289C 956.57,291.017 966.57,293.351 976.5,296C 988.054,302.627 990.554,311.794 984,323.5C 965.786,344.066 944.953,361.232 921.5,375C 889.306,392.928 857.306,411.094 825.5,429.5C 807.109,577.632 732.109,686.132 600.5,755C 531.027,787.08 458.027,800.08 381.5,794C 277.271,779.81 192.105,731.976 126,650.5C 45.4109,545.568 21.0776,428.568 53,299.5C 86.942,188.129 156.442,107.296 261.5,57C 305.299,37.9431 350.966,27.1097 398.5,24.5 Z"/></g>
<g><path style="opacity:0.93" fill="#fefefe" d="M 665.5,335.5 C 668.617,335.642 671.117,336.976 673,339.5C 682.333,350.167 691.667,360.833 701,371.5C 701.483,372.448 701.649,373.448 701.5,374.5C 689.831,375.75 678.164,377.084 666.5,378.5C 665.228,378.43 664.062,378.097 663,377.5C 658.58,366.814 655.58,355.814 654,344.5C 657.812,341.36 661.645,338.36 665.5,335.5 Z"/></g>
<g><path style="opacity:0.95" fill="#fefefe" d="M 1038.5,382.5 C 1044.51,385.172 1049.84,388.839 1054.5,393.5C 1041.1,399.355 1027.44,404.521 1013.5,409C 955.903,415.605 898.236,420.771 840.5,424.5C 866.034,411.046 891.701,397.88 917.5,385C 928.081,386.271 938.748,387.271 949.5,388C 977.167,389.385 1004.83,390.385 1032.5,391C 1034.88,388.401 1036.88,385.567 1038.5,382.5 Z"/></g>
</svg>
