<?xml version="1.0" encoding="UTF-8"?>
<svg version="1.1" xmlns="http://www.w3.org/2000/svg" width="3784" height="2838">
<path d="M0 0 C0.94848816 0.06552063 1.89697632 0.13104126 2.87420654 0.19854736 C47.3333909 3.29971662 91.43126867 8.24877783 135.39416504 15.56762695 C137.87238542 15.97882556 140.3515226 16.38390647 142.83105469 16.78710938 C210.58623533 27.85931692 277.12228265 45.68637461 342 68 C343.2309137 68.42221832 343.2309137 68.42221832 344.48669434 68.85296631 C381.99575604 81.74245085 418.8789722 96.62854655 455 113 C456.77479736 113.80171631 456.77479736 113.80171631 458.58544922 114.61962891 C488.75859162 128.31216375 518.84785322 142.75344298 547.44433594 159.51708984 C550.13689623 161.07943329 552.84953778 162.60064328 555.5703125 164.11328125 C570.31594301 172.31620691 584.71050078 181.02807203 599 190 C600.04978027 190.6590332 601.09956055 191.31806641 602.18115234 191.99707031 C623.89785962 205.67417631 645.13023896 220.06453183 666 235 C666.72203613 235.51481934 667.44407227 236.02963867 668.18798828 236.56005859 C679.29845716 244.48785361 690.20700917 252.64610315 701 261 C701.73750488 261.5686377 702.47500977 262.13727539 703.23486328 262.72314453 C716.86651101 273.23362308 730.31367597 283.94893012 743.41479492 295.11572266 C746.77944639 297.98142144 750.18679131 300.78567233 753.625 303.5625 C758.38807218 307.43812933 762.93364249 311.51234289 767.453125 315.66796875 C769.58941749 317.62405252 771.74780657 319.54187697 773.9375 321.4375 C777.83358882 324.82367126 781.63419236 328.31107972 785.43066406 331.80786133 C788.65672614 334.77728173 791.9113978 337.7106447 795.1875 340.625 C799.14163701 344.16790676 802.90665352 347.85231845 806.6015625 351.6640625 C808.48917657 353.50248793 810.39117187 355.19800914 812.39453125 356.90234375 C818.26437603 361.99919362 823.69718704 367.5481727 829.18188477 373.05151367 C831.05829475 374.93328274 832.93998969 376.80964738 834.82226562 378.68554688 C840.26876833 384.12934432 845.65726024 389.5624505 850.65014648 395.43188477 C852.49077463 397.5701294 854.47587736 399.53629893 856.5 401.5 C859.82196164 404.78287973 862.94540204 408.14863409 865.9765625 411.69921875 C867.60648186 413.55254404 869.26415589 415.353484 870.9609375 417.14453125 C871.49162842 417.7075293 872.02231934 418.27052734 872.5690918 418.85058594 C873.61973916 419.96193596 874.67561522 421.06837465 875.73754883 422.16894531 C880.70562956 427.44331655 884.57986163 432.48562776 884.5 440.0625 C884.30931409 445.15381391 883.60938411 448.2006483 880 452 C874.48609198 456.1635632 869.91617954 457.8129325 863 457 C855.67906466 454.55968822 851.10925629 449.38642034 845.87890625 443.95703125 C843.07546611 441.04769757 840.12294054 438.38409401 837.046875 435.765625 C834.54285151 433.6056658 832.12002302 431.36512007 829.6875 429.125 C825.1482504 424.98074035 820.46541704 421.07421602 815.68359375 417.21484375 C813.05291443 415.04367173 810.52057576 412.79758643 808 410.5 C802.8249007 405.79536428 797.43858803 401.39481861 792 397 C790.78057483 396.00082343 789.56186423 395.00077435 788.34375 394 C780.14041542 387.27355262 771.81342292 380.74113593 763.36328125 374.328125 C759.58594312 371.45779171 755.84637298 368.54166404 752.11279297 365.61474609 C744.50177071 359.65162082 736.79172418 353.89758953 728.88378906 348.33642578 C725.98058888 346.27679413 723.10589801 344.17827669 720.22729492 342.08447266 C713.17604075 336.96014659 706.08107317 331.950404 698.78564453 327.17724609 C696.63905593 325.76203551 694.50504425 324.32872756 692.37109375 322.89453125 C655.14788609 297.89740805 616.66680187 274.90825806 577 254 C575.8356543 253.38624512 574.67130859 252.77249023 573.47167969 252.14013672 C521.08932763 224.58711392 466.90212099 201.41313509 411 182 C410.28062256 181.74968018 409.56124512 181.49936035 408.82006836 181.24145508 C321.05640437 150.75139412 230.24964803 130.13302934 94.99041748 117.22137451 C92.29526068 117.02185755 89.60096354 116.8137039 86.90673828 116.60205078 C37.01359548 112.7538999 -14.71982604 112.95689539 -64.60400391 116.81640625 C-67.19774204 117.01515203 -69.79212713 117.20336277 -72.38671875 117.390625 C-169.15900636 124.45036852 -264.19268896 142.89447779 -515.98388672 237.00463867 C-517.98614348 237.99315899 -519.99066409 238.97691874 -521.99609375 239.95898438 C-537.77017033 247.68528619 -553.26291664 255.75787237 -568.47460938 264.55371094 C-571.56808502 266.32534181 -574.69133724 268.03797365 -577.8203125 269.74584961 C-611.96548622 288.41325473 -644.37820295 310.37924954 -676 333 C-676.7007666 333.49886719 -677.4015332 333.99773437 -678.12353516 334.51171875 C-705.07364791 353.70740346 -731.21849988 374.11090695 -756.37158203 395.60986328 C-758.07653996 397.06534011 -759.7861233 398.51526053 -761.49609375 399.96484375 C-768.24208017 405.6980081 -774.84927088 411.5505142 -781.34765625 417.5625 C-783.47490534 419.51743878 -785.62272252 421.42882045 -787.8125 423.3125 C-796.7909992 431.10764052 -805.5117887 439.29350552 -813.77734375 447.83984375 C-815.73976566 449.74708332 -817.75226588 451.5199087 -819.828125 453.30078125 C-823.76795526 456.72440498 -827.30064269 460.39523406 -830.8125 464.25 C-837.48346448 471.47859928 -844.38031648 478.45252115 -851.38989258 485.35253906 C-856.15268666 490.06320608 -860.63747877 494.91883004 -865 500 C-866.45445517 501.60768373 -867.91220895 503.21239715 -869.375 504.8125 C-872.46636801 508.23229328 -875.42459032 511.71958524 -878.3125 515.3125 C-881.67848577 519.48046846 -885.20514175 523.41642564 -888.875 527.3125 C-893.97770001 532.75236861 -898.6130935 538.44345585 -903.1640625 544.34765625 C-906.14180597 548.20788702 -909.22358169 551.97857077 -912.3125 555.75 C-922.70758611 568.49985971 -932.74586436 581.43652953 -942.1484375 594.9375 C-944.80129362 598.74010647 -947.54621193 602.46707397 -950.3125 606.1875 C-1004.21288096 679.11731482 -1047.90228832 761.05374359 -1166.25 1274.4375 C-1166.25067474 1275.54929626 -1166.25134949 1276.66109253 -1166.25204468 1277.80657959 C-1166.17999482 1354.37739491 -1158.27627191 1430.97806738 -1143 1506 C-1142.82639954 1506.85255371 -1142.65279907 1507.70510742 -1142.47393799 1508.58349609 C-1134.20446546 1548.98951697 -1123.72831802 1588.77107378 -1111 1628 C-1110.59748016 1629.24203186 -1110.59748016 1629.24203186 -1110.18682861 1630.50915527 C-1101.53998098 1657.11849031 -1091.76926658 1683.17882312 -1081 1709 C-1080.71167297 1709.69204529 -1080.42334595 1710.38409058 -1080.12628174 1711.09710693 C-1065.45440758 1746.24334553 -1049.07676613 1780.82276329 -1030.59326172 1814.12548828 C-1028.95106043 1817.0882952 -1027.32113832 1820.05766263 -1025.69140625 1823.02734375 C-1017.26091836 1838.31567448 -1008.29416912 1853.2227158 -999 1868 C-998.32646484 1869.0734668 -997.65292969 1870.14693359 -996.95898438 1871.25292969 C-988.52396435 1884.66566287 -979.81479837 1897.82751739 -970.61425781 1910.72705078 C-969.07016526 1912.90120409 -967.54356736 1915.08638941 -966.0234375 1917.27734375 C-958.63047667 1927.90868746 -950.83560291 1938.20736305 -942.93994141 1948.46923828 C-941.1190144 1950.84473908 -939.31229525 1953.23014735 -937.51171875 1955.62109375 C-931.51069827 1963.57455267 -925.32328457 1971.27763083 -918.77734375 1978.7890625 C-916.22253338 1981.72363012 -913.75820817 1984.72359509 -911.3125 1987.75 C-907.71244833 1992.18333669 -903.96096513 1996.44513346 -900.1171875 2000.66796875 C-898.21948831 2002.75823889 -896.35266585 2004.86986115 -894.5 2007 C-890.3868309 2011.71555542 -886.20113614 2016.36280665 -882 2021 C-881.248396 2021.83845459 -880.49679199 2022.67690918 -879.72241211 2023.54077148 C-870.12128454 2034.11414204 -859.988262 2044.16448084 -849.88085938 2054.24951172 C-847.25985869 2056.86477852 -844.64342706 2059.48456349 -842.02827072 2062.10567284 C-839.98472746 2064.15285261 -837.93878037 2066.19761674 -835.89212799 2068.24168777 C-834.46407596 2069.66876533 -833.03800703 2071.09782649 -831.61199951 2072.52694702 C-827.09963086 2077.02318203 -822.54307166 2081.39873669 -817.69984436 2085.53826904 C-814.9522086 2087.90101727 -812.32993197 2090.39612927 -809.6875 2092.875 C-804.81760188 2097.41026544 -799.80345476 2101.68680551 -794.61328125 2105.85546875 C-792.00152377 2107.99874956 -789.49634698 2110.2238033 -787 2112.5 C-782.80342905 2116.3150645 -778.49222517 2119.94264875 -774.08203125 2123.5078125 C-771.86080631 2125.30393609 -769.65099623 2127.11008536 -767.44921875 2128.9296875 C-757.7084721 2136.95426675 -747.69643301 2144.56620961 -737.56445312 2152.08837891 C-735.02890038 2153.97845678 -732.50488054 2155.88288275 -729.984375 2157.79296875 C-703.94010343 2177.51311441 -676.8025922 2195.84794719 -649 2213 C-647.97890137 2213.63228516 -646.95780273 2214.26457031 -645.90576172 2214.91601562 C-621.33838858 2230.09725452 -596.21431076 2244.11414558 -570.47753906 2257.22753906 C-567.54658633 2258.72141135 -564.61991287 2260.22331993 -561.69410706 2261.72723389 C-541.80238456 2271.93196592 -521.52611905 2281.1486924 -501 2290 C-499.89431671 2290.47823212 -499.89431671 2290.47823212 -498.76629639 2290.96612549 C-463.2077261 2306.33726255 -426.84312808 2319.45358915 -389.98803711 2331.3572998 C-388.10382565 2331.96643485 -386.22082144 2332.57930054 -384.33789062 2333.19238281 C-289.92588701 2363.80604485 -191.61612378 2380.84202119 -82.52352905 2387.85925293 C-80.87621032 2387.95113033 -79.22907809 2388.04643416 -77.58218384 2388.14562988 C-56.18732883 2389.41575564 -34.73659479 2389.24571265 -13.3125 2389.25 C-12.30078358 2389.25044186 -11.28906715 2389.25088371 -10.24669266 2389.25133896 C21.93715604 2389.25870001 53.91766513 2388.78936419 86 2386 C87.02758423 2385.91278687 88.05516846 2385.82557373 89.1138916 2385.73571777 C132.7014889 2382.02780001 175.44466029 2376.2116184 218 2366 C218.81170654 2365.80599609 219.62341309 2365.61199219 220.4597168 2365.41210938 C271.74607388 2353.12105977 322.20776531 2337.03816646 371 2317 C372.24276954 2316.49266948 373.48561028 2315.98551336 374.72851562 2315.47851562 C393.40553043 2307.84630486 411.77682228 2299.66736735 430 2291 C431.2270563 2290.41991467 432.45427217 2289.84016676 433.68164062 2289.26074219 C448.80127546 2282.11722421 463.67416607 2274.65399482 478.28125 2266.50195312 C481.11148084 2264.93841324 483.9585197 2263.41035059 486.8125 2261.890625 C501.50239081 2254.06050008 515.81741032 2245.71371209 530 2237 C530.77988281 2236.52336914 531.55976562 2236.04673828 532.36328125 2235.55566406 C555.78019243 2221.19962077 578.94664171 2205.9148544 600.97509766 2189.50390625 C603.2383898 2187.82294657 605.5148285 2186.16077645 607.79296875 2184.5 C617.34973398 2177.52055137 626.75484677 2170.38671276 636 2163 C636.88945312 2162.29359375 637.77890625 2161.5871875 638.6953125 2160.859375 C648.70330354 2152.89062978 658.55649331 2144.74452972 668.29541016 2136.45019531 C670.02119329 2134.98196961 671.75074272 2133.51826467 673.48046875 2132.0546875 C679.956408 2126.55809804 686.3003901 2120.95141254 692.51416016 2115.15966797 C695.42394623 2112.44776533 698.36157725 2109.7836796 701.375 2107.1875 C704.4408633 2104.5385428 707.28916942 2101.73500784 710.12464905 2098.84291077 C711.94027953 2097.05868741 713.8138806 2095.39832018 715.74780273 2093.74389648 C719.84137721 2090.18305349 723.70590554 2086.4390809 727.53515625 2082.59765625 C728.21750839 2081.91626083 728.89986053 2081.23486542 729.60289001 2080.53282166 C731.03344437 2079.10294259 732.46275767 2077.67182089 733.89086914 2076.23950195 C736.05699074 2074.06802289 738.22840174 2071.90193675 740.40039062 2069.73632812 C741.79979987 2068.33625798 743.19889884 2066.93587762 744.59765625 2065.53515625 C745.55575951 2064.58008934 745.55575951 2064.58008934 746.53321838 2063.60572815 C750.3123107 2059.8072446 753.90381215 2055.89875104 757.38719177 2051.82688904 C759.02408334 2049.97271989 760.73424406 2048.23117314 762.5 2046.5 C765.53594925 2043.51127663 768.34508659 2040.38293521 771.125 2037.15625 C773.17359094 2034.80037042 775.27203002 2032.4949254 777.375 2030.1875 C781.32249469 2025.81849317 785.0442459 2021.30007159 788.74609375 2016.72265625 C790.95146704 2014.05862647 793.2317631 2011.49211558 795.5625 2008.9375 C799.10877889 2005.03720359 802.44569741 2001.03076137 805.70703125 1996.890625 C808.02203073 1993.97222702 810.37499338 1991.08818437 812.73510742 1988.20629883 C818.2226912 1981.49732826 823.58772385 1974.72764584 828.72021484 1967.74072266 C830.21105734 1965.71292658 831.70904384 1963.69049216 833.20703125 1961.66796875 C836.22292373 1957.59189063 839.22717919 1953.50741203 842.22558594 1949.41845703 C843.36260694 1947.86874183 844.50114132 1946.32013517 845.64160156 1944.77294922 C855.19567757 1931.80165749 864.15720244 1918.46414721 873 1905 C873.51836426 1904.21206055 874.03672852 1903.42412109 874.57080078 1902.61230469 C892.7771359 1874.88408732 909.42539487 1846.28303704 925 1817 C925.48500977 1816.09314453 925.97001953 1815.18628906 926.46972656 1814.25195312 C964.35399768 1743.29899099 994.34013916 1667.43514008 1018.8125 1572.375 C1019.08544891 1571.2907373 1019.35839783 1570.20647461 1019.63961792 1569.08935547 C1022.86019448 1556.2523323 1025.84980779 1543.39613078 1028.44941711 1530.41781616 C1028.63973007 1529.47250031 1028.83004303 1528.52718445 1029.02612305 1527.55322266 C1029.27340401 1526.30298813 1029.27340401 1526.30298813 1029.52568054 1525.02749634 C1030 1523 1030 1523 1031 1521 C1030.34 1521.33 1029.68 1521.66 1029 1522 C1027.38252597 1522.2411473 1025.7575754 1522.43293394 1024.1308136 1522.60032654 C1023.10111954 1522.70819489 1022.07142548 1522.81606323 1021.01052856 1522.92720032 C1019.8756601 1523.04202255 1018.74079163 1523.15684479 1017.5715332 1523.27514648 C1016.37923599 1523.39887634 1015.18693878 1523.5226062 1013.95851135 1523.65008545 C1010.67648324 1523.98982839 1007.39412961 1524.32603903 1004.1115725 1524.66060901 C1000.65738087 1525.01341264 997.20362031 1525.37038902 993.74980164 1525.7268219 C987.92665315 1526.32714138 982.10320024 1526.92443193 976.27954102 1527.51977539 C969.60630413 1528.20198988 962.93347687 1528.8880926 956.26088458 1529.57658142 C949.10648183 1530.31475052 941.9517894 1531.05008212 934.79700828 1531.78457379 C932.76641673 1531.99320302 930.73587627 1532.20232315 928.70534706 1532.41155815 C915.86212656 1533.73313662 903.01838671 1535.03491843 890.15698242 1536.16821289 C889.24318723 1536.24949401 888.32939203 1536.33077513 887.38790607 1536.41451931 C875.91025365 1537.40058974 864.99209796 1538.08430134 854 1534 C853.29488281 1533.74476562 852.58976562 1533.48953125 851.86328125 1533.2265625 C840.17649678 1528.22122062 834.95286262 1517.9450565 830 1507 C827.49363556 1501.63830176 827.49363556 1501.63830176 823 1498 C819.98273851 1496.99424617 817.75622168 1496.80351864 814.59365845 1496.68249512 C812.88941648 1496.61401871 812.88941648 1496.61401871 811.15074539 1496.54415894 C809.25975679 1496.47492722 809.25975679 1496.47492722 807.33056641 1496.40429688 C805.97160734 1496.35134904 804.61266378 1496.29800216 803.25373459 1496.24429321 C800.26554655 1496.12705477 797.27726707 1496.01265275 794.28889084 1495.90031433 C789.35612713 1495.71483186 784.42361628 1495.52311805 779.49111938 1495.33068848 C772.07672922 1495.04200027 764.66223374 1494.75615074 757.24768066 1494.47167969 C744.31816091 1493.97522163 731.38903965 1493.46873459 718.45996094 1492.9609375 C716.74342465 1492.89354402 716.74342465 1492.89354402 714.99221087 1492.82478905 C707.87900741 1492.54550225 700.76581233 1492.26600274 693.65262127 1491.9864006 C690.00983204 1491.84321522 686.36704163 1491.70005986 682.72425079 1491.55691528 C681.5126599 1491.50930526 680.301069 1491.46169523 679.05276322 1491.41264248 C676.59108372 1491.31591218 674.1294041 1491.21918482 671.66772437 1491.12246037 C665.44831788 1490.8780792 659.2289146 1490.63361678 653.00951767 1490.38899231 C640.39476799 1489.89293158 627.7799623 1489.39836673 615.16503906 1488.90673828 C600.30517302 1488.32742567 585.44544913 1487.7445871 570.5859375 1487.15625 C569.40063918 1487.10932259 568.21534086 1487.06239517 566.99412441 1487.01404572 C531.6470643 1485.61238821 496.31407418 1484.08845499 461 1482 C460.67 1480.02 460.34 1478.04 460 1476 C471.56250199 1471.98366224 483.11559057 1468.02449902 495 1465.0625 C495.79245117 1464.86374268 496.58490234 1464.66498535 497.40136719 1464.46020508 C504.89528399 1462.65715141 512.36027498 1461.8864088 520.05297852 1461.55444336 C521.22606662 1461.50009314 521.22606662 1461.50009314 522.42285347 1461.44464493 C525.07472696 1461.32292857 527.72679257 1461.20620267 530.37890625 1461.08984375 C532.35667833 1461.00117567 534.33444612 1460.91241168 536.31221008 1460.82356262 C541.87454395 1460.57528109 547.43711802 1460.33280138 552.99977875 1460.09196472 C556.57193797 1459.93709081 560.14403449 1459.7808285 563.71612549 1459.62438965 C603.14466174 1457.90330178 642.58081118 1456.39277864 682.01953125 1454.92578125 C683.22248282 1454.88102622 684.42543438 1454.83627119 685.66483903 1454.79015994 C711.4412397 1453.83156568 737.21797257 1452.88217225 762.99508572 1451.94293499 C771.22455884 1451.64301752 779.45397429 1451.34153056 787.68337709 1451.03969008 C794.29768874 1450.79728185 800.91208363 1450.557336 807.52655572 1450.31934744 C811.60250495 1450.17218012 815.6783734 1450.02286202 819.7542237 1449.87298214 C821.62380839 1449.80468365 823.49342605 1449.73728023 825.36307919 1449.67088211 C846.10886345 1448.93324637 860.25986751 1446.91212659 878.625 1436.625 C879.91247636 1435.90936832 881.20007607 1435.19395853 882.48779297 1434.47875977 C891.39700913 1429.51704182 900.22170588 1424.41755765 909.0065918 1419.23876953 C914.35988679 1416.09188501 919.74165434 1413.00839214 925.17578125 1410.00390625 C925.78194275 1409.66874496 926.38810425 1409.33358368 927.01263428 1408.98826599 C929.94811525 1407.36775528 932.88728519 1405.75452435 935.83056641 1404.14819336 C946.7794496 1399.07132047 946.7794496 1399.07132047 955 1391 C954.45438604 1391.01684153 953.90877209 1391.03368305 953.34662437 1391.05103493 C945.43456896 1391.18205313 937.66593651 1390.38070599 929.80712891 1389.54833984 C928.2654446 1389.38893773 926.72371168 1389.2300052 925.18193531 1389.07149601 C921.82201654 1388.72509361 918.46245151 1388.37548886 915.10311699 1388.02346611 C909.56563833 1387.44331598 904.02738971 1386.87074659 898.48902893 1386.29908752 C890.27362354 1385.45050733 882.05852937 1384.59896949 873.84359741 1383.74581909 C851.74739749 1381.45183081 829.64858309 1379.18316183 807.54975963 1376.91460967 C805.02258912 1376.65517724 802.49542296 1376.39570256 799.968261 1376.13618684 C738.00786453 1369.77354941 676.03572188 1363.52940804 614.05916566 1357.3263455 C604.0278482 1356.32229188 593.99667544 1355.31680319 583.96557867 1354.31054745 C508.83430349 1346.77428007 433.69186582 1339.36324571 358.53159517 1332.12152618 C344.57885768 1330.77710845 330.62638791 1329.42994887 316.67415788 1328.08027502 C313.47921575 1327.77121148 310.28426864 1327.4621995 307.08932 1327.15320331 C289.60151361 1325.46186593 289.60151361 1325.46186593 281.63369858 1324.69091046 C257.56067998 1322.36182725 233.48657691 1320.04487188 209.40996051 1317.7532614 C192.62150346 1316.15514632 175.83457294 1314.54175798 159.04906559 1312.91294801 C148.992193 1311.93765846 138.93424319 1310.97560291 128.87438818 1310.0315625 C122.1204638 1309.39656766 115.36821049 1308.74554632 108.61708978 1308.08140916 C104.75579279 1307.70205629 100.89415582 1307.33001476 97.03030336 1306.97755325 C92.86869181 1306.59778133 88.71121808 1306.18375143 84.55323792 1305.76609802 C83.34061307 1305.66105611 82.12798822 1305.55601419 80.87861717 1305.44778919 C72.76631153 1304.59131658 72.76631153 1304.59131658 68.85629177 1301.57418919 C68.24371549 1300.72470675 67.6311392 1299.87522432 67 1299 C66.25621094 1298.02546875 65.51242187 1297.0509375 64.74609375 1296.046875 C63.97151718 1294.9514669 63.20223125 1293.85230389 62.4375 1292.75 C61.8034021 1291.84797852 61.8034021 1291.84797852 61.15649414 1290.92773438 C60.24580466 1289.63209042 59.33692323 1288.33517406 58.4296875 1287.03710938 C56.96417783 1284.9489583 55.48405763 1282.87187825 54 1280.796875 C49.15605141 1274.01364654 44.35899418 1267.1955951 39.75 1260.25 C39.02296875 1259.16203125 38.2959375 1258.0740625 37.546875 1256.953125 C35.94997134 1253.90449073 35.46622625 1252.37089728 36 1249 C40.28801552 1243.50598011 45.71230519 1240.8803543 52.296875 1239.1171875 C59.19093481 1238.38420067 65.95367744 1241.30157703 72.4375 1243.375 C73.9152671 1243.83433419 75.39329783 1244.29282104 76.87158203 1244.75048828 C85.80274655 1247.54056361 94.60518252 1250.61095957 103.375 1253.875 C129.33467193 1263.45601783 155.96166275 1264.27271948 183.41088867 1264.37890625 C185.76442564 1264.39492452 188.11795721 1264.41175251 190.47148323 1264.42930603 C196.87394623 1264.47475858 203.27642483 1264.50887842 209.67896676 1264.54098511 C215.91092988 1264.5731561 222.14282531 1264.615966 228.37473118 1264.65756249 C241.18807421 1264.74278431 254.00145512 1264.81941195 266.81488037 1264.89111328 C279.72347777 1264.96337632 292.63204293 1265.03957435 305.54058838 1265.12060547 C306.35615879 1265.12572313 307.1717292 1265.13084079 308.01201387 1265.13611352 C312.16372749 1265.16218421 316.3154407 1265.18831929 320.46715379 1265.21447563 C349.86152738 1265.3995207 379.25594331 1265.57709467 408.65039062 1265.75 C409.5256756 1265.75515208 410.40096057 1265.76030416 411.30276933 1265.76561236 C430.03643233 1265.87587956 448.77009966 1265.98538288 467.50377375 1266.09374994 C633.22030482 1267.05243704 633.22030482 1267.05243704 702 1268 C703.17762161 1268.01620376 703.17762161 1268.01620376 704.37903357 1268.03273487 C721.98985762 1268.2756175 739.60043881 1268.5342431 757.2109375 1268.79956055 C840.1017235 1270.07734352 840.1017235 1270.07734352 923 1270 C924.09783813 1269.99033203 925.19567627 1269.98066406 926.32678223 1269.97070312 C952.52376231 1269.73009713 978.69247375 1268.74889711 1004.8671875 1267.69921875 C1005.6672736 1267.66725198 1006.4673597 1267.63528522 1007.29169083 1267.60234976 C1044.86187744 1266.10075921 1082.41806342 1264.33067115 1119.97407347 1262.51284075 C1130.08663627 1262.02359791 1140.1994461 1261.53952634 1150.31225586 1261.05541992 C1154.04033013 1260.87690092 1157.76840295 1260.69835145 1161.49647522 1260.51979065 C1162.41520351 1260.47578941 1163.33393181 1260.43178818 1164.28050035 1260.38645357 C1173.36971989 1259.95106523 1182.45888344 1259.51451333 1191.54804265 1259.07786787 C1216.84586764 1257.86261231 1242.14381863 1256.6501632 1267.44281387 1255.45946884 C1270.54631619 1255.31326242 1273.64979237 1255.16651089 1276.75326538 1255.01968384 C1301.0002618 1253.87426899 1325.24986806 1252.81097844 1349.50395393 1251.82787514 C1353.00911353 1251.68578244 1356.51424141 1251.5429259 1360.01935655 1251.39974123 C1363.48742402 1251.25807011 1366.95550281 1251.11667693 1370.42358398 1250.9753418 C1371.44840372 1250.93356058 1371.44840372 1250.93356058 1372.49392688 1250.8909353 C1381.24908624 1250.53431784 1390.00454382 1250.18719803 1398.76042747 1249.84877968 C1403.7219854 1249.65544591 1408.68324732 1249.45518261 1413.64446259 1249.25326538 C1415.95693416 1249.16077882 1418.26953301 1249.07141598 1420.5822525 1248.98535156 C1423.75288381 1248.86709605 1426.92291081 1248.73816017 1430.09301758 1248.60668945 C1431.01636682 1248.574968 1431.93971605 1248.54324656 1432.89104557 1248.51056385 C1437.60818199 1248.30313299 1441.56351928 1247.79277279 1446 1246 C1432.22939822 1244.97603566 1418.45852144 1243.95580424 1404.6875 1242.9375 C1403.64258141 1242.86020409 1402.59766281 1242.78290817 1401.52108002 1242.70326996 C1375.33841638 1240.76690074 1349.1540861 1238.85716597 1322.96484375 1237.01171875 C1321.8300955 1236.93172827 1320.69534725 1236.85173779 1319.52621269 1236.76932335 C1308.46900955 1235.99022307 1297.41159716 1235.21418106 1286.35379505 1234.44362736 C1282.26217795 1234.15822602 1278.17065599 1233.87147614 1274.07914925 1233.58449745 C1271.28189983 1233.3888681 1268.48451457 1233.19527419 1265.68711853 1233.00175476 C1263.99208812 1232.88295464 1262.29706509 1232.76404914 1260.60205078 1232.64501953 C1259.4855642 1232.56870253 1259.4855642 1232.56870253 1258.34652233 1232.49084377 C1253.21270431 1232.12719067 1248.11250461 1231.59311653 1243 1231 C1245.71651705 1228.12570447 1248.41565332 1225.92168731 1251.76171875 1223.8203125 C1252.70273438 1223.22855225 1253.64375 1222.63679199 1254.61328125 1222.02709961 C1255.62777344 1221.39940674 1256.64226563 1220.77171387 1257.6875 1220.125 C1258.7496875 1219.46443604 1259.811875 1218.80387207 1260.90625 1218.12329102 C1270.37701709 1212.2854423 1280.04642547 1206.84626746 1289.78125 1201.46484375 C1295.91009151 1198.07004013 1301.96043575 1194.55061866 1308 1191 C1317.14879954 1185.62747838 1326.37404545 1180.40922688 1335.64453125 1175.25 C1342.81353695 1171.25035548 1349.92092763 1167.15651956 1357 1163 C1366.14913289 1157.62803207 1375.37403131 1152.40923475 1384.64453125 1147.25 C1391.81353695 1143.25035548 1398.92092763 1139.15651956 1406 1135 C1415.14913289 1129.62803207 1424.37403131 1124.40923475 1433.64453125 1119.25 C1440.81353695 1115.25035548 1447.92092763 1111.15651956 1455 1107 C1464.14913289 1101.62803207 1473.37403131 1096.40923475 1482.64453125 1091.25 C1489.81353695 1087.25035548 1496.92092763 1083.15651956 1504 1079 C1513.14913289 1073.62803207 1522.37403131 1068.40923475 1531.64453125 1063.25 C1538.81353695 1059.25035548 1545.92092763 1055.15651956 1553 1051 C1562.14913289 1045.62803207 1571.37403131 1040.40923475 1580.64453125 1035.25 C1587.81353695 1031.25035548 1594.92092763 1027.15651956 1602 1023 C1611.14913289 1017.62803207 1620.37403131 1012.40923475 1629.64453125 1007.25 C1636.81353695 1003.25035548 1643.92092763 999.15651956 1651 995 C1660.14913289 989.62803207 1669.37403131 984.40923475 1678.64453125 979.25 C1685.81355372 975.25034612 1692.92052856 971.15585927 1700 967 C1708.35936039 962.10132783 1716.74832557 957.26003945 1725.1875 952.5 C1726.6734668 951.65501953 1726.6734668 951.65501953 1728.18945312 950.79296875 C1737.5175892 945.55721655 1747.05933302 940.46234559 1757.4375 937.6875 C1758.54996094 937.38199219 1759.66242187 937.07648437 1760.80859375 936.76171875 C1768.17384799 935.00379393 1775.327664 934.74812442 1782.86108398 934.70483398 C1784.87311974 934.68803745 1786.88487416 934.64426772 1788.89648438 934.59960938 C1813.46814707 934.28775969 1837.99891323 941.73743164 1861.79980469 947.14477539 C1866.56548365 948.22733574 1871.33381913 949.29765412 1876.1029892 950.36471462 C1879.83295395 951.20095909 1883.561258 952.04442853 1887.28913879 952.88990974 C1889.04575121 953.28729215 1890.80288733 953.68236821 1892.56059265 954.07488823 C1914.25803152 958.92888521 1935.62776763 964.65800029 1948.8125 984.25 C1957.80808986 999.41944988 1961.73351345 1016.76711087 1957.875 1034.1875 C1952.67077664 1052.12648191 1940.2170467 1065.25811963 1927.2734375 1078.0546875 C1926.07319298 1079.25186201 1924.87354924 1080.4496391 1923.67446899 1081.64797974 C1921.18303938 1084.13485248 1918.68684645 1086.61679598 1916.18652344 1089.09472656 C1913.00150234 1092.25134554 1909.82533276 1095.41668714 1906.65225792 1098.58530998 C1903.591627 1101.64076115 1900.52635289 1104.69153784 1897.4609375 1107.7421875 C1896.88839611 1108.31284817 1896.31585472 1108.88350883 1895.72596359 1109.47146225 C1890.15428587 1115.01947762 1884.57888962 1120.51667002 1878.59991455 1125.63119507 C1876.63325776 1127.31376587 1874.75345335 1129.07486173 1872.88671875 1130.8671875 C1871.85925537 1131.84727783 1871.85925537 1131.84727783 1870.81103516 1132.84716797 C1870.11026855 1133.51635254 1869.40950195 1134.18553711 1868.6875 1134.875 C1863.13244558 1140.14536542 1857.52493492 1145.1755028 1851.52734375 1149.9375 C1848.81254395 1152.15297804 1846.25466591 1154.49040467 1843.6875 1156.875 C1838.55036786 1161.59678954 1833.17048196 1165.89197017 1827.65625 1170.15625 C1825.21526551 1172.04436193 1822.80069579 1173.95946147 1820.40625 1175.90625 C1792.33490544 1198.72930957 1761.84663096 1218.1285358 1730.46191406 1236.02490234 C1726.96889992 1238.01774328 1723.48007126 1240.01773403 1719.9921875 1242.01953125 C1707.68080186 1249.08071763 1695.33377852 1256.07447283 1682.94116211 1262.99243164 C1675.58409551 1267.1023707 1668.26132637 1271.26881672 1660.95141602 1275.46191406 C1653.09757876 1279.96002762 1645.19855144 1284.37568712 1637.296875 1288.7890625 C1629.82038702 1292.96926637 1622.37583326 1297.20195513 1614.9465332 1301.46533203 C1608.22103344 1305.31846307 1601.45799491 1309.10161507 1594.6875 1312.875 C1586.44482189 1317.47161079 1578.2616463 1322.15583165 1570.125 1326.9375 C1560.52426091 1332.57885348 1550.82048193 1338.01212369 1541.07128906 1343.39208984 C1532.61248188 1348.07243587 1524.2516336 1352.90186334 1515.91796875 1357.80078125 C1507.79188766 1362.56693713 1499.58240211 1367.17197811 1491.35058594 1371.75244141 C1484.22341294 1375.72836202 1477.1605136 1379.80183349 1470.125 1383.9375 C1460.45147123 1389.62010937 1450.67962653 1395.10641961 1440.86035156 1400.53271484 C1434.00175431 1404.32496484 1427.171331 1408.15979909 1420.375 1412.0625 C1412.43539052 1416.61677526 1404.47727935 1421.13698931 1396.5 1425.625 C1395.43056152 1426.22965088 1394.36112305 1426.83430176 1393.25927734 1427.45727539 C1392.25590332 1428.02051514 1391.2525293 1428.58375488 1390.21875 1429.1640625 C1389.33123047 1429.66373535 1388.44371094 1430.1634082 1387.52929688 1430.67822266 C1385.06695719 1431.96500905 1382.59675882 1433.01717462 1380 1434 C1379.93631226 1435.53358154 1379.93631226 1435.53358154 1379.87133789 1437.09814453 C1379.27275765 1450.0897216 1377.94456354 1462.96061729 1376.4375 1475.875 C1376.24250916 1477.55456787 1376.24250916 1477.55456787 1376.0435791 1479.26806641 C1369.37684653 1536.26712611 1359.30331596 1592.76115633 1345.61529541 1648.49450684 C1345.0070489 1650.97129675 1344.4025821 1653.44898843 1343.79833984 1655.92675781 C1322.74552455 1741.94991735 1292.74765338 1825.38114072 1238 1943 C1237.44570312 1944.13050781 1236.89140625 1945.26101563 1236.3203125 1946.42578125 C1229.40375406 1960.50243892 1222.22290356 1974.39481426 1214.60400391 1988.10400391 C1212.8939578 1991.19145701 1211.20213282 1994.28847698 1209.51171875 1997.38671875 C1201.0619876 2012.81342662 1192.12589921 2027.87090212 1182.92041016 2042.85400391 C1180.71681772 2046.46390628 1178.56003838 2050.0995675 1176.40991211 2053.74145508 C1169.37083307 2065.64146005 1161.80634734 2077.18572107 1154.17578125 2088.71289062 C1152.04960288 2091.92506136 1149.9308124 2095.14201352 1147.8125 2098.359375 C1140.31190074 2109.71729736 1132.61918537 2120.8891609 1124.56347656 2131.85986328 C1122.98468182 2134.02096802 1121.42338774 2136.19367232 1119.8671875 2138.37109375 C1112.04692388 2149.30475764 1103.96599176 2160.0235228 1095.77734375 2170.68359375 C1094.25269352 2172.67066537 1092.73377738 2174.66184082 1091.21875 2176.65625 C1085.63214335 2183.98413665 1079.86127325 2191.14635857 1074.03125 2198.28125 C1071.62150201 2201.23111391 1069.24029419 2204.20180078 1066.875 2207.1875 C1063.38179651 2211.57055112 1059.77033076 2215.84569867 1056.13623047 2220.11181641 C1053.20623318 2223.55595484 1050.33675907 2227.040656 1047.5 2230.5625 C1043.3754401 2235.63319551 1039.00383401 2240.43192479 1034.5625 2245.22265625 C1031.89885863 2248.10962121 1029.30851652 2251.04923334 1026.734375 2254.015625 C1023.95713381 2257.19318924 1021.12521831 2260.32106697 1018.296875 2263.453125 C1016.84444159 2265.0636464 1015.39599324 2266.67777857 1013.953125 2268.296875 C999.41975206 2284.57862363 984.10557588 2300.05452496 968.66381836 2315.46655273 C965.64269965 2318.48192279 962.62616656 2321.50183448 959.6108942 2324.52304935 C957.25595964 2326.881614 954.89862849 2329.23777177 952.54058647 2331.59322929 C951.42722961 2332.70592636 950.31459475 2333.81934641 949.20274544 2334.93354988 C943.30827333 2340.83778653 937.34410145 2346.57472692 931 2352 C929.5837356 2353.30168755 928.17509037 2354.61182872 926.78125 2355.9375 C926.07613281 2356.60523437 925.37101562 2357.27296875 924.64453125 2357.9609375 C923.93683594 2358.63382813 923.22914063 2359.30671875 922.5 2360 C917.1052328 2365.12945078 911.64241348 2370.14364516 906 2375 C905.43974121 2375.48243164 904.87948242 2375.96486328 904.30224609 2376.46191406 C902.68285673 2377.85219524 901.06064228 2379.23910288 899.4375 2380.625 C895.73173296 2383.79248519 892.0318848 2386.96584115 888.359375 2390.171875 C879.73750467 2397.69729588 870.98122038 2405.03750423 862.11425781 2412.27246094 C860.04848036 2413.96038718 857.98857669 2415.65524499 855.9296875 2417.3515625 C848.79331485 2423.21367615 841.56264338 2428.9043521 834.14477539 2434.40625 C828.9911419 2438.2333361 823.92607777 2442.16385228 818.875 2446.125 C812.55319455 2451.06964588 806.15109291 2455.84947612 799.5859375 2460.46484375 C797.0286383 2462.26292252 794.49699904 2464.09201054 791.9765625 2465.94140625 C780.53770282 2474.322508 768.80892913 2482.21558824 756.9765625 2490.02880859 C754.13371155 2491.91145119 751.29944609 2493.80617408 748.46875 2495.70703125 C706.96656305 2523.57060961 663.74644883 2548.58262738 619.44873047 2571.71679688 C616.84836929 2573.07945872 614.25408214 2574.45325591 611.66015625 2575.828125 C549.96139346 2608.43071 484.99359428 2634.51514148 419 2657 C418.27458008 2657.2477417 417.54916016 2657.4954834 416.80175781 2657.75073242 C358.22580898 2677.7222035 298.23365556 2692.49020305 237.60644531 2704.66796875 C232.28402335 2705.73779447 226.9665689 2706.8301532 221.65028381 2707.93000793 C139.49977234 2724.88616803 55.93169549 2734.9991003 -28 2736 C-28.86357117 2736.01095703 -29.72714233 2736.02191406 -30.61688232 2736.03320312 C-127.90600455 2737.21973563 -224.99342206 2728.92629563 -474.68615723 2665.79364014 C-477.08557348 2664.97064859 -479.48727684 2664.1546541 -481.88964844 2663.34033203 C-503.78354223 2655.91341683 -525.3113529 2647.92412511 -546.58447266 2638.87011719 C-550.43618695 2637.23340039 -554.30027999 2635.62798951 -558.16783142 2634.02911377 C-580.32858988 2624.8619029 -601.97946518 2614.91324868 -623.45248413 2604.23733521 C-629.16598974 2601.39983655 -634.91324984 2598.64417829 -640.6809082 2595.91821289 C-650.79979878 2591.13369029 -660.6339005 2586.03583143 -670.35498047 2580.49316406 C-675.34800281 2577.67450755 -680.3828739 2574.93102662 -685.40872192 2572.17147827 C-705.29191346 2561.24198593 -724.88227365 2550.01798792 -744.05078125 2537.8671875 C-746.87269803 2536.08059648 -749.70104958 2534.3046803 -752.53125 2532.53125 C-766.58777526 2523.69383822 -780.33472625 2514.42921905 -794 2505 C-794.90556641 2504.37561035 -795.81113281 2503.7512207 -796.74414062 2503.10791016 C-809.0029952 2494.63703249 -821.0554523 2485.90771014 -833 2477 C-834.07556152 2476.19900879 -834.07556152 2476.19900879 -835.17285156 2475.38183594 C-855.60222807 2460.15643536 -875.75235949 2444.58614358 -895.16870117 2428.08154297 C-898.53850095 2425.22132267 -901.9403101 2422.40740457 -905.375 2419.625 C-915.16757697 2411.64269563 -924.66372072 2403.31138776 -933.93994141 2394.73608398 C-936.52900484 2392.34284311 -939.14007644 2389.98716062 -941.8125 2387.6875 C-946.92743559 2383.24752498 -951.84143216 2378.58919605 -956.77880859 2373.95410156 C-959.37625702 2371.51779022 -961.98000572 2369.08875596 -964.59350586 2366.66967773 C-974.63403859 2357.35391838 -984.38580721 2347.76926415 -994.05786133 2338.07250977 C-996.58755304 2335.53739324 -999.12263533 2333.00775363 -1001.65820312 2330.47851562 C-1003.29459202 2328.84146683 -1004.93067117 2327.20410834 -1006.56640625 2325.56640625 C-1007.31128799 2324.82354874 -1008.05616974 2324.08069122 -1008.82362366 2323.31532288 C-1012.89400791 2319.22683221 -1016.79508195 2315.04790846 -1020.55162048 2310.66856384 C-1022.2777962 2308.6799729 -1024.1060438 2306.82864736 -1026 2305 C-1029.12754053 2301.91416001 -1032.03382257 2298.718757 -1034.89453125 2295.38671875 C-1037.1059256 2292.87992479 -1039.3797846 2290.4425509 -1041.66772461 2288.00585938 C-1046.92880763 2282.40246364 -1051.9512871 2276.71469267 -1056.7578125 2270.7109375 C-1059.23908754 2267.710929 -1061.84905457 2264.84886566 -1064.5 2262 C-1068.67882805 2257.4981222 -1072.64909712 2252.876187 -1076.50390625 2248.09375 C-1078.96759004 2245.04017009 -1081.45787948 2242.01044944 -1083.95605469 2238.98510742 C-1086.97597864 2235.32774444 -1089.98785766 2231.66377215 -1093 2228 C-1093.55768066 2227.32243652 -1094.11536133 2226.64487305 -1094.68994141 2225.94677734 C-1107.39524954 2210.49110812 -1119.39864233 2194.55042306 -1131.22509766 2178.41601562 C-1133.00227129 2175.9969083 -1134.78695438 2173.58353465 -1136.57421875 2171.171875 C-1137.46669312 2169.9660376 -1137.46669312 2169.9660376 -1138.37719727 2168.73583984 C-1139.4766151 2167.25080416 -1140.57719546 2165.76662772 -1141.67944336 2164.28369141 C-1152.14046556 2150.13178109 -1162.02451855 2135.61053806 -1171.69116211 2120.9074707 C-1173.55999179 2118.0663132 -1175.43498239 2115.22929294 -1177.31054688 2112.39257812 C-1184.78022324 2101.06768591 -1192.0159156 2089.63029484 -1199 2078 C-1199.90649292 2076.498927 -1199.90649292 2076.498927 -1200.83129883 2074.9675293 C-1202.26764102 2072.58552925 -1203.69804562 2070.20013271 -1205.125 2067.8125 C-1206.14049697 2066.11450676 -1207.15612284 2064.4165906 -1208.171875 2062.71875 C-1208.65462891 2061.91179688 -1209.13738281 2061.10484375 -1209.63476562 2060.2734375 C-1210.83720041 2058.27109974 -1212.04824355 2056.27452089 -1213.265625 2054.28125 C-1230.510978 2025.98077655 -1245.90743371 1996.488751 -1261 1967 C-1261.54124512 1965.94619141 -1262.08249023 1964.89238281 -1262.64013672 1963.80664062 C-1271.72234863 1946.07851643 -1280.04389254 1928.04583518 -1288.16595459 1909.86407471 C-1289.38247159 1907.1451837 -1290.60829445 1904.4304914 -1291.83203125 1901.71484375 C-1319.74264376 1839.41761 -1342.74612516 1774.76528399 -1361 1709 C-1361.23205139 1708.16525146 -1361.46410278 1707.33050293 -1361.70318604 1706.47045898 C-1387.38250322 1613.83279696 -1402.55623492 1517.95341546 -1408 1422 C-1408.05113953 1421.11955017 -1408.10227905 1420.23910034 -1408.15496826 1419.33197021 C-1411.22315269 1366.09247145 -1411.57105855 1312.22159403 -1408 1259 C-1407.93683594 1258.05322388 -1407.87367187 1257.10644775 -1407.80859375 1256.13098145 C-1400.95138984 1154.71411206 -1383.35581909 1054.42501502 -1289 780 C-1288.6936261 779.33718018 -1288.3872522 778.67436035 -1288.07159424 777.99145508 C-1275.64790672 751.13036563 -1262.81467714 724.51903788 -1248.45019531 698.63134766 C-1246.99817242 695.99668389 -1245.56980901 693.35052962 -1244.1484375 690.69921875 C-1236.76352766 676.95042354 -1228.89817005 663.51520942 -1220.875 650.1328125 C-1219.19945343 647.33325343 -1217.53451724 644.52782866 -1215.875 641.71875 C-1198.43836045 612.27626676 -1179.34338048 583.72250913 -1159.38476562 555.92919922 C-1157.9023842 553.86400563 -1156.42786079 551.79331515 -1154.953125 549.72265625 C-1136.97923423 524.57412756 -1117.92503923 500.11022761 -1097.87841797 476.57739258 C-1095.08350449 473.29390418 -1092.33900588 469.97556363 -1089.625 466.625 C-1080.32103247 455.22599014 -1070.53088543 444.33151333 -1060.42578125 433.640625 C-1057.72064634 430.77610527 -1055.06096492 427.87733824 -1052.4375 424.9375 C-1039.58803864 410.58457924 -1026.07971549 396.92091025 -1012.44824219 383.31787109 C-1009.66138509 380.53675989 -1006.87911196 377.75111245 -1004.09810066 374.9641571 C-1001.9241688 372.78659217 -999.74783709 370.61143823 -997.57079697 368.4369812 C-996.54396413 367.41080748 -995.51785133 366.38391267 -994.49252701 365.35623169 C-989.3586326 360.21310588 -984.19626958 355.14997875 -978.66818237 350.42663574 C-976.04809863 348.18593043 -973.53217361 345.83950822 -971 343.5 C-967.04157708 339.85418209 -963.04869527 336.25737528 -958.98046875 332.734375 C-956.68866845 330.72735462 -954.44003248 328.67597149 -952.1875 326.625 C-947.92175991 322.77416472 -943.52206078 319.13266176 -939.0546875 315.51953125 C-935.45959879 312.55427266 -931.94782901 309.50212865 -928.4375 306.4375 C-922.73811302 301.4716834 -916.9567013 296.65623063 -911 292 C-909.47052734 290.7934375 -909.47052734 290.7934375 -907.91015625 289.5625 C-904.28026942 286.69958765 -900.64097045 283.84879651 -897 281 C-896.2977832 280.45005371 -895.59556641 279.90010742 -894.87207031 279.33349609 C-866.42432102 257.06976661 -837.22135391 235.80333945 -807 216 C-806.27876953 215.525625 -805.55753906 215.05125 -804.81445312 214.5625 C-783.25692155 200.39560582 -761.38378708 186.82361927 -739 174 C-738.05302246 173.45633789 -737.10604492 172.91267578 -736.13037109 172.35253906 C-720.90246177 163.62616872 -705.51996856 155.19540071 -690 147 C-689.3771814 146.67108765 -688.75436279 146.34217529 -688.1126709 146.0032959 C-613.75652671 106.79067299 -535.29208075 75.21178716 -325.7913208 20.55407715 C-323.31434249 20.06239698 -320.83838409 19.56598923 -318.36279297 19.06738281 C-233.83443521 2.1212228 -147.53599689 -2.72865278 0 0 Z " fill="#D54E38" transform="translate(1482,77)"/>
<path d="M0 0 C2.01203576 -0.01679654 4.02379018 -0.06056627 6.03540039 -0.10522461 C30.60706308 -0.4170743 55.13782925 7.03259766 78.9387207 12.43994141 C83.70439966 13.52250176 88.47273515 14.59282014 93.24190521 15.65988064 C96.97186996 16.49612511 100.70017401 17.33959454 104.42805481 18.18507576 C106.18466723 18.58245817 107.94180334 18.97753422 109.69950867 19.37005424 C131.39694753 24.22405123 152.76668365 29.9531663 165.95141602 49.54516602 C174.94700587 64.71461589 178.87242947 82.06227689 175.01391602 99.48266602 C169.80969265 117.42164792 157.35596272 130.55328565 144.41235352 143.34985352 C143.21210899 144.54702802 142.01246525 145.74480512 140.81338501 146.94314575 C138.32195539 149.43001849 135.82576247 151.911962 133.32543945 154.38989258 C130.14041836 157.54651156 126.96424878 160.71185316 123.79117393 163.880476 C120.73054302 166.93592716 117.66526891 169.98670386 114.59985352 173.03735352 C114.02731213 173.60801418 113.45477074 174.17867485 112.86487961 174.76662827 C107.29320189 180.31464364 101.71780564 185.81183604 95.73883057 190.92636108 C93.77217378 192.60893189 91.89236936 194.37002775 90.02563477 196.16235352 C88.99817139 197.14244385 88.99817139 197.14244385 87.94995117 198.14233398 C87.24918457 198.81151855 86.54841797 199.48070312 85.82641602 200.17016602 C80.2713616 205.44053143 74.66385094 210.47066881 68.66625977 215.23266602 C65.95145997 217.44814406 63.39358193 219.78557068 60.82641602 222.17016602 C55.68928388 226.89195556 50.30939798 231.18713619 44.79516602 235.45141602 C42.35418153 237.33952795 39.9396118 239.25462749 37.54516602 241.20141602 C9.47382146 264.02447559 -21.01445302 283.42370181 -52.39916992 301.32006836 C-55.89218406 303.31290929 -59.38101272 305.31290004 -62.86889648 307.31469727 C-75.18028212 314.37588365 -87.52730546 321.36963885 -99.91992188 328.28759766 C-107.27698847 332.39753672 -114.59975762 336.56398273 -121.90966797 340.75708008 C-129.76350522 345.25519363 -137.66253255 349.67085314 -145.56420898 354.08422852 C-153.04069697 358.26443239 -160.48525072 362.49712115 -167.91455078 366.76049805 C-174.64005054 370.61362909 -181.40308908 374.39678108 -188.17358398 378.17016602 C-196.41626209 382.7667768 -204.59943769 387.45099766 -212.73608398 392.23266602 C-222.33682307 397.8740195 -232.04060206 403.3072897 -241.78979492 408.68725586 C-250.24860211 413.36760188 -258.60945038 418.19702935 -266.94311523 423.09594727 C-275.06919633 427.86210315 -283.27868187 432.46714413 -291.51049805 437.04760742 C-298.63767104 441.02352803 -305.70057039 445.09699951 -312.73608398 449.23266602 C-322.40961275 454.91527539 -332.18145746 460.40158563 -342.00073242 465.82788086 C-348.85932726 469.62012952 -355.68982154 473.45484889 -362.48608398 477.35766602 C-378.89532288 486.77379092 -395.40891516 496.00020665 -412.03344727 505.03076172 C-417.01283568 507.73643815 -421.9785656 510.46389836 -426.92602539 513.22753906 C-429.86462231 514.86856956 -432.80819826 516.50048214 -435.75366211 518.12915039 C-437.13116413 518.8913086 -438.50751861 519.65554551 -439.88256836 520.42211914 C-475.00464721 539.92674079 -513.92879949 552.80096991 -552.86108398 562.29516602 C-553.92504395 562.55740967 -553.92504395 562.55740967 -555.01049805 562.82495117 C-592.86756611 572.04300038 -632.208249 574.80949073 -670.89649963 578.44668579 C-685.82896322 579.85284539 -700.74955658 581.37072419 -715.65283203 583.06005859 C-745.84006707 586.47928738 -776.06189988 589.57561965 -806.28017938 592.70553988 C-812.43084538 593.34278655 -818.58125909 593.98244254 -824.73161918 594.62263405 C-830.76817859 595.2508905 -836.80489462 595.87762653 -842.84173173 596.50320899 C-846.40397374 596.87237019 -849.96616032 597.24204336 -853.52819252 597.61322403 C-866.59610387 598.97435759 -879.6642021 600.31815736 -892.75244141 601.47045898 C-893.66337461 601.55131807 -894.5743078 601.63217716 -895.51284504 601.71548653 C-906.97715698 602.69709747 -917.88249458 603.37444802 -928.86108398 599.29516602 C-929.56620117 599.03993164 -930.27131836 598.78469727 -930.99780273 598.52172852 C-942.68458721 593.51638664 -947.90822137 583.24022252 -952.86108398 572.29516602 C-955.36744842 566.93346777 -955.36744842 566.93346777 -959.86108398 563.29516602 C-962.87834548 562.28941218 -965.1048623 562.09868466 -968.26742554 561.97766113 C-969.9716675 561.90918472 -969.9716675 561.90918472 -971.71033859 561.83932495 C-973.60132719 561.77009323 -973.60132719 561.77009323 -975.53051758 561.69946289 C-976.88947664 561.64651505 -978.2484202 561.59316818 -979.6073494 561.53945923 C-982.59553744 561.42222079 -985.58381692 561.30781876 -988.57219315 561.19548035 C-993.50495685 561.00999788 -998.4374677 560.81828407 -1003.3699646 560.62585449 C-1010.78435477 560.33716628 -1018.19885025 560.05131676 -1025.61340332 559.7668457 C-1038.54292308 559.27038765 -1051.47204433 558.7639006 -1064.40112305 558.25610352 C-1065.54548057 558.21117453 -1066.68983809 558.16624554 -1067.86887312 558.11995506 C-1074.98207657 557.84066826 -1082.09527165 557.56116875 -1089.20846272 557.28156662 C-1092.85125195 557.13838123 -1096.49404236 556.99522588 -1100.13683319 556.8520813 C-1101.95421954 556.78066626 -1101.95421954 556.78066626 -1103.80832076 556.70780849 C-1106.27000026 556.61107819 -1108.73167988 556.51435083 -1111.19335961 556.41762638 C-1117.41276611 556.17324522 -1123.63216939 555.9287828 -1129.85156631 555.68415833 C-1142.46631599 555.18809759 -1155.08112168 554.69353275 -1167.69604492 554.2019043 C-1182.55591096 553.62259168 -1197.41563486 553.03975311 -1212.27514648 552.45141602 C-1213.4604448 552.4044886 -1214.64574312 552.35756119 -1215.86695957 552.30921173 C-1251.21401968 550.90755423 -1286.54700981 549.38362101 -1321.86108398 547.29516602 C-1322.19108398 545.31516602 -1322.52108398 543.33516602 -1322.86108398 541.29516602 C-1311.29858199 537.27882826 -1299.74549342 533.31966503 -1287.86108398 530.35766602 C-1287.06863281 530.15890869 -1286.27618164 529.96015137 -1285.4597168 529.75537109 C-1277.9658 527.95231743 -1270.500809 527.18157482 -1262.80810547 526.84960938 C-1262.02604673 526.81337589 -1261.243988 526.77714241 -1260.43823051 526.73981094 C-1257.78635703 526.61809458 -1255.13429141 526.50136868 -1252.48217773 526.38500977 C-1250.50440565 526.29634169 -1248.52663786 526.2075777 -1246.5488739 526.11872864 C-1240.98654003 525.8704471 -1235.42396596 525.62796739 -1229.86130524 525.38713074 C-1226.28914602 525.23225682 -1222.71704949 525.07599451 -1219.1449585 524.91955566 C-1179.71642225 523.19846779 -1140.28027281 521.68794466 -1100.84155273 520.22094727 C-1099.03712538 520.15381472 -1099.03712538 520.15381472 -1097.19624496 520.08532596 C-1071.41984428 519.12673169 -1045.64311141 518.17733826 -1019.86599827 517.23810101 C-1011.63652514 516.93818353 -1003.40710969 516.63669657 -995.1777069 516.33485609 C-988.56339524 516.09244786 -981.94900035 515.85250201 -975.33452827 515.61451346 C-971.25857903 515.46734614 -967.18271058 515.31802803 -963.10686028 515.16814816 C-961.23727559 515.09984967 -959.36765794 515.03244625 -957.49800479 514.96604812 C-936.75222053 514.22841239 -922.60121647 512.20729261 -904.23608398 501.92016602 C-902.94860763 501.20453434 -901.66100791 500.48912454 -900.37329102 499.77392578 C-891.46407486 494.81220783 -882.6393781 489.71272367 -873.85449219 484.53393555 C-868.50119719 481.38705102 -863.11942965 478.30355816 -857.68530273 475.29907227 C-857.07914124 474.96391098 -856.47297974 474.62874969 -855.84844971 474.28343201 C-852.91296873 472.6629213 -849.9737988 471.04969036 -847.03051758 469.44335938 C-836.08163438 464.36648648 -836.08163438 464.36648648 -827.86108398 456.29516602 C-828.67950492 456.3204283 -828.67950492 456.3204283 -829.51445961 456.34620094 C-837.42651503 456.47721915 -845.19514748 455.67587201 -853.05395508 454.84350586 C-854.59563939 454.68410375 -856.1373723 454.52517122 -857.67914867 454.36666203 C-861.03906744 454.02025963 -864.39863247 453.67065487 -867.757967 453.31863213 C-873.29544566 452.738482 -878.83369427 452.1659126 -884.37205505 451.59425354 C-892.58746045 450.74567335 -900.80255461 449.89413551 -909.01748657 449.04098511 C-931.1136865 446.74699682 -953.21250089 444.47832784 -975.31132436 442.20977569 C-977.83849486 441.95034326 -980.36566103 441.69086858 -982.89282298 441.43135285 C-1044.85321946 435.06871543 -1106.8253621 428.82457405 -1168.80191833 422.62151152 C-1178.83323578 421.61745789 -1188.86440854 420.6119692 -1198.89550532 419.60571346 C-1274.02678049 412.06944609 -1349.16921816 404.65841173 -1424.32948881 397.4166922 C-1438.2822263 396.07227446 -1452.23469607 394.72511489 -1466.1869261 393.37544104 C-1469.38186823 393.0663775 -1472.57681534 392.75736551 -1475.77176398 392.44836932 C-1493.25957037 390.75703194 -1493.25957037 390.75703194 -1501.2273854 389.98607647 C-1525.30040401 387.65699327 -1549.37450708 385.34003789 -1573.45112348 383.04842742 C-1590.23958053 381.45031234 -1607.02651104 379.836924 -1623.81201839 378.20811403 C-1633.86889099 377.23282448 -1643.92684079 376.27076893 -1653.9866958 375.32672852 C-1660.74062019 374.69173367 -1667.49287349 374.04071233 -1674.2439942 373.37657518 C-1678.10529119 372.99722231 -1681.96692817 372.62518078 -1685.83078063 372.27271926 C-1689.99239217 371.89294735 -1694.14986591 371.47891745 -1698.30784607 371.06126404 C-1700.12678334 370.90370117 -1700.12678334 370.90370117 -1701.98246682 370.74295521 C-1710.09477246 369.88648259 -1710.09477246 369.88648259 -1714.00479221 366.8693552 C-1714.6173685 366.01987277 -1715.22994478 365.17039034 -1715.86108398 364.29516602 C-1716.60487305 363.32063477 -1717.34866211 362.34610352 -1718.11499023 361.34204102 C-1718.88956681 360.24663292 -1719.65885273 359.14746991 -1720.42358398 358.04516602 C-1720.84631592 357.44381836 -1721.26904785 356.8424707 -1721.70458984 356.22290039 C-1722.61527932 354.92725643 -1723.52416075 353.63034007 -1724.43139648 352.33227539 C-1725.89690615 350.24412432 -1727.37702636 348.16704427 -1728.86108398 346.09204102 C-1733.70503257 339.30881255 -1738.50208981 332.49076112 -1743.11108398 325.54516602 C-1743.83811523 324.45719727 -1744.56514648 323.36922852 -1745.31420898 322.24829102 C-1746.91111265 319.19965675 -1747.39485774 317.6660633 -1746.86108398 314.29516602 C-1742.57306846 308.80114613 -1737.1487788 306.17552031 -1730.56420898 304.41235352 C-1723.67014917 303.67936669 -1716.90740654 306.59674304 -1710.42358398 308.67016602 C-1708.94581689 309.12950021 -1707.46778616 309.58798706 -1705.98950195 310.0456543 C-1697.05833744 312.83572963 -1688.25590146 315.90612558 -1679.48608398 319.17016602 C-1653.52641205 328.75118384 -1626.89942124 329.5678855 -1599.45019531 329.67407227 C-1597.09665834 329.69009054 -1594.74312677 329.70691853 -1592.38960075 329.72447205 C-1585.98713775 329.76992459 -1579.58465915 329.80404444 -1573.18211722 329.83615112 C-1566.9501541 329.86832212 -1560.71825868 329.91113201 -1554.48635281 329.95272851 C-1541.67300978 330.03795033 -1528.85962886 330.11457796 -1516.04620361 330.1862793 C-1503.13760621 330.25854234 -1490.22904105 330.33474037 -1477.32049561 330.41577148 C-1476.50492519 330.42088914 -1475.68935478 330.4260068 -1474.84907012 330.43127954 C-1470.69735649 330.45735022 -1466.54564328 330.48348531 -1462.3939302 330.50964165 C-1432.9995566 330.69468672 -1403.60514067 330.87226068 -1374.21069336 331.04516602 C-1373.33540839 331.0503181 -1372.46012341 331.05547018 -1371.55831465 331.06077838 C-1352.82465165 331.17104558 -1334.09098433 331.2805489 -1315.35731024 331.38891596 C-1149.64077916 332.34760306 -1149.64077916 332.34760306 -1080.86108398 333.29516602 C-1079.68346237 333.31136978 -1079.68346237 333.31136978 -1078.48205042 333.32790089 C-1060.87122636 333.57078352 -1043.26064518 333.82940911 -1025.65014648 334.09472656 C-942.75936048 335.37250954 -942.75936048 335.37250954 -859.86108398 335.29516602 C-858.76324585 335.28549805 -857.66540771 335.27583008 -856.53430176 335.26586914 C-830.33732168 335.02526315 -804.16861023 334.04406313 -777.99389648 332.99438477 C-777.19381039 332.962418 -776.39372429 332.93045123 -775.56939316 332.89751577 C-737.99920655 331.39592522 -700.44302056 329.62583717 -662.88701051 327.80800676 C-652.77444772 327.31876392 -642.66163788 326.83469236 -632.54882812 326.35058594 C-628.82075385 326.17206693 -625.09268104 325.99351747 -621.36460876 325.81495667 C-620.44588047 325.77095543 -619.52715218 325.72695419 -618.58058363 325.68161958 C-609.4913641 325.24623125 -600.40220054 324.80967935 -591.31304133 324.37303388 C-566.01521634 323.15777832 -540.71726536 321.94532921 -515.41827011 320.75463486 C-512.3147678 320.60842844 -509.21129161 320.4616769 -506.1078186 320.31484985 C-481.86082219 319.169435 -457.61121592 318.10614446 -433.35713005 317.12304115 C-429.85197046 316.98094846 -426.34684258 316.83809192 -422.84172744 316.69490725 C-419.37365996 316.55323613 -415.90558118 316.41184295 -412.4375 316.27050781 C-411.75428684 316.24265367 -411.07107369 316.21479953 -410.3671571 316.18610132 C-401.61199774 315.82948385 -392.85654017 315.48236405 -384.10065651 315.14394569 C-379.13909859 314.95061192 -374.17783667 314.75034863 -369.2166214 314.5484314 C-366.90414983 314.45594483 -364.59155097 314.366582 -362.27883148 314.28051758 C-359.10820017 314.16226207 -355.93817318 314.03332618 -352.76806641 313.90185547 C-351.84471717 313.87013402 -350.92136793 313.83841257 -349.97003841 313.80572987 C-345.25290199 313.59829901 -341.29756471 313.08793881 -336.86108398 311.29516602 C-350.63168576 310.27120167 -364.40256254 309.25097026 -378.17358398 308.23266602 C-379.21850258 308.1553701 -380.26342117 308.07807419 -381.34000397 307.99843597 C-407.52266761 306.06206676 -433.70699788 304.15233198 -459.89624023 302.30688477 C-461.03098848 302.22689428 -462.16573673 302.1469038 -463.33487129 302.06448936 C-474.39207444 301.28538908 -485.44948682 300.50934707 -496.50728893 299.73879337 C-500.59890604 299.45339203 -504.690428 299.16664216 -508.78193474 298.87966347 C-511.57918415 298.68403412 -514.37656942 298.49044021 -517.17396545 298.29692078 C-518.86899586 298.17812065 -520.56401889 298.05921516 -522.2590332 297.94018555 C-523.00335759 297.88930755 -523.74768198 297.83842955 -524.51456165 297.78600979 C-529.64837968 297.42235669 -534.74857938 296.88828254 -539.86108398 296.29516602 C-537.14456694 293.42087048 -534.44543066 291.21685333 -531.09936523 289.11547852 C-530.15834961 288.52371826 -529.21733398 287.93195801 -528.24780273 287.32226562 C-527.23331055 286.69457275 -526.21881836 286.06687988 -525.17358398 285.42016602 C-524.11139648 284.75960205 -523.04920898 284.09903809 -521.95483398 283.41845703 C-512.4840669 277.58060831 -502.81465851 272.14143347 -493.07983398 266.76000977 C-486.95099247 263.36520615 -480.90064823 259.84578468 -474.86108398 256.29516602 C-465.71228445 250.9226444 -456.48703854 245.7043929 -447.21655273 240.54516602 C-440.04754704 236.54552149 -432.94015636 232.45168557 -425.86108398 228.29516602 C-416.7119511 222.92319808 -407.48705267 217.70440076 -398.21655273 212.54516602 C-391.04754704 208.54552149 -383.94015636 204.45168557 -376.86108398 200.29516602 C-367.7119511 194.92319808 -358.48705267 189.70440076 -349.21655273 184.54516602 C-342.04754704 180.54552149 -334.94015636 176.45168557 -327.86108398 172.29516602 C-318.7119511 166.92319808 -309.48705267 161.70440076 -300.21655273 156.54516602 C-293.04754704 152.54552149 -285.94015636 148.45168557 -278.86108398 144.29516602 C-269.7119511 138.92319808 -260.48705267 133.70440076 -251.21655273 128.54516602 C-244.04754704 124.54552149 -236.94015636 120.45168557 -229.86108398 116.29516602 C-220.7119511 110.92319808 -211.48705267 105.70440076 -202.21655273 100.54516602 C-195.04754704 96.54552149 -187.94015636 92.45168557 -180.86108398 88.29516602 C-171.7119511 82.92319808 -162.48705267 77.70440076 -153.21655273 72.54516602 C-146.04754704 68.54552149 -138.94015636 64.45168557 -131.86108398 60.29516602 C-122.7119511 54.92319808 -113.48705267 49.70440076 -104.21655273 44.54516602 C-97.04753026 40.54551213 -89.94055543 36.45102529 -82.86108398 32.29516602 C-74.50172359 27.39649384 -66.11275841 22.55520547 -57.67358398 17.79516602 C-56.68293945 17.2318457 -55.69229492 16.66852539 -54.67163086 16.08813477 C-45.34349478 10.85238257 -35.80175096 5.7575116 -25.42358398 2.98266602 C-24.31112305 2.6771582 -23.19866211 2.37165039 -22.05249023 2.05688477 C-14.68723599 0.29895995 -7.53341998 0.04329044 0 0 Z " fill="#10476E" transform="translate(3264.861083984375,1011.704833984375)"/>
<path d="M0 0 C5.1368002 1.63121269 9.04154367 4.76460718 13.3125 7.9375 C14.92991919 9.12255606 16.54842957 10.30612409 18.16796875 11.48828125 C18.97927246 12.0807666 19.79057617 12.67325195 20.62646484 13.28369141 C24.08808902 15.78679961 27.5986622 18.21425765 31.125 20.625 C31.76477783 21.06376465 32.40455566 21.5025293 33.0637207 21.95458984 C36.549135 24.34006114 40.04767997 26.70499213 43.5546875 29.05859375 C44.67012939 29.81245361 44.67012939 29.81245361 45.80810547 30.58154297 C47.24331036 31.55124144 48.68231798 32.51534095 50.12548828 33.47314453 C51.78597176 34.59785316 53.39864279 35.7925937 55 37 C55 37.66 55 38.32 55 39 C-2.18639313 61.40374473 -2.18639313 61.40374473 -23.26953125 68.98828125 C-23.97253357 69.24134537 -24.67553589 69.49440948 -25.39984131 69.75514221 C-31.3131385 71.88333971 -31.3131385 71.88333971 -33.92852783 72.82168579 C-43.03704103 76.09513641 -51.98398599 79.60339492 -60.875 83.4375 C-84.64539087 93.56082964 -109.93579041 96.59988149 -135.55255127 98.58335876 C-155.62428123 100.15514871 -175.67166757 101.92086646 -195.70117188 103.96069336 C-196.57481644 104.04965531 -197.448461 104.13861727 -198.34857965 104.23027503 C-202.05468172 104.60802733 -205.76072002 104.98640006 -209.46670532 105.3652963 C-255.47808993 110.06756062 -301.51834468 114.43439835 -347.57133594 118.70507741 C-350.86530662 119.01058919 -354.15925621 119.3163279 -357.45320626 119.622062 C-385.40614318 122.21647979 -413.3598221 124.80288567 -441.31396484 127.38427734 C-464.064575 129.4851835 -486.81479882 131.59018925 -509.56421036 133.70403868 C-512.02949056 133.9330674 -514.49478378 134.16195551 -516.96007967 134.39081526 C-564.64787809 138.81865532 -612.30846157 143.44704713 -659.93616343 148.48582029 C-664.09429206 148.92559814 -668.25266841 149.36301199 -672.4110291 149.80058932 C-675.19434401 150.09509642 -677.97709159 150.39455759 -680.75981712 150.69457436 C-682.42123349 150.87034563 -684.08266838 151.04594184 -685.74412537 151.22132874 C-686.83490996 151.34135503 -686.83490996 151.34135503 -687.9477306 151.46380609 C-692.66490388 151.95560084 -697.26552347 152.06613434 -702 152 C-702 150.68 -702 149.36 -702 148 C-701.49364014 147.74943848 -700.98728027 147.49887695 -700.46557617 147.24072266 C-691.08961948 142.59436138 -681.74323881 137.90592922 -672.5 133 C-665.21537908 129.13413512 -657.867875 125.41506977 -650.48046875 121.75 C-644.7772442 118.91169229 -639.12707301 115.98617473 -633.5 113 C-627.04404369 109.57395353 -620.5472148 106.24823551 -614 103 C-607.49444605 99.77239445 -601.03906173 96.46829157 -594.625 93.0625 C-586.87724212 88.94933304 -579.05275348 85.00877746 -571.19628906 81.10791016 C-564.42455685 77.73630533 -557.72386869 74.24669828 -551.04296875 70.69921875 C-545.40311125 67.71396754 -539.71608948 64.83624025 -534 62 C-527.81326355 58.92759876 -521.66388215 55.80109596 -515.5625 52.5625 C-505.92369419 47.44664876 -496.21148247 42.47593937 -486.5 37.5 C-476.62287157 32.43889713 -466.74725054 27.37846282 -456.9375 22.1875 C-455.51825415 21.44005673 -454.09898513 20.69265745 -452.6796875 19.9453125 C-450.32300955 18.7032303 -447.97643536 17.44665763 -445.6328125 16.1796875 C-429.53353747 7.69991668 -415.10605491 7.97003856 -397.625 11.75 C-352.20316163 21.06453593 -305.99207452 22.10714579 -259.79837036 23.62039185 C-235.3559478 24.42225396 -210.94758249 25.45200955 -186.53328323 26.87106705 C-158.49407715 28.49895111 -130.45470641 29.71276321 -102.38375473 30.65106201 C-99.49427653 30.74809339 -96.60487612 30.84720112 -93.71548462 30.94677734 C-83.11874819 31.30928172 -72.52203876 31.62797768 -61.92205811 31.87915039 C-58.64934576 31.95688015 -55.37736133 32.04722265 -52.10528564 32.14819336 C-48.25389356 32.26529994 -44.40304571 32.35087719 -40.55037117 32.41205597 C-39.14989296 32.43893004 -37.74956424 32.47601695 -36.3496685 32.5245285 C-28.50218688 32.78806021 -23.04934418 32.44717312 -16.69483948 27.58686829 C-14.2231892 25.2726766 -12.53550254 22.88247199 -10.875 19.9375 C-9.91207031 18.25914063 -9.91207031 18.25914063 -8.9296875 16.546875 C-8.28393587 15.36595918 -7.64075859 14.18363245 -7 13 C-6.66129883 12.38447266 -6.32259766 11.76894531 -5.97363281 11.13476562 C-3.94289145 7.44356054 -1.95467363 3.73220497 0 0 Z " fill="#0F476E" transform="translate(3625,1345)"/>
<path d="M0 0 C5.35225743 2.75753187 9.26917552 7.17301095 13.0859375 11.73046875 C15.32418312 14.38438856 17.65554011 16.93950982 20 19.5 C23.43264761 23.26350521 26.8155501 27.06129351 30.15625 30.90625 C32.40876457 33.46419027 34.70317092 35.9817898 37 38.5 C41.99688978 43.98457422 46.90313066 49.53268831 51.7109375 55.18359375 C57.5366433 62.02420434 63.45780936 68.74386559 69.5546875 75.34375 C73.71504527 79.86298847 77.72685535 84.50178609 81.70703125 89.1796875 C86.61126643 94.93679833 91.53949845 100.64622937 96.6875 106.1875 C100.97702052 110.82314898 105.02910395 115.59287757 108.984375 120.515625 C110.79499846 122.74732368 112.65912568 124.91008605 114.5625 127.0625 C117 130 117 130 117 132 C90.98283339 135.67960781 64.93972369 139.1408948 38.87988281 142.50415039 C33.58763125 143.18735289 28.2960681 143.87575048 23.00463295 144.56524372 C18.87689212 145.10227348 14.74871389 145.63587815 10.62040329 146.16850853 C8.66585685 146.42124319 6.71146943 146.67521104 4.75725174 146.93047523 C2.05427712 147.28318705 -0.64927582 147.63108433 -3.35302734 147.9777832 C-4.54026146 148.13431366 -4.54026146 148.13431366 -5.7514801 148.29400635 C-9.86604793 148.81613457 -13.84139052 149.1080222 -18 149 C-26.87177222 122.21443409 -35.68227562 95.40756586 -44.06494141 68.4642334 C-44.76872964 66.2057734 -45.47638165 63.94851363 -46.18798828 61.69250488 C-47.18105524 58.53931811 -48.15904382 55.38184789 -49.1328125 52.22265625 C-49.42568146 51.30100174 -49.71855042 50.37934723 -50.02029419 49.42976379 C-51.85342416 43.39851127 -53.19547953 37.68414606 -51.1875 31.49609375 C-50.5996875 30.47708984 -50.5996875 30.47708984 -50 29.4375 C-49.62875 28.75558594 -49.2575 28.07367187 -48.875 27.37109375 C-43.5010265 20.57525643 -36.4158757 16.15598279 -29 11.875 C-27.29127399 10.87306521 -25.58293576 9.87046878 -23.875 8.8671875 C-23.05644531 8.38991211 -22.23789063 7.91263672 -21.39453125 7.42089844 C-18.45068695 5.6740414 -15.56534569 3.8440741 -12.69140625 1.98486328 C-8.70433618 -0.33670725 -4.48412407 -0.82771466 0 0 Z " fill="#0F476E" transform="translate(2309,1181)"/>
</svg>
