<?xml version="1.0" encoding="UTF-8"?>
<!DOCTYPE svg PUBLIC "-//W3C//DTD SVG 1.1//EN" "http://www.w3.org/Graphics/SVG/1.1/DTD/svg11.dtd">
<svg xmlns="http://www.w3.org/2000/svg" version="1.1" width="1080px" height="540px" style="shape-rendering:geometricPrecision; text-rendering:geometricPrecision; image-rendering:optimizeQuality; fill-rule:evenodd; clip-rule:evenodd" xmlns:xlink="http://www.w3.org/1999/xlink">
<g><path style="opacity:1" fill="#2d4b73" d="M 140.5,31.5 C 179.124,27.6961 214.124,36.8628 245.5,59C 248.513,60.6792 250.846,63.0125 252.5,66C 242.096,80.5734 230.762,94.4067 218.5,107.5C 203.999,95.0834 187.333,87.25 168.5,84C 135.719,79.6438 110.886,91.4772 94,119.5C 83.2614,142.128 81.5947,165.461 89,189.5C 101.715,219.685 124.548,235.685 157.5,237.5C 175.073,237.192 191.406,232.692 206.5,224C 207,223.5 207.5,223 208,222.5C 208.5,211.172 208.667,199.838 208.5,188.5C 190.167,188.5 171.833,188.5 153.5,188.5C 152.857,172.093 153.524,155.927 155.5,140C 190.5,139.333 225.5,139.333 260.5,140C 261,140.5 261.5,141 262,141.5C 262.667,176.833 262.667,212.167 262,247.5C 220.095,283.684 171.929,295.517 117.5,283C 66.1343,267.138 35.9677,232.638 27,179.5C 21.0819,123.184 41.5819,79.6836 88.5,49C 104.909,40.0308 122.242,34.1974 140.5,31.5 Z"/></g>
<g><path style="opacity:1" fill="#2d4b73" d="M 401.5,33.5 C 413.509,34.4107 425.509,34.4107 437.5,33.5C 440.5,33.6667 443.5,33.8333 446.5,34C 447.416,34.3742 448.25,34.8742 449,35.5C 483.524,117.554 518.357,199.554 553.5,281.5C 553.291,282.086 552.957,282.586 552.5,283C 533.491,283.833 514.491,283.666 495.5,282.5C 488.443,264.719 481.109,247.052 473.5,229.5C 438.84,228.5 404.173,228.167 369.5,228.5C 363.133,247.066 355.8,265.233 347.5,283C 329.167,283.667 310.833,283.667 292.5,283C 292.043,282.586 291.709,282.086 291.5,281.5C 326.638,199.565 361.472,117.565 396,35.5C 397.948,34.8906 399.782,34.224 401.5,33.5 Z M 421.5,102.5 C 432.578,127.369 442.911,152.702 452.5,178.5C 431.831,178.667 411.164,178.5 390.5,178C 401.54,153.092 411.873,127.925 421.5,102.5 Z"/></g>
<g><path style="opacity:1" fill="#2c4b74" d="M 721.5,283.5 C 721.389,282.883 721.056,282.383 720.5,282C 677.835,281.5 635.168,281.333 592.5,281.5C 592.667,202.166 592.5,122.833 592,43.5C 591.5,123.166 591.333,202.833 591.5,282.5C 631.67,282.168 671.67,282.501 711.5,283.5C 671.167,283.5 630.833,283.5 590.5,283.5C 590.5,200.833 590.5,118.167 590.5,35.5C 633.501,35.3333 676.501,35.5 719.5,36C 736.472,37.5427 751.806,43.2094 765.5,53C 785.075,70.8355 791.575,92.6688 785,118.5C 780.15,133.522 770.983,145.189 757.5,153.5C 766.136,158.153 774.469,163.319 782.5,169C 795.839,181.189 801.839,196.356 800.5,214.5C 801.162,238.351 791.496,256.517 771.5,269C 755.906,277.552 739.239,282.385 721.5,283.5 Z M 644.5,84.5 C 664.836,84.3334 685.169,84.5 705.5,85C 730.207,89.2495 737.374,102.749 727,125.5C 718.546,131.635 709.046,134.802 698.5,135C 680.503,135.5 662.503,135.667 644.5,135.5C 644.5,118.5 644.5,101.5 644.5,84.5 Z M 644.5,181.5 C 666.836,181.333 689.169,181.5 711.5,182C 725.37,181.188 736.203,186.354 744,197.5C 748.945,216.79 741.778,228.623 722.5,233C 696.856,234.555 671.189,234.889 645.5,234C 644.508,216.577 644.175,199.077 644.5,181.5 Z"/></g>
<g><path style="opacity:1" fill="#2d4b73" d="M 819.5,35.5 C 840.836,35.3334 862.169,35.5 883.5,36C 902.681,68.1846 922.014,100.351 941.5,132.5C 961.299,100.508 980.966,68.3413 1000.5,36C 1021.17,35.3333 1041.83,35.3333 1062.5,36C 1062.96,36.414 1063.29,36.914 1063.5,37.5C 1032.56,86.2802 1001.39,134.947 970,183.5C 969.667,216.5 969.333,249.5 969,282.5C 950.576,283.493 932.076,283.826 913.5,283.5C 913.979,250.104 913.479,216.771 912,183.5C 881.698,135.854 851.364,88.1872 821,40.5C 819.991,38.9751 819.491,37.3084 819.5,35.5 Z"/></g>
<g><path style="opacity:0.922" fill="#423f5e" d="M 721.5,283.5 C 718.167,283.5 714.833,283.5 711.5,283.5C 671.67,282.501 631.67,282.168 591.5,282.5C 591.333,202.833 591.5,123.166 592,43.5C 592.5,122.833 592.667,202.166 592.5,281.5C 635.168,281.333 677.835,281.5 720.5,282C 721.056,282.383 721.389,282.883 721.5,283.5 Z"/></g>
<g><path style="opacity:1" fill="#2f4970" d="M 121.5,350.5 C 150.169,350.333 178.835,350.5 207.5,351C 210.991,352.821 212.157,355.654 211,359.5C 210.167,361.667 208.667,363.167 206.5,364C 194.627,365.419 182.794,365.919 171,365.5C 170.667,400.167 170.333,434.833 170,469.5C 165.694,473.675 161.694,473.342 158,468.5C 157.5,433.835 157.333,399.168 157.5,364.5C 145.459,365.923 133.459,365.756 121.5,364C 117.649,361.585 116.482,358.085 118,353.5C 119.145,352.364 120.312,351.364 121.5,350.5 Z"/></g>
<g><path style="opacity:1" fill="#304d73" d="M 503.5,350.5 C 531.835,350.333 560.169,350.5 588.5,351C 592.877,353.465 594.044,356.965 592,361.5C 585.454,364.88 578.454,366.214 571,365.5C 564.82,365.297 558.654,364.963 552.5,364.5C 552.667,399.168 552.5,433.835 552,468.5C 549.369,472.629 545.869,473.462 541.5,471C 540.107,469.829 539.273,468.329 539,466.5C 538.5,432.502 538.333,398.502 538.5,364.5C 526.794,365.949 515.127,365.782 503.5,364C 496.888,359.503 496.888,355.003 503.5,350.5 Z"/></g>
<g><path style="opacity:1" fill="#334671" d="M 965.5,350.5 C 969.65,350.487 972.15,352.487 973,356.5C 973.667,393.167 973.667,429.833 973,466.5C 971.542,472.059 968.042,473.892 962.5,472C 961.667,471.167 960.833,470.333 960,469.5C 959.333,430.833 959.333,392.167 960,353.5C 961.649,352.047 963.482,351.047 965.5,350.5 Z"/></g>
<g><path style="opacity:1" fill="#2f4971" d="M 261.5,377.5 C 289.852,376.415 308.019,389.415 316,416.5C 318.577,445.246 306.077,463.746 278.5,472C 251.094,474.558 232.594,463.058 223,437.5C 218.711,406.324 231.544,386.324 261.5,377.5 Z M 260.5,391.5 C 280.436,389.049 294.269,397.049 302,415.5C 305.407,438.531 295.907,453.031 273.5,459C 253.938,459.469 241.438,450.302 236,431.5C 234.258,411.966 242.425,398.633 260.5,391.5 Z"/></g>
<g><path style="opacity:1" fill="#314970" d="M 772.5,377.5 C 775.617,377.642 778.117,378.976 780,381.5C 780.667,410.833 780.667,440.167 780,469.5C 775.181,473.919 771.181,473.252 768,467.5C 767.503,465.19 767.337,462.857 767.5,460.5C 766.448,460.351 765.448,460.517 764.5,461C 743.659,476.474 722.992,476.14 702.5,460C 686.452,443.08 683.286,423.913 693,402.5C 708.557,379.539 729.39,373.039 755.5,383C 759.44,384.886 762.94,387.386 766,390.5C 766.251,385.037 768.418,380.703 772.5,377.5 Z M 730.5,391.5 C 743.622,391.594 754.456,396.594 763,406.5C 765.146,409.126 766.479,412.126 767,415.5C 771.386,433.886 765.219,447.053 748.5,455C 727.895,462.133 712.728,455.966 703,436.5C 698.447,412.916 707.614,397.916 730.5,391.5 Z"/></g>
<g><path style="opacity:1" fill="#2f4971" d="M 328.5,379.5 C 331.602,379.154 334.435,379.821 337,381.5C 337.995,384.77 338.828,388.103 339.5,391.5C 356.418,378.074 374.751,375.908 394.5,385C 418.49,401.782 424.323,423.616 412,450.5C 396.527,471.811 376.36,477.978 351.5,469C 347.324,466.412 343.324,463.579 339.5,460.5C 338.667,478.157 338.167,495.824 338,513.5C 337.057,515.954 335.224,516.954 332.5,516.5C 329.675,516.881 327.509,515.881 326,513.5C 325.167,469.496 325.333,425.496 326.5,381.5C 327.522,381.145 328.189,380.478 328.5,379.5 Z M 365.5,393.5 C 388.73,392.269 402.063,403.102 405.5,426C 402.349,450.074 388.682,461.074 364.5,459C 339.614,449.008 332.781,431.841 344,407.5C 349.529,400.162 356.696,395.495 365.5,393.5 Z"/></g>
<g><path style="opacity:1" fill="#314970" d="M 892.5,379.5 C 918.234,377.016 936.234,387.35 946.5,410.5C 946.167,411.167 945.833,411.833 945.5,412.5C 921.645,421.397 897.811,430.397 874,439.5C 873.48,441.289 873.813,442.956 875,444.5C 884.633,456.821 896.967,461.154 912,457.5C 918.285,458.113 920.619,461.446 919,467.5C 917.778,469.696 915.944,471.196 913.5,472C 879.476,475.318 860.142,459.984 855.5,426C 857.364,401.987 869.698,386.487 892.5,379.5 Z M 897.5,392.5 C 910.147,391.877 920.814,396.044 929.5,405C 909.584,411.917 889.584,418.75 869.5,425.5C 870.983,407.694 880.316,396.694 897.5,392.5 Z"/></g>
<g><path style="opacity:1" fill="#304970" d="M 796.5,376.5 C 800.639,375.704 803.805,377.037 806,380.5C 810.201,398.972 814.868,417.306 820,435.5C 824.843,416.462 829.843,397.462 835,378.5C 840.944,375.055 845.11,376.555 847.5,383C 840.712,411.277 833.545,439.444 826,467.5C 822.171,473.703 817.838,474.036 813,468.5C 806.159,442.299 799.826,415.966 794,389.5C 793.333,385.833 793.333,382.167 794,378.5C 794.995,377.934 795.828,377.267 796.5,376.5 Z"/></g>
<g><path style="opacity:1" fill="#304971" d="M 608.5,377.5 C 614.673,377.835 618.173,381.169 619,387.5C 632.387,377.691 646.887,375.858 662.5,382C 669.101,384.22 674.601,388.053 679,393.5C 679.667,396.5 679.667,399.5 679,402.5C 677.237,403.944 675.237,404.944 673,405.5C 668.521,402.363 664.021,399.196 659.5,396C 654.972,393.49 650.139,391.99 645,391.5C 637.276,392.863 630.276,395.863 624,400.5C 621.906,402.921 620.24,405.588 619,408.5C 618.667,428.167 618.333,447.833 618,467.5C 615.928,472.143 612.428,473.643 607.5,472C 606.299,471.097 605.465,469.931 605,468.5C 604.333,439.5 604.333,410.5 605,381.5C 605.69,379.65 606.856,378.316 608.5,377.5 Z"/></g>
</svg>
