<?xml version="1.0" encoding="UTF-8"?>
<!DOCTYPE svg PUBLIC "-//W3C//DTD SVG 1.1//EN" "http://www.w3.org/Graphics/SVG/1.1/DTD/svg11.dtd">
<svg xmlns="http://www.w3.org/2000/svg" version="1.1" width="1080px" height="527px" style="shape-rendering:geometricPrecision; text-rendering:geometricPrecision; image-rendering:optimizeQuality; fill-rule:evenodd; clip-rule:evenodd" xmlns:xlink="http://www.w3.org/1999/xlink">
<g><path style="opacity:0.971" fill="#fefefe" d="M 159.5,31.5 C 197.647,29.5472 230.981,40.8806 259.5,65.5C 248.167,79.1667 236.833,92.8333 225.5,106.5C 199.752,83.7491 170.418,77.2491 137.5,87C 108.801,101.393 94.4674,124.726 94.5,157C 94.6595,191.784 110.66,215.784 142.5,229C 167.988,235.815 191.988,232.482 214.5,219C 215.488,207.581 215.821,196.081 215.5,184.5C 197.5,184.5 179.5,184.5 161.5,184.5C 161.5,169.167 161.5,153.833 161.5,138.5C 196.833,138.5 232.167,138.5 267.5,138.5C 267.667,173.502 267.5,208.502 267,243.5C 225.982,278.128 179.148,289.294 126.5,277C 74.6886,261.18 45.1886,226.347 38,172.5C 34.0238,108.571 61.1904,64.0707 119.5,39C 132.605,34.4912 145.939,31.9912 159.5,31.5 Z"/></g>
<g><path style="opacity:0.97" fill="#fefefe" d="M 400.5,33.5 C 416.503,33.3334 432.503,33.5001 448.5,34C 449,34.5 449.5,35 450,35.5C 484.426,116.023 518.593,196.689 552.5,277.5C 533.488,277.833 514.488,277.5 495.5,276.5C 488.5,259.167 481.5,241.833 474.5,224.5C 440.833,223.167 407.167,223.167 373.5,224.5C 366.26,242.058 358.927,259.558 351.5,277C 333.158,277.833 314.824,277.666 296.5,276.5C 330.825,195.5 365.491,114.5 400.5,33.5 Z M 423.5,101.5 C 434.034,125.588 444.367,149.921 454.5,174.5C 434.175,175.666 413.842,175.833 393.5,175C 403.407,150.442 413.407,125.942 423.5,101.5 Z"/></g>
<g><path style="opacity:0.974" fill="#fefefe" d="M 588.5,36.5 C 631.501,36.3333 674.501,36.5 717.5,37C 737.588,38.6281 754.421,46.7948 768,61.5C 784.278,85.9189 784.612,110.586 769,135.5C 763.736,141.766 757.569,146.933 750.5,151C 788.2,166.91 801.367,194.743 790,234.5C 784.63,247.097 776.13,256.93 764.5,264C 750.758,271.189 736.092,275.523 720.5,277C 676.501,277.5 632.501,277.667 588.5,277.5C 588.5,197.167 588.5,116.833 588.5,36.5 Z M 641.5,83.5 C 660.503,83.3334 679.503,83.5001 698.5,84C 722.694,86.2461 730.86,98.7461 723,121.5C 719.908,125.928 715.741,128.761 710.5,130C 704.254,131.541 697.921,132.541 691.5,133C 674.837,133.5 658.17,133.667 641.5,133.5C 641.5,116.833 641.5,100.167 641.5,83.5 Z M 641.5,178.5 C 664.502,178.333 687.502,178.5 710.5,179C 736.066,181.317 744.566,194.484 736,218.5C 730.219,224.659 723.053,228.159 714.5,229C 690.169,229.5 665.836,229.667 641.5,229.5C 641.5,212.5 641.5,195.5 641.5,178.5 Z"/></g>
<g><path style="opacity:0.968" fill="#fefefe" d="M 811.5,36.5 C 832.503,36.3334 853.503,36.5 874.5,37C 893.459,68.4172 912.292,99.9172 931,131.5C 950.538,100.208 969.705,68.708 988.5,37C 1009.17,36.3333 1029.83,36.3333 1050.5,37C 1019.89,84.382 989.388,131.882 959,179.5C 958.5,212.165 958.333,244.832 958.5,277.5C 940.167,277.5 921.833,277.5 903.5,277.5C 903.667,245.498 903.5,213.498 903,181.5C 871.978,133.448 841.478,85.1146 811.5,36.5 Z"/></g>
<g><path style="opacity:0.855" fill="#fefefe" d="M 130.5,343.5 C 158.502,343.333 186.502,343.5 214.5,344C 220.436,349.64 219.436,353.973 211.5,357C 200.839,357.5 190.172,357.667 179.5,357.5C 179.667,390.168 179.5,422.835 179,455.5C 177.771,461.697 174.271,463.531 168.5,461C 167.299,460.097 166.465,458.931 166,457.5C 165.5,424.168 165.333,390.835 165.5,357.5C 154.46,358.415 143.46,358.248 132.5,357C 124.649,353.236 123.983,348.736 130.5,343.5 Z"/></g>
<g><path style="opacity:0.889" fill="#fefefe" d="M 502.5,343.5 C 530.835,343.333 559.169,343.5 587.5,344C 591.761,348.483 591.428,352.483 586.5,356C 574.91,357.436 563.243,357.936 551.5,357.5C 551.667,391.168 551.5,424.835 551,458.5C 547,463.833 543,463.833 539,458.5C 538.5,424.835 538.333,391.168 538.5,357.5C 531.644,357.356 524.81,357.689 518,358.5C 512.749,358.115 507.582,357.282 502.5,356C 497.217,351.886 497.217,347.719 502.5,343.5 Z"/></g>
<g><path style="opacity:0.92" fill="#fefefe" d="M 952.5,343.5 C 955.862,343.07 958.695,344.07 961,346.5C 961.667,383.833 961.667,421.167 961,458.5C 957.478,463.398 953.478,463.731 949,459.5C 948.333,421.833 948.333,384.167 949,346.5C 950.145,345.364 951.312,344.364 952.5,343.5 Z"/></g>
<g><path style="opacity:0.879" fill="#fdfefd" d="M 790.5,368.5 C 793.652,367.959 796.152,368.959 798,371.5C 802.561,389.876 807.228,408.209 812,426.5C 816.977,408.592 821.644,390.592 826,372.5C 830.098,367.196 834.098,367.196 838,372.5C 837.917,379.261 836.917,385.928 835,392.5C 829.465,414.975 823.465,437.309 817,459.5C 812.044,463.305 808.044,462.305 805,456.5C 798.435,429.743 792.269,402.909 786.5,376C 785.957,372.403 787.291,369.903 790.5,368.5 Z"/></g>
<g><path style="opacity:0.872" fill="#fdfefd" d="M 269.5,369.5 C 292.103,368.638 308.27,378.304 318,398.5C 326.085,426.824 316.918,447.324 290.5,460C 266.326,466.612 247.493,459.445 234,438.5C 222.805,412.771 228.639,391.938 251.5,376C 257.301,372.903 263.301,370.736 269.5,369.5 Z M 267.5,383.5 C 287.06,381.189 300.226,389.189 307,407.5C 309.843,431.821 299.176,445.821 275,449.5C 255.064,447.397 243.897,436.397 241.5,416.5C 242.841,399.515 251.508,388.515 267.5,383.5 Z"/></g>
<g><path style="opacity:0.851" fill="#fefefe" d="M 606.5,369.5 C 612.561,369.887 615.727,373.221 616,379.5C 627.948,370.296 641.114,368.13 655.5,373C 662.692,375.18 668.859,379.013 674,384.5C 677.115,390.712 675.449,394.712 669,396.5C 663.138,392.33 656.971,388.497 650.5,385C 637.599,382.031 626.766,385.531 618,395.5C 617.138,397.087 616.471,398.754 616,400.5C 615.667,419.5 615.333,438.5 615,457.5C 610.667,464.167 606.333,464.167 602,457.5C 601.333,429.833 601.333,402.167 602,374.5C 603.025,372.313 604.525,370.646 606.5,369.5 Z"/></g>
<g><path style="opacity:0.882" fill="#fefefd" d="M 766.5,369.5 C 769.643,370.134 772.143,371.8 774,374.5C 774.983,402.92 774.65,431.253 773,459.5C 767.21,464.212 763.21,462.879 761,455.5C 760.667,453.5 760.333,451.5 760,449.5C 747.178,460.869 732.344,464.369 715.5,460C 689.691,449.218 679.524,430.051 685,402.5C 696.339,375.748 716.172,365.914 744.5,373C 750.219,375.275 755.385,378.442 760,382.5C 760.087,376.993 762.253,372.659 766.5,369.5 Z M 724.5,383.5 C 755.466,385.319 766.966,401.319 759,431.5C 746.009,448.945 729.843,452.778 710.5,443C 695.281,430.153 692.447,414.986 702,397.5C 707.739,389.887 715.239,385.22 724.5,383.5 Z"/></g>
<g><path style="opacity:0.882" fill="#fefefe" d="M 332.5,371.5 C 335.685,371.02 338.519,371.686 341,373.5C 342,376.833 343,380.167 344,383.5C 355.171,373.126 368.338,369.292 383.5,372C 414.387,381.766 425.721,402.432 417.5,434C 404.136,460.005 383.469,468.338 355.5,459C 350.9,456.785 346.734,453.952 343,450.5C 342.667,467.833 342.333,485.167 342,502.5C 337.203,506.802 333.203,506.136 330,500.5C 329.333,458.833 329.333,417.167 330,375.5C 330.662,374.016 331.496,372.683 332.5,371.5 Z M 369.5,384.5 C 389.205,383.595 401.705,392.595 407,411.5C 408.716,430.59 400.549,443.09 382.5,449C 362.925,451.08 349.758,442.914 343,424.5C 340.585,403.654 349.418,390.32 369.5,384.5 Z"/></g>
<g><path style="opacity:0.879" fill="#fdfdfd" d="M 884.5,371.5 C 908.955,370.055 926.289,380.388 936.5,402.5C 912.195,412.101 887.862,421.601 863.5,431C 873.692,446.518 888.026,452.518 906.5,449C 911.322,452.294 911.655,455.96 907.5,460C 884.882,466.352 867.048,459.852 854,440.5C 841.913,414.099 847.747,392.599 871.5,376C 875.945,374.425 880.278,372.925 884.5,371.5 Z M 885.5,384.5 C 899.118,382.648 910.451,386.815 919.5,397C 899.54,402.566 880.04,409.399 861,417.5C 861.701,400.965 869.868,389.965 885.5,384.5 Z"/></g>
</svg>
