<svg xmlns="http://www.w3.org/2000/svg" viewBox="992.68 469.9 3378.32 2912.24"><path d="m1433.5 480.75 5.49 1.984c29.06 10.545 57.87 21.742 86.08 34.402q3.03 1.356 6.06 2.706c29.53 13.194 58.71 27.221 86.87 43.158l3.03 1.708c42.99 24.354 84.99 51.248 123.41 82.417 2.99 2.429 6.03 4.803 9.07 7.166 5.57 4.318 10.89 8.773 16.08 13.545 2.49 2.233 5.05 4.325 7.66 6.414 4.45 3.597 8.65 7.393 12.81 11.313 10.54 10.69 10.54 10.69 23.94 16.437.34-.76.34-.76.69-1.535 6.12-11.52 14.7-21.746 23.31-31.465.8-.918 1.59-1.836 2.41-2.781 4.55-5.188 9.25-9.845 14.59-14.219.5-.42.99-.839 1.51-1.272 10.2-8.618 20.99-15.946 32.49-22.728l2.1-1.238c31.14-18.045 67.9-28.82 103.9-29.762l3.65-.121c34.74-.6 70.89 5.93 101.35 23.121.63.346 1.25.693 1.9 1.05 27.08 15.076 47.43 37.103 64.1 62.95 5.98-.492 10.5-1.786 15.88-4.387a1042 1042 0 0 0 9.12-4.3c14.34-6.792 28.67-13.41 44.19-17.063l2.34-.59c12.31-2.998 24.41-4.07 37.03-4.035l2.26.002c12.09.04 23.54.849 35.18 4.373l2.06.617c23.44 7.315 44.49 21.333 61.94 38.383l2.76 2.57c22.87 21.825 36.49 50.859 43.24 81.43.24 1.056.47 2.111.71 3.199 1.36 7.369 1.64 14.83 1.98 22.301.05 1.033.09 2.065.15 3.129.27 7.523-.12 14.88-.84 22.371l2.95.44c22.45 3.366 44.71 7.215 66.89 12.087 2.16.474 4.33.94 6.5 1.404 47.71 10.251 94.67 23.792 140.66 40.069.82.289 1.63.577 2.47.874 46.73 16.592 92.22 36.231 136.66 58.202 2.96 1.462 5.93 2.91 8.9 4.362a647 647 0 0 1 38.98 20.838c3.17 1.83 6.35 3.643 9.54 5.454 12.27 7.001 24.35 14.202 36.23 21.849q3.3 2.108 6.63 4.161c31.64 19.66 62.22 41.34 91.59 64.26.54.42 1.09.85 1.65 1.28 12.46 9.7 24.75 19.6 36.77 29.84 3.34 2.84 6.72 5.63 10.14 8.38 5.08 4.13 9.88 8.5 14.67 12.94 2.23 2.06 4.48 4.08 6.77 6.06 4.84 4.2 9.55 8.55 14.26 12.9l3.34 3.07c10.54 9.67 20.71 19.68 30.81 29.81 2.61 2.62 5.23 5.23 7.84 7.84 1.69 1.68 3.38 3.37 5.06 5.06 1.16 1.15 1.16 1.15 2.34 2.33 4.11 4.13 8.05 8.35 11.86 12.77 1.7 1.96 3.45 3.85 5.24 5.72.63.66 1.26 1.32 1.9 2 1.28 1.34 2.55 2.67 3.83 4 12.89 13.59 12.89 13.59 12.81 24.23-.4 3.8-1.8 5.92-4.29 8.77-.45.58-.91 1.15-1.37 1.75-4.47 3.44-8.94 3.41-14.29 2.93-6.8-1.97-11.76-7.72-16.71-12.49-5.44-5.2-10.93-10.29-16.63-15.19-.56-.48-1.12-.96-1.7-1.46-1.62-1.39-3.24-2.78-4.86-4.16-3.75-3.2-7.48-6.41-11.19-9.66-6.51-5.7-13.08-11.26-19.92-16.57-3.71-2.87-7.36-5.8-10.99-8.78-9.06-7.46-18.39-14.52-27.82-21.51-2.44-1.8-4.88-3.62-7.31-5.43-32.18-23.91-65.64-46.12-100.21-66.43-.99-.58-1.97-1.16-2.98-1.75-16.14-9.46-32.48-18.52-49.02-27.25-1.13-.6-2.25-1.2-3.42-1.81-73.32-38.8-151.45-68.599-250.41-94.637-2.06-.526-4.13-1.06-6.2-1.598-60.15-15.607-122.05-24.399-183.97-28.955l-2.29-.17c-21.21-1.558-42.45-2.448-63.71-2.83l-3.92-.071c-96.06-1.436-192.47 10.348-385.08 63.071-1.26.435-2.53.869-3.79 1.304-57.31 19.796-113.96 44.656-166.42 75.096-2.95 1.69-5.93 3.34-8.91 4.99-21.09 11.62-41.27 24.46-61.32 37.8-.75.49-1.49.99-2.26 1.5-10.9 7.26-21.64 14.71-32.3 22.31l-2.73 1.94c-10.61 7.53-20.96 15.36-31.18 23.41-1.98 1.56-3.96 3.11-5.95 4.66-9.94 7.77-19.7 15.73-29.31 23.91-3.38 2.87-6.8 5.68-10.27 8.46-5.69 4.62-11.01 9.61-16.36 14.63-2.34 2.19-4.71 4.34-7.14 6.43-9.62 8.32-18.81 17.15-27.69 26.25-2.37 2.31-2.37 2.31-4.74 4.12-2.2 1.83-3.88 3.55-5.72 5.72-2.99 3.49-6.13 6.77-9.38 10-.49.49-.97.97-1.48 1.47-2.02 2.01-4.05 4.01-6.08 6.01-5.88 5.81-11.61 11.68-16.97 17.99-1.5 1.67-2.99 3.34-4.5 5-3.27 3.62-6.5 7.28-9.7 10.96-1.27 1.44-2.55 2.86-3.85 4.27-5.41 5.89-10.37 12.02-15.27 18.33-2.32 3-4.71 5.95-7.12 8.88A847 847 0 0 0 1432 1375q-.84 1.155-1.71 2.34c-7.61 10.44-15.05 20.97-22.29 31.66-.4.59-.81 1.19-1.22 1.8-19.02 28.07-36.75 57.05-52.95 86.84-1.21 2.22-2.43 4.45-3.65 6.67-38.64 70.3-68.58 145.43-128.18 462.69l-.21 4.13c-.81 15.96-.99 31.9-.79 47.87l.03 2.18c1.21 99.3 14.69 197.74 107.97 460.82.52 1.06 1.03 2.12 1.56 3.21 7.15 14.64 14.71 28.95 22.86 43.05 1.55 2.69 3.08 5.4 4.61 8.1 10.63 18.87 22.16 37.05 34.16 55.08.76 1.15.76 1.15 1.54 2.32 6.58 9.88 13.3 19.63 20.27 29.24l1.91 2.64c11.09 15.24 22.71 29.97 34.62 44.56 1.29 1.57 2.56 3.15 3.84 4.73 9.22 11.38 18.87 22.36 28.86 33.08 2.5 2.69 4.95 5.43 7.4 8.18 3.86 4.32 7.93 8.38 12.05 12.45 1.97 2 3.82 4.03 5.63 6.17 6.9 8.05 14.59 15.53 22.67 22.39 2.61 2.33 5.06 4.81 7.52 7.3 3.66 3.7 7.39 7.25 11.35 10.63 2.18 1.9 4.3 3.85 6.42 5.82 5.11 4.73 10.33 9.24 15.76 13.61 3.49 2.87 6.88 5.84 10.28 8.82 6.49 5.66 13.15 11.02 19.97 16.28 1.72 1.34 3.43 2.69 5.15 4.05 50.1 39.7 104.09 74.39 160.57 104.29 1.13.6 2.26 1.2 3.42 1.81 69.4 36.73 143.71 65.25 447.34 125.04 2.17.14 4.35.31 6.52.47 24.87 1.82 49.77 1.89 74.68 1.92l7.82.03c33.48.09 66.83-1.2 100.16-4.46 1.64-.16 1.64-.16 3.32-.32 65.49-6.38 128.29-21.05 190.74-41.49.64-.21 1.28-.42 1.93-.63 29.98-9.83 59.23-21.61 88.07-34.37 1.01-.45 2.02-.89 3.06-1.35 28.94-12.88 57.8-26.87 85.1-42.98 2.64-1.56 5.3-3.09 7.96-4.63 37.56-21.63 73.36-45.85 107.88-72.04.56-.42 1.12-.85 1.7-1.28 12.2-9.25 24.08-18.91 35.72-28.84 3.28-2.79 6.6-5.51 9.96-8.19 5.27-4.29 10.21-8.88 15.14-13.55 3.78-3.58 7.63-7.05 11.56-10.46 11.83-10.33 22.87-21.53 33.98-32.62.69-.68 1.37-1.36 2.08-2.06 9.46-9.39 9.46-9.39 18.39-19.28 2.71-3.17 5.61-6.18 8.47-9.22 4.77-5.09 9.47-10.2 14-15.5.92-1.07 1.84-2.14 2.77-3.2 6.19-7.18 12.26-14.44 18.23-21.8l3.13-3.82c6.03-7.36 11.96-14.77 17.59-22.44 1.49-2.03 2.99-4.05 4.49-6.07 3.02-4.09 6.03-8.19 9.04-12.29q2.385-3.24 4.8-6.48c15.84-21.42 30.2-44.09 43.95-66.9.51-.84 1.02-1.68 1.54-2.55 38.24-63.3 68.73-130.46 92.46-200.45.39-1.16.79-2.31 1.19-3.5 11.4-33.67 20.37-68.11 27.99-102.81.67-3.01 1.36-6.02 2.06-9.03.9-3.69.9-3.69.76-7.66-.64.07-1.28.13-1.93.2l-46.73 4.83-22.6 2.34-19.71 2.04-10.43 1.08-11.67 1.2c-1.7.18-1.7.18-3.44.36-42.9 4.41-42.9 4.41-56.36-5.17-6.55-5.65-10.62-12.24-13.69-20.25-1.41-3.5-2.35-5.53-4.94-8.32-11.28-4.23-26.17-2.74-38.12-3.19l-6.52-.24c-4.66-.18-9.33-.36-14-.53-7.48-.28-14.96-.56-22.44-.85l-31.76-1.2c-.67-.03-1.34-.05-2.03-.08-8.7-.33-17.4-.65-26.1-.98-107.69-4.05-107.69-4.05-155.95-6.34-2.7-.13-5.41-.26-8.11-.38l-12.41-.6c-1.49-.07-2.97-.15-4.46-.22-2.01-.09-4.01-.19-6.02-.29-1.11-.06-2.22-.11-3.37-.17-3.43-.26-6.8-.72-10.21-1.24v-5c6.99-2.75 14.11-4.93 21.31-7.06 1.16-.35 2.32-.7 3.52-1.07 1.14-.34 2.29-.68 3.47-1.03 1.02-.31 2.05-.61 3.1-.93 10.28-2.61 20.45-3.39 31.01-3.83 1.65-.08 3.3-.15 4.95-.23 4.5-.2 9.01-.4 13.52-.59 2.88-.12 5.76-.25 8.64-.38 48.34-2.14 96.7-3.91 145.06-5.68 19.21-.7 38.42-1.41 57.64-2.12 6.69-.24 13.38-.49 20.07-.73 4.13-.15 8.27-.31 12.4-.46l5.67-.21c9.36-.33 18.71-.7 28.07-1.15.78-.04 1.56-.07 2.37-.11 10.11-.51 17.62-3.82 26.33-8.73.94-.53 1.89-1.05 2.86-1.59 7.95-4.44 15.81-9.04 23.66-13.66 8.95-5.25 18-10.29 27.09-15.29 11.29-5.65 11.29-5.65 21.26-13.15-3.42-1.71-7.32-1.65-11.09-2.02-.96-.1-1.91-.2-2.9-.3l-9.71-.99c-2.32-.23-4.64-.47-6.95-.71l-17.13-1.74c-6.82-.69-13.65-1.38-20.47-2.08l-37.23-3.78-34.83-3.54c-1.4-.14-2.79-.29-4.19-.43-.69-.07-1.38-.14-2.09-.21l-2.1-.21c-1.03-.11-1.03-.11-2.09-.22-37.06-3.77-74.13-7.52-111.19-11.26-4.24-.43-8.47-.86-12.7-1.28-85.54-8.64-171.09-17.15-256.66-25.39-12.54-1.2-25.07-2.41-37.6-3.62-3.12-.31-6.23-.61-9.34-.91l-24.88-2.4c-24.38-2.36-48.75-4.7-73.13-7.02-17.96-1.72-35.92-3.45-53.88-5.2-10.9-1.06-21.81-2.1-32.71-3.13q-11.025-1.05-22.05-2.13c-4.22-.42-8.44-.82-12.66-1.21-3.85-.36-7.71-.73-11.56-1.12-1.39-.14-2.79-.27-4.18-.4-11.7-1.03-11.7-1.03-14.88-4.12-.6-.85-1.19-1.7-1.8-2.58-.83-1.03-1.66-2.05-2.52-3.11-6.05-7.97-11.86-16.12-17.56-24.34l-2.34-3.33c-1.11-1.56-2.2-3.14-3.28-4.73-.64-.91-1.27-1.83-1.93-2.77-1.61-3.2-1.79-5.18-1.37-8.72 3.93-4.97 8.3-7.38 14.42-8.79 5.98-.66 11.38 1.38 17.02 3.17 1.18.35 2.36.72 3.57 1.09 8.13 2.52 16.13 5.33 24.12 8.28 26.76 9.85 53.03 10.58 81.23 10.82 3.49.03 6.98.07 10.47.11 11.72.12 23.45.22 35.17.32 1.65.01 3.3.03 4.95.04 21.23.17 42.46.3 63.7.42l25.86.15 46.47.27c1.36 0 1.36 0 2.76.01l11.08.06c31.71.18 63.42.36 95.13.55l2.65.02c85.25.5 170.49 1.28 257.93 2.65 73.04 1.14 145.99 1.51 218.99-1.67 2.88-.13 5.77-.25 8.65-.37 45.5-1.95 90.99-4.17 136.47-6.37l21.18-1.02c.77-.04 1.54-.08 2.34-.11 31.11-1.51 62.22-2.97 93.34-4.38 1.68-.08 1.68-.08 3.39-.15 32.33-1.47 64.65-2.87 96.98-4.12 2.15-.08 4.3-.16 6.45-.25 2.54-.1 5.08-.19 7.62-.29 13.73 0 13.73 0 27.06-2.44-4.16-.95-8.3-1.32-12.54-1.6-.75-.05-1.5-.1-2.28-.16-2.51-.17-5.02-.35-7.53-.52-1.8-.12-3.6-.25-5.41-.37-3.87-.27-7.75-.54-11.63-.8-6.12-.42-12.25-.85-18.37-1.28-17.42-1.21-34.84-2.42-52.25-3.62-9.63-.66-19.25-1.33-28.87-2.01l-18.28-1.26c-3.78-.25-7.57-.52-11.35-.79l-5.28-.36c-2.39-.16-4.78-.33-7.18-.5-.7-.05-1.41-.09-2.14-.14-1.63-.12-3.26-.35-4.89-.59l-1-2c15.89-10.14 32.02-19.72 48.44-28.98 5.28-2.99 10.55-6.01 15.81-9.02 2.92-1.67 5.83-3.33 8.75-5 1.17-.67 2.33-1.33 3.5-2l8.75-5c1.17-.67 2.33-1.33 3.5-2 2.91-1.67 5.83-3.33 8.74-5 5.28-3.01 10.56-6.03 15.84-9.05 2.95-1.69 5.9-3.38 8.86-5.07a2420 2420 0 0 1 26.56-15c9.14-5.1 18.2-10.33 27.23-15.63 8.16-4.78 16.4-9.4 24.66-14 7.17-4 14.28-8.09 21.36-12.25 9.15-5.37 18.37-10.59 27.64-15.75 7.17-4 14.28-8.09 21.36-12.25 9.15-5.37 18.37-10.59 27.64-15.75 7.17-4 14.28-8.09 21.36-12.25 9.15-5.37 18.37-10.59 27.64-15.75 7.17-4 14.28-8.09 21.36-12.25 9.15-5.37 18.37-10.59 27.64-15.75 8.17-4.56 16.25-9.25 24.31-13.98 8.38-4.91 16.84-9.67 25.33-14.39.96-.54 1.93-1.07 2.92-1.63.95-.53 1.91-1.05 2.89-1.6 3.06-1.74 6.09-3.54 9.11-5.35 4.66-2.73 9.19-4.91 14.3-6.61.66-.24 1.31-.48 1.99-.72 9.82-3.39 19.93-4.33 30.26-4.34.94-.03 1.87-.05 2.84-.08 23.34-.09 47.05 7.05 69.69 12.17 4.53 1.02 9.07 2.03 13.6 3.04 3.55.78 7.1 1.58 10.65 2.38 1.67.38 3.34.75 5.01 1.12 19.85 4.39 39.17 10.26 51.09 27.87 8.92 14.67 12.68 31.12 8.62 48-5.17 16.9-17.3 29.24-29.57 41.42-1.06 1.06-2.13 2.13-3.2 3.19-2.21 2.22-4.43 4.43-6.66 6.64-2.82 2.81-5.64 5.63-8.46 8.45-2.2 2.19-4.4 4.39-6.59 6.58-1.05 1.03-2.09 2.07-3.13 3.11-5.71 5.7-11.51 11.23-17.64 16.48-1.34 1.23-2.68 2.47-4 3.72-.66.62-1.32 1.24-2 1.89-.66.62-1.32 1.25-2 1.89-5.23 4.96-10.55 9.79-16 14.5-.57.49-1.13.99-1.72 1.5a516 516 0 0 1-22.73 18.72c-2.41 1.88-4.8 3.78-7.17 5.71-9.17 7.47-18.62 14.39-28.38 21.07-.79.54-1.58 1.09-2.4 1.65-21.36 14.64-43.75 27.54-66.26 40.31-4.16 2.37-8.31 4.74-12.46 7.11-13.24 7.6-26.53 15.12-39.86 22.56-8.75 4.89-17.47 9.83-26.2 14.77-2.79 1.58-5.59 3.16-8.39 4.74-11.05 6.24-22.08 12.51-33.09 18.82-8.34 4.77-16.7 9.49-25.09 14.17-8.14 4.53-16.22 9.15-24.25 13.87-9.06 5.32-18.19 10.5-27.37 15.61-7.84 4.38-15.65 8.8-23.44 13.27l-1.76 1c-4.15 2.37-8.29 4.75-12.43 7.12-14.59 8.36-29.19 16.7-43.87 24.89-8.37 4.68-16.71 9.39-25.05 14.11-.9.51-1.8 1.02-2.73 1.55-1.19.68-1.19.68-2.41 1.36-1.3.73-2.61 1.43-3.94 2.09-.46 2.89-.78 5.71-1.04 8.62-.19 1.88-.37 3.76-.56 5.64-.09 1-.19 2-.29 3.04-9.7 101.07-31.54 200.48-132.11 459.7-.78 1.6-.78 1.6-1.58 3.23-6.62 13.5-13.54 26.8-20.85 39.94-1.62 2.92-3.23 5.85-4.84 8.78-8.2 14.85-16.9 29.36-25.76 43.82-2.34 3.83-4.63 7.68-6.92 11.53a468 468 0 0 1-15.66 24.64c-1.56 2.31-3.1 4.63-4.63 6.95a1331 1331 0 0 1-26.38 38.39c-8.85 12.45-18.08 24.61-27.38 36.72-.95 1.24-1.9 2.48-2.85 3.73-2.37 3.1-4.76 6.18-7.15 9.27-.43.56-.86 1.11-1.31 1.69a592 592 0 0 1-18.08 22.23c-2.39 2.81-4.72 5.65-7.05 8.52a644 644 0 0 1-24.33 28.12c-1.92 2.1-3.8 4.23-5.67 6.38-4.26 4.9-8.68 9.67-13.08 14.45-1.47 1.6-2.94 3.21-4.4 4.81a489 489 0 0 1-17.58 18.28c-2.78 2.76-5.46 5.53-8 8.52-6.73 7.91-14.29 15.22-22.21 21.93-3.39 3.06-6.57 6.32-9.79 9.57-4.31 4.35-8.6 8.62-13.28 12.57-3.32 2.89-6.51 5.92-9.72 8.93-5.09 4.77-10.2 9.47-15.5 14-1.03.89-2.07 1.77-3.1 2.66-2.39 2.06-4.79 4.11-7.19 6.16-2.42 2.07-4.83 4.15-7.23 6.23-6.34 5.49-12.76 10.81-19.38 15.95-3.7 2.88-7.33 5.84-10.91 8.88-6.76 5.66-13.77 10.98-20.8 16.3-2.52 1.92-5.04 3.85-7.55 5.79-10.12 7.77-20.34 15.34-30.82 22.62-1.98 1.38-3.94 2.78-5.9 4.18-45.19 32.34-93.02 61.26-142.12 87.23l-2.92 1.55c-6.67 3.53-13.37 7.01-20.08 10.45-1.05.54-2.11 1.08-3.19 1.64-19.01 9.72-38.29 18.73-57.81 27.36-1.05.47-1.05.47-2.12.94-62.16 27.49-126.49 49.84-192.15 67.33-2.63.7-5.25 1.41-7.88 2.12-94.34 25.25-192.17 41.16-329.85 47.61l-2.47.03c-102.48 1.34-204.29-9.21-383.53-55.03-.8-.25-1.6-.49-2.43-.75-52.35-16.2-103.8-35.81-153.13-59.75-1.54-.74-1.54-.74-3.11-1.5-2.23-1.08-4.47-2.17-6.7-3.25-3.22-1.55-6.44-3.09-9.67-4.62-15.08-7.18-29.91-14.54-44.37-22.93-6.07-3.51-12.27-6.79-18.46-10.07-25.64-13.68-50.15-29.35-74.29-45.48-2.47-1.65-4.94-3.3-7.41-4.94-10.6-7.06-21.06-14.31-31.43-21.71-.9-.64-1.81-1.29-2.74-1.95-10.27-7.32-20.36-14.86-30.34-22.57-1.76-1.36-3.54-2.71-5.31-4.06-6.63-5.06-13.13-10.25-19.58-15.52-4.42-3.62-8.9-7.15-13.4-10.65-4.93-3.84-9.62-7.85-14.22-12.08-2.51-2.26-5.09-4.37-7.72-6.48-5.46-4.41-10.57-9.13-15.7-13.92q-3.435-3.195-6.99-6.27c-4.54-3.93-8.93-8.01-13.32-12.09-2.28-2.11-4.56-4.22-6.85-6.32-10.74-9.88-21.07-20.17-31.38-30.51-2.47-2.48-4.96-4.96-7.44-7.44-2.41-2.4-4.82-4.82-7.23-7.23-1.32-1.31-1.32-1.31-2.66-2.65-4.38-4.4-8.61-8.86-12.66-13.56-1.74-2.03-3.56-3.98-5.4-5.92l-2.02-2.14c-.67-.7-1.35-1.41-2.04-2.14-4.59-4.82-9.09-9.69-13.45-14.72-1.94-2.23-3.93-4.41-5.92-6.59-3.88-4.3-7.55-8.72-11.19-13.22-2.72-3.31-5.51-6.54-8.31-9.78-4.52-5.22-8.83-10.56-13.06-16.01-3.07-3.95-6.25-7.77-9.51-11.55-6.22-7.27-11.89-14.93-17.56-22.63-1.13-1.53-2.25-3.05-3.38-4.57-2.37-3.22-4.74-6.43-7.1-9.65a508 508 0 0 0-6.61-8.84c-11.43-15.08-21.71-30.96-32.14-46.74-2.65-4.01-5.31-8.01-7.99-12-5.55-8.27-10.97-16.56-16.03-25.14-.62-1.03-1.23-2.07-1.87-3.14-1.3-2.18-2.59-4.37-3.89-6.56-1.69-2.86-3.4-5.72-5.1-8.58-7.4-12.37-14.73-24.77-21.62-37.44-1.4-2.59-2.82-5.17-4.24-7.75-41.49-75.89-75.36-155.19-157.28-518.78l-.234-2.65A946 946 0 0 1 995 2162l-.129-1.95c-1.792-27.41-2.238-54.77-2.189-82.23.006-3.25.008-6.5.011-9.74.035-29.86.268-59.6 3.054-89.34.269-2.91.522-5.82.773-8.73 8.44-97.21 27.64-192.96 102.48-404.74 1.36-3.09 2.72-6.19 4.07-9.29 1.31-3 2.62-5.99 3.93-8.98-.76-.29-1.51-.59-2.29-.89-14.37-5.9-27.18-16.62-38.46-27.05-1.99-1.82-4.04-3.53-6.12-5.25-9.92-8.67-18.14-19.72-25.13-30.81-.37-.59-.74-1.18-1.13-1.79-15.64-25.21-22.1-53.59-22.12-83.02v-2.22c.05-34.16 9.68-64.89 32.25-90.97.43-.49.85-.99 1.29-1.49 16.64-19.09 36.52-32.27 58.48-44.62 5.62-3.19 10.48-6.49 15.23-10.89-1.28-6.23-2.94-12.25-4.82-18.33-3.94-12.76-7.22-25.45-9.18-38.67-.1-.66-.2-1.33-.31-2.01-6.72-50.52 9.38-99.88 39.92-139.93 36.56-46.65 90.38-77.601 149.39-85.06 8.09-.961 16.18-1.314 24.32-1.605l2.83-.114 2.53-.092c2.24-.183 4.2-.456 6.32-1.189 5.68-11.368-2.36-37.551-3.84-49.593-4.5-36.943-6.71-73.716-6.55-110.934.02-2.845.02-5.69.03-8.535.06-26.885.39-53.659 3.11-80.429.26-2.643.52-5.288.77-7.933 5.6-58.103 16-115.281 29.84-171.957.61-2.487 1.21-4.974 1.81-7.461 10.52-43.219 10.52-43.219 21.91-50.486 17.7-9.327 39.18.789 56.42 7.078m-18.02 63.755c-2.04 3.428-2.92 7.022-3.87 10.858-.32 1.254-.32 1.254-.64 2.533-2.52 10.041-4.68 20.157-6.78 30.292-.32 1.536-.32 1.536-.65 3.104-9.48 45.802-16.6 92.132-20.23 138.777q-.3 3.8-.63 7.596c-7.08 83.149-.3 168.808 62.32 366.335 4.08 0 5.74-2.1 8.63-4.69 5.05-4.4 10.22-8.58 15.56-12.62 5.18-3.92 10.34-7.87 15.45-11.88 9.97-7.81 20.09-15.4 30.36-22.81.71-.51 1.42-1.03 2.15-1.56 52.68-37.83 108.29-71.154 166.07-100.535 1.76-.895 3.52-1.794 5.27-2.694 52.21-26.688 106.71-48.051 162.21-66.797.69-.231 1.37-.463 2.07-.702 3.06-1.024 6.09-2.002 9.23-2.712-1.49-5.448-4.09-9.684-7.12-14.375-.53-.816-1.05-1.632-1.59-2.472-22.81-35.472-46.95-70.344-75.68-101.325-2.36-2.56-4.68-5.155-6.98-7.765-8-8.897-16.49-17.351-25.63-25.063-1.04-.899-2.07-1.798-3.11-2.699a498 498 0 0 0-22.83-18.714c-1.47-1.136-2.95-2.275-4.42-3.416-11.55-8.965-23.28-17.532-35.43-25.68-2.8-1.891-5.58-3.817-8.36-5.745-8.82-6.117-17.79-11.986-26.85-17.746-.88-.562-1.76-1.124-2.67-1.703-15.53-9.877-31.32-19.23-47.33-28.297-.83-.473-1.66-.946-2.52-1.433-10.9-6.179-21.98-12.006-33.1-17.766-3.08-1.597-6.15-3.208-9.19-4.883-12.14-6.671-24.76-12.334-37.35-18.076-1.78-.816-3.57-1.636-5.35-2.457-19.91-9.154-40.11-17.501-60.48-25.585-1.87-.743-3.73-1.491-5.6-2.238q-4.41-1.767-8.85-3.499c-.81-.324-1.62-.648-2.45-.982-7.08-2.995-7.08-2.995-13.63-.576M1893 702c-.74.674-1.48 1.348-2.24 2.043-11.55 10.935-27.97 30.307-28.76 46.957l-.16 1.977c.23 15.083 13.84 30.93 21.43 43.289 4.56 7.42 9.01 14.904 13.44 22.402 10.92 18.858 10.92 18.858 22.92 37.023.44.622.89 1.244 1.35 1.885.34.47.67.94 1.02 1.424l2.94-.693 8.91-2.095c3.43-.807 6.86-1.617 10.3-2.428 60.68-14.324 121.7-25.269 183.85-30.784 1.62-6.833 1.24-13.892 1.25-20.875v-2.31c-.02-13.131-.8-25.887-3.25-38.815-.17-.889-.33-1.779-.5-2.695-4.84-24.841-14.87-45.239-32.5-63.305l-1.76-1.949c-20.15-21.775-53.01-32.761-81.88-34.181-42.69-1.477-85.16 13.657-116.36 43.13m302.13 45.066c-6.88 9.21-7.58 20.584-7.64 31.7l-.06 3.513c-.05 3.657-.08 7.314-.12 10.971-.03 2.499-.07 4.997-.1 7.496q-.12 9.127-.21 18.254l3.1-.02c87.66-.553 87.66-.553 118.65 1.395 1.01.063 2.02.126 3.05.192 8.47.548 16.92 1.224 25.36 1.981l3.12.279q2.94.265 5.88.544c5.64.518 11.18.712 16.84.629.8-31.628-6.77-57.935-28.92-81.372-14.85-15.226-33.55-25.35-55.08-26.628l-2.11-.16c-26.61-1.056-63.76 11.315-81.76 31.226M1201.5 1078.35c-17.21 18.91-27.95 41.87-33.5 66.65-.25 1-.49 1.99-.75 3.02-5.68 26.75.54 54.99 14.75 77.98 5.38 7.88 11.42 15.1 18 22 .54.57 1.08 1.13 1.63 1.72 17.16 17.9 37.19 33.06 59.37 44.28h2c1.72-2.03 3.34-4.07 4.94-6.19 3.79-4.93 7.64-9.77 11.69-14.5 3.31-3.88 6.59-7.78 9.81-11.75 8.84-10.84 18.05-21.3 27.56-31.56 1.82-1.98 3.63-3.96 5.44-5.94 4.35-4.75 8.71-9.49 13.09-14.21 2.37-2.57 4.74-5.14 7.08-7.74 5.54-6.14 11.24-12.07 17.08-17.92.7-.71 1.4-1.41 2.12-2.14 3.28-3.27 6.6-6.44 10.11-9.46 4.8-4.14 9.2-8.64 13.64-13.15 5.31-5.39 10.61-10.61 16.44-15.44a828 828 0 0 0-17.96-39.58c-3.99-8.21-7.89-16.46-11.73-24.73-.54-1.16-1.08-2.32-1.63-3.52-2.55-5.49-5.06-11-7.51-16.54-.44-1-.88-1.99-1.34-3.02-.81-1.83-1.62-3.67-2.41-5.51-4.09-9.24-10.24-18.67-19.65-23.17-49.27-17.55-105.8 15.91-138.27 50.42m-70.31 236.28c-.96.52-1.92 1.05-2.9 1.6-24.67 13.86-43.9 32.29-52.29 60.07-6.61 25.4-2.26 50.34 10.9 72.82 3.26 5.35 7.01 10.15 11.1 14.88.9 1.12.9 1.12 1.82 2.26 9.33 11.2 21.68 18.58 34.18 25.74 4.13-4.6 6.62-9.84 9.38-15.31 5.84-11.39 12.18-22.42 18.7-33.43 2.04-3.46 4.05-6.93 6.06-10.41 7.77-13.43 15.78-26.6 24.35-39.53 3.41-5.14 6.69-10.34 9.95-15.57 3.67-5.86 7.46-11.56 11.6-17.11 2.39-3.23 4.68-6.52 6.96-9.83.6-.86.6-.86 1.21-1.75.93-1.35 1.86-2.71 2.79-4.06-1.46-4.7-5.4-6.23-9.44-8.44-6.7-3.79-13.11-7.86-19.43-12.25-.81-.55-1.62-1.11-2.45-1.68l-4.62-3.21c-21.26-14.7-35.03-17.46-57.87-4.79" fill="#DF3C90"/><path d="M3984.75 1694.63c.94-.03 1.87-.05 2.84-.08 23.34-.09 47.05 7.05 69.69 12.17 4.53 1.02 9.07 2.03 13.6 3.04 3.55.78 7.1 1.58 10.65 2.38 1.67.38 3.34.75 5.01 1.12 19.85 4.39 39.17 10.26 51.09 27.87 8.92 14.67 12.68 31.12 8.62 48-5.17 16.9-17.3 29.24-29.57 41.42-1.06 1.06-2.13 2.13-3.2 3.19-2.21 2.22-4.43 4.43-6.66 6.64-2.82 2.81-5.64 5.63-8.46 8.45-2.2 2.19-4.4 4.39-6.59 6.58-1.05 1.03-2.09 2.07-3.13 3.11-5.71 5.7-11.51 11.23-17.64 16.48-1.34 1.23-2.68 2.47-4 3.72-.66.62-1.32 1.24-2 1.89-.66.62-1.32 1.25-2 1.89-5.23 4.96-10.55 9.79-16 14.5l-1.72 1.5a516 516 0 0 1-22.73 18.72c-2.41 1.88-4.8 3.78-7.17 5.71-9.17 7.47-18.62 14.39-28.38 21.07-.79.54-1.58 1.09-2.4 1.65-21.36 14.64-43.75 27.54-66.26 40.31-4.16 2.37-8.31 4.74-12.46 7.11-13.24 7.6-26.53 15.12-39.86 22.56-8.75 4.89-17.47 9.83-26.2 14.77-2.79 1.58-5.59 3.16-8.39 4.74-11.05 6.24-22.08 12.51-33.09 18.82-8.34 4.77-16.7 9.49-25.09 14.17-8.14 4.53-16.22 9.15-24.25 13.87-9.06 5.32-18.19 10.5-27.37 15.61-7.84 4.38-15.65 8.8-23.44 13.27l-1.76 1c-4.15 2.37-8.29 4.75-12.43 7.12-14.6 8.37-29.2 16.71-43.9 24.91-5.08 2.83-10.15 5.68-15.21 8.57-8.84 5.05-17.67 10.04-26.83 14.49-5.78 2.84-11.42 5.92-17.06 9.03-8.9 4.89-17.83 9.63-27 14-.72.35-1.45.69-2.19 1.05-14.58 6.92-29.6 12.56-44.81 17.95-.87.31-1.75.62-2.65.94-16.99 5.99-34.21 10.14-51.85 13.69-1.09.21-1.09.21-2.19.44-18.18 3.65-36.3 6.28-54.77 7.95-5.67.51-11.35 1.05-17.02 1.59-1.18.11-2.37.22-3.58.33-19.26 1.83-38.48 3.98-57.7 6.07-6.38.69-12.76 1.36-19.14 2-.71.07-1.42.15-2.16.22-3.1.31-6.2.62-9.3.92-1.02.1-2.03.2-3.07.31-.85.08-1.7.16-2.57.25-2.07.19-2.07.19-4 1.29-1.64.24-3.29.44-4.94.61-1.05.11-2.09.22-3.17.33-1.15.11-2.31.23-3.49.35-1.21.13-2.42.25-3.67.38-3.33.34-6.65.69-9.98 1.02l-10.47 1.08-17.6 1.8c-7.51.77-15.01 1.54-22.51 2.32-6.48.66-12.95 1.33-19.43 1.99-2.06.21-4.13.42-6.2.64-3.88.4-7.76.79-11.64 1.19-1.14.11-2.27.23-3.43.35-42.92 4.37-42.92 4.37-56.34-5.18-6.55-5.65-10.62-12.24-13.69-20.25-1.41-3.5-2.35-5.53-4.94-8.32-11.28-4.23-26.17-2.74-38.12-3.19l-6.52-.24c-4.66-.18-9.33-.36-14-.53-7.48-.28-14.96-.56-22.44-.85l-31.76-1.2c-.67-.03-1.34-.05-2.03-.08-8.7-.33-17.4-.65-26.1-.98-107.69-4.05-107.69-4.05-155.95-6.34-2.7-.13-5.41-.26-8.11-.38l-12.41-.6c-1.49-.07-2.97-.15-4.46-.22-2.01-.09-4.01-.19-6.02-.29-1.11-.06-2.22-.11-3.37-.17-3.43-.26-6.8-.72-10.21-1.24v-5c6.99-2.75 14.11-4.93 21.31-7.06 1.74-.53 1.74-.53 3.52-1.07 1.14-.34 2.29-.68 3.47-1.03 1.54-.46 1.54-.46 3.1-.93 10.28-2.61 20.45-3.39 31.01-3.83 1.65-.08 3.3-.15 4.95-.23 4.5-.2 9.01-.4 13.52-.59 2.88-.12 5.76-.25 8.64-.38 48.34-2.14 96.7-3.91 145.06-5.68 19.21-.7 38.42-1.41 57.64-2.12 6.69-.24 13.38-.49 20.07-.73 4.13-.15 8.27-.31 12.4-.46l5.67-.21c9.36-.33 18.71-.7 28.07-1.15.78-.04 1.56-.07 2.37-.11 10.11-.51 17.62-3.81 26.33-8.73.94-.53 1.89-1.05 2.86-1.59 7.95-4.44 15.81-9.04 23.66-13.66 8.95-5.25 18-10.29 27.09-15.29 11.29-5.65 11.29-5.65 21.26-13.15-3.42-1.71-7.32-1.65-11.09-2.02-.96-.1-1.91-.2-2.9-.3l-9.71-.99c-2.32-.23-4.64-.47-6.95-.71l-17.13-1.74c-6.82-.69-13.65-1.38-20.47-2.08l-37.23-3.78-34.83-3.54c-1.4-.14-2.79-.29-4.19-.43-.69-.07-1.38-.14-2.09-.21l-2.1-.21c-.69-.08-1.38-.15-2.09-.22-37.06-3.77-74.13-7.52-111.19-11.26-4.24-.43-8.47-.86-12.7-1.28-85.54-8.64-171.09-17.15-256.66-25.39-12.54-1.2-25.07-2.41-37.6-3.62-3.12-.31-6.23-.61-9.34-.91l-24.88-2.4c-24.38-2.36-48.75-4.7-73.13-7.02-17.96-1.72-35.92-3.45-53.88-5.2-10.9-1.06-21.81-2.1-32.71-3.13q-11.025-1.05-22.05-2.13c-4.22-.42-8.44-.82-12.66-1.21-3.85-.36-7.71-.73-11.56-1.12-1.39-.14-2.79-.27-4.18-.4-11.7-1.03-11.7-1.03-14.88-4.12-.6-.85-1.19-1.7-1.8-2.58-.83-1.03-1.66-2.05-2.52-3.11-6.05-7.97-11.86-16.12-17.56-24.34l-2.34-3.33c-1.11-1.56-2.2-3.14-3.28-4.73-.64-.91-1.27-1.83-1.93-2.77-1.61-3.2-1.79-5.18-1.37-8.72 3.93-4.97 8.3-7.38 14.42-8.79 5.98-.66 11.38 1.38 17.02 3.17 1.18.35 2.36.72 3.57 1.09 8.13 2.52 16.13 5.33 24.12 8.28 26.76 9.85 53.03 10.58 81.23 10.82 3.49.03 6.98.07 10.47.11 11.72.12 23.45.22 35.17.32 1.65.01 3.3.03 4.95.04 21.23.17 42.46.3 63.7.42l25.86.15 46.47.27c1.36 0 1.36 0 2.76.01l11.08.06c31.71.18 63.42.36 95.13.55.87.01 1.75.01 2.65.02 85.25.5 170.49 1.28 257.93 2.65 73.04 1.14 145.99 1.51 218.99-1.67 2.88-.13 5.77-.25 8.65-.37 45.5-1.95 90.99-4.17 136.47-6.37l21.18-1.02c.77-.04 1.54-.08 2.34-.11 31.11-1.51 62.22-2.97 93.34-4.38l3.39-.15c32.33-1.47 64.65-2.87 96.98-4.12 2.15-.08 4.3-.16 6.45-.25 2.54-.1 5.08-.19 7.62-.29 13.73 0 13.73 0 27.06-2.44-4.16-.95-8.3-1.32-12.54-1.6-.75-.05-1.5-.1-2.28-.16-2.51-.17-5.02-.35-7.53-.52-1.8-.12-3.6-.25-5.41-.37-3.87-.27-7.75-.54-11.63-.8-6.12-.42-12.25-.85-18.37-1.28-17.42-1.21-34.84-2.42-52.25-3.62-9.63-.66-19.25-1.33-28.87-2.01l-18.28-1.26c-3.78-.25-7.57-.52-11.35-.79l-5.28-.36c-2.39-.16-4.78-.33-7.18-.5-.7-.05-1.41-.09-2.13-.14-1.64-.12-3.27-.35-4.9-.59l-1-2c15.89-10.14 32.02-19.72 48.44-28.98 5.28-2.99 10.55-6.01 15.81-9.02 2.92-1.67 5.83-3.33 8.75-5 1.17-.67 2.33-1.33 3.5-2l8.75-5c1.17-.67 2.33-1.33 3.5-2 2.91-1.67 5.83-3.33 8.74-5 5.28-3.01 10.56-6.03 15.84-9.05 2.95-1.69 5.9-3.38 8.86-5.07a2420 2420 0 0 1 26.56-15c9.14-5.1 18.2-10.33 27.23-15.63 8.16-4.78 16.4-9.4 24.66-14 7.17-4 14.28-8.09 21.36-12.25 9.15-5.37 18.37-10.59 27.64-15.75 7.17-4 14.28-8.09 21.36-12.25 9.15-5.37 18.37-10.59 27.64-15.75 7.17-4 14.28-8.09 21.36-12.25 9.15-5.37 18.37-10.59 27.64-15.75 7.17-4 14.28-8.09 21.36-12.25 9.15-5.37 18.37-10.59 27.64-15.75 8.17-4.56 16.25-9.25 24.31-13.98 8.38-4.91 16.84-9.67 25.33-14.39.96-.54 1.93-1.07 2.92-1.63.96-.53 1.91-1.05 2.89-1.6 3.06-1.74 6.09-3.54 9.11-5.35 4.66-2.73 9.19-4.91 14.3-6.61.66-.24 1.31-.48 1.99-.72 9.82-3.39 19.93-4.33 30.26-4.34" fill="#10486F"/><path d="M1613 694c1.02.093 2.04.186 3.1.281 22.85 2.679 42.2 12.301 57.51 29.664 4.16 5.325 7.31 11.06 10.39 17.055.71 1.321.71 1.321 1.43 2.668 17.14 34.341 12.11 77.793.56 112.937-8.5 24.888-18.73 52.128-35.99 72.395l-1.88 2.223c-10.78 11.697-27.62 19.605-43.48 20.982-2.53.1-5.05.124-7.58.108l-2.87-.018c-28.02-.46-56.86-5.681-83.19-15.295-.81-.291-1.61-.582-2.44-.882-21.9-8.007-40.6-19.031-57.56-35.118l-2.79-2.625c-16.95-16.417-28.06-36.997-28.45-60.947-.08-21.068 6.15-41.612 20.89-57.268 8.35-7.677 17.51-12.783 28.35-16.16 1.12-.35 1.12-.35 2.25-.707 13.47-3.552 27.71-2.19 41.38-.855 2.39.223 4.79.444 7.19.662 1.48.135 2.95.274 4.42.417 3.94.372 7.81.551 11.76.483.24-.598.47-1.197.71-1.813 11.88-29.97 11.88-29.97 22.29-42.187.59-.737 1.19-1.475 1.8-2.234 12.72-15.247 31.92-25.631 52.2-23.766" fill="#E03C91"/><path d="M4320 2007c3.97 1.79 7.44 4.28 11 6.75.69.48 1.38.95 2.09 1.45 2.31 1.59 4.61 3.2 6.91 4.8.83.58 1.67 1.16 2.53 1.76 5.09 3.54 10.17 7.1 15.24 10.67 1.4.98 2.79 1.96 4.19 2.94 1.6 1.12 3.19 2.25 4.79 3.38.84.59 1.68 1.19 2.55 1.8.56.48 1.12.96 1.7 1.45v2c-25.23 9.85-50.46 19.65-75.93 28.88-10.37 3.78-20.71 7.68-30.9 11.96-21.1 8.85-42.3 12.15-65.01 14.1-12.22 1.04-24.42 2.2-36.63 3.35a19737 19737 0 0 0-52.4 5.01 42459 42459 0 0 1-169.01 16.03c-8.18.77-16.35 1.53-24.53 2.29-.68.06-1.36.13-2.06.19-15.65 1.46-31.3 2.91-46.95 4.37-14.29 1.32-28.58 2.65-42.86 3.98-2.53.23-5.06.47-7.59.7-26.86 2.5-53.7 5.05-80.53 7.85-1.03.11-2.06.22-3.13.32-9.61 1.01-19.22 2.02-28.82 3.06-3.38.37-6.76.73-10.14 1.09-2.25.24-4.49.49-6.74.74-8.64.93-17.08 1.27-25.77 1.08v-3c1.04-.53 2.08-1.06 3.14-1.61 19.25-9.86 38.5-19.71 57.74-29.58.8-.41 1.61-.82 2.44-1.25 8.42-4.32 16.84-8.64 25.25-12.97 1.04-.54 1.04-.54 2.11-1.08l2.1-1.09c1.41-.72 2.81-1.45 4.22-2.17.7-.36 1.39-.72 2.11-1.09 13.11-6.75 26.25-13.46 39.39-20.16 24.28-12.39 48.54-24.83 72.75-37.37l3.28-1.7c5.31-2.76 10.62-5.53 15.9-8.36 1.55-.82 1.55-.82 3.13-1.66q2.88-1.53 5.76-3.09c8.25-4.38 16.32-7.41 25.74-7.32.76 0 1.52.01 2.3.01 7.68.21 15 1.8 22.49 3.42 8.49 1.81 16.98 3.15 25.59 4.26 1.16.15 2.32.31 3.52.46 19.84 2.49 39.82 3.57 59.79 4.24l10.17.36c4.72.17 9.44.34 14.17.5 10.61.38 21.23.77 31.85 1.19l3.12.12c14.46.57 28.91 1.32 43.36 2.19 24.98 1.48 49.97 2.47 74.98 3.34l8.59.3a3042 3042 0 0 0 39.5 1.17c4.69.11 9.39.2 14.09.25 1.41.01 2.82.04 4.23.07 10.32.24 10.32.24 19.19-4.38 6.98-7.37 11.44-17.02 16-26m-1231-153c2.53 1.73 4.51 3.8 6.56 6.06l1.71 1.8c1.6 1.7 3.17 3.41 4.73 5.14.66.73 1.32 1.46 2 2.22 1.08 1.22 2.14 2.45 3.2 3.69 2.37 2.75 4.84 5.42 7.3 8.09 5.18 5.63 10.25 11.35 15.21 17.18 5.82 6.84 11.75 13.56 17.84 20.16 4.17 4.52 8.18 9.16 12.16 13.84 4.9 5.76 9.83 11.47 14.98 17.01 5.02 5.41 9.71 11.04 14.31 16.81.77.96 1.54 1.92 2.34 2.91 1.89 2.36 3.78 4.72 5.66 7.09-3.02 2.01-4.25 2.36-7.72 2.81-1.45.19-1.45.19-2.94.39-1.59.2-1.59.2-3.22.4-1.12.15-2.24.3-3.39.45-3.72.48-7.43.96-11.15 1.43-2.58.33-5.16.66-7.74 1-5.41.7-10.83 1.39-16.24 2.08-6.25.8-12.5 1.6-18.75 2.41-6.01.78-12.03 1.55-18.05 2.33-2.56.32-5.11.65-7.67.98-3.58.46-7.16.92-10.73 1.37-1.06.14-2.11.28-3.2.42-5.11.64-10.05 1.08-15.2.93-3.02-7.25-5.59-14.59-7.98-22.07-.36-1.14-.73-2.28-1.11-3.45-1.18-3.68-2.36-7.36-3.53-11.04-.41-1.25-.81-2.51-1.22-3.79-2.38-7.44-4.74-14.89-7.11-22.33-.95-3-1.91-6-2.87-9.01-1.24-3.88-2.46-7.76-3.67-11.66l-1.26-3.99c-5.19-16.22-5.19-16.22-2.29-24.36 4.2-5.91 8.89-9.52 15.04-13.3 1.46-.91 2.91-1.83 4.37-2.74 4.51-2.81 9.03-5.59 13.63-8.26.68-.41 1.36-.83 2.05-1.26 4.77-2.71 8.68-3.78 13.95-1.74" fill="#10486F"/></svg>